<?xml version="1.0" encoding="utf-8"?>
<!-- Generator: Adobe Illustrator 26.3.1, SVG Export Plug-In . SVG Version: 6.00 Build 0)  -->
<svg version="1.1" id="img-slide-5" xmlns="http://www.w3.org/2000/svg" xmlns:xlink="http://www.w3.org/1999/xlink" x="0px"
	 y="0px" viewBox="0 0 353.4 260.5" style="enable-background:new 0 0 353.4 260.5;" xml:space="preserve">
<style type="text/css">
	.st0{clip-path:url(#SVGID_00000161611746459534185200000005987784241726055347_);}
	.st1{clip-path:url(#SVGID_00000160887439121810621290000011011466718844933252_);}
	.st2{fill:#EBEBEB;}
	.st3{fill:#FFFFFF;}
	.st4{fill:#E0E0E0;}
	.st5{fill:#F5F5F5;}
	.st6{fill:#455A64;}
	.st7{fill:#263238;}
	.st8{fill:#91644A;}
	.st9{opacity:0.36;}
	.st10{clip-path:url(#SVGID_00000090264903530559458700000010431929093813211834_);}
	.st11{clip-path:url(#SVGID_00000147941851473219930700000012018644272084738980_);}
	.st12{clip-path:url(#SVGID_00000048480242699681393540000000592204058669205390_);}
	.st13{enable-background:new    ;}
</style>
<g>
	<defs>
		<rect id="SVGID_1_" x="1" width="353.4" height="260.5"/>
	</defs>
	<clipPath id="SVGID_00000129904588064061047540000006085868820025059721_">
		<use xlink:href="#SVGID_1_"  style="overflow:visible;"/>
	</clipPath>
	<g style="clip-path:url(#SVGID_00000129904588064061047540000006085868820025059721_);">
		<g id="Grupo_1882">
			<g id="Grupo_1870">
				<g>
					<defs>
						<rect id="SVGID_00000174569720338915905820000003211625666469018255_" x="1" width="353.4" height="260.5"/>
					</defs>
					<clipPath id="SVGID_00000111906769197651081830000017770839608861378950_">
						<use xlink:href="#SVGID_00000174569720338915905820000003211625666469018255_"  style="overflow:visible;"/>
					</clipPath>
					<g style="clip-path:url(#SVGID_00000111906769197651081830000017770839608861378950_);">
						<g id="Grupo_1869">
							<path id="Caminho_1614" class="st2" d="M94.3,46.6c0,25.8-20.9,46.6-46.6,46.6S1.1,72.3,1.1,46.6C1,20.9,21.9,0,47.6,0
								S94.3,20.9,94.3,46.6L94.3,46.6"/>
							<path id="Caminho_1615" class="st3" d="M90,46.2c0,23.3-18.9,42.2-42.2,42.2S5.6,69.5,5.6,46.2S24.5,4,47.8,4
								S90,22.9,90,46.2L90,46.2"/>
							<path id="Caminho_1616" class="st4" d="M5.2,43.6v4.2c0,0.5,0.1,1.1,0.2,1.8s0.1,1.3,0.2,2.1S5.8,53.3,6,54
								c0.7,4,2.1,7.9,3.9,11.6c2.5,4.8,5.8,9.1,9.9,12.7l1.7,1.5c0.6,0.5,1.3,0.9,1.9,1.3c0.7,0.4,1.3,0.9,2,1.3l2.1,1.2l1.1,0.6
								l1.1,0.5l2.3,1c0.8,0.3,1.6,0.5,2.4,0.8s1.7,0.5,2.5,0.7c1.7,0.4,3.5,0.8,5.3,1l2.7,0.3h4.2l1.4-0.1c0.9-0.1,1.9-0.1,2.9-0.3
								c1.9-0.3,3.8-0.7,5.7-1.3l1.4-0.4c0.2-0.1,0.5-0.1,0.7-0.2l0.7-0.3l2.8-1.1c0.9-0.4,1.8-0.9,2.7-1.4c0.4-0.2,0.9-0.5,1.4-0.7
								l1.3-0.8c1.8-1.1,3.4-2.4,5-3.7l2.3-2.2l0.6-0.6l0.5-0.6l1-1.2l1.1-1.2l0.9-1.3l0.9-1.3l0.5-0.7c0.1-0.2,0.3-0.5,0.4-0.7
								l1.6-2.9l1.3-3c1.7-4.2,2.7-8.6,3.1-13.1c0.2-4.5-0.2-9.1-1.3-13.4l-0.9-3.2l-1.2-3.1l-0.3-0.8l-0.4-0.7l-0.8-1.4l-0.8-1.4
								L82.7,24l-0.9-1.4l-0.4-0.7l-0.5-0.6l-2-2.5c-1.4-1.6-2.9-3-4.5-4.4l-1.2-1L72,12.5c-0.8-0.6-1.7-1.2-2.5-1.7l-2.6-1.5
								l-0.7-0.4c-0.2-0.1-0.5-0.2-0.7-0.3L64.1,8c-1.8-0.8-3.6-1.5-5.5-2c-0.9-0.3-1.9-0.4-2.8-0.6l-1.4-0.3C53.9,5,53.5,5,53,4.9
								l-2.8-0.3c-0.9-0.1-1.8,0-2.8-0.1c-1.8,0-3.6,0.1-5.4,0.3c-0.9,0.1-1.7,0.2-2.6,0.4c-0.9,0.2-1.7,0.3-2.5,0.5l-2.4,0.7
								l-1.2,0.3l-1.1,0.5l-2.3,0.9c-0.8,0.3-1.4,0.7-2.1,1.1c-0.7,0.4-1.4,0.7-2.1,1.1l-1.9,1.2c-4.5,3-8.4,6.8-11.5,11.3
								c-2.4,3.4-4.2,7-5.4,10.9c-0.3,0.7-0.5,1.5-0.7,2.3c-0.2,0.7-0.3,1.4-0.5,2c-0.1,0.6-0.3,1.2-0.4,1.8c-0.1,0.5-0.1,1-0.2,1.5
								c-0.1,0.9-0.2,1.5-0.3,2C5.2,43.4,5.2,43.6,5.2,43.6c0,0,0-0.2,0.1-0.7s0.1-1.1,0.2-2c0-0.4,0.1-0.9,0.2-1.5
								c0.1-0.5,0.2-1.1,0.4-1.8s0.3-1.3,0.4-2.1c0.2-0.8,0.4-1.5,0.7-2.3c1.2-3.9,3-7.7,5.4-11c3.1-4.5,7-8.4,11.6-11.4l1.9-1.3
								c0.7-0.4,1.4-0.7,2.1-1.1c0.7-0.3,1.4-0.8,2.2-1.1l2.3-0.9l1.2-0.5l1.2-0.4l2.4-0.7c0.8-0.2,1.7-0.3,2.6-0.5s1.7-0.3,2.6-0.4
								c1.8-0.2,3.6-0.3,5.4-0.3c0.9,0,1.9,0,2.8,0.1L53.7,4c0.5,0.1,0.9,0.1,1.4,0.2l1.4,0.3c0.9,0.2,1.9,0.4,2.8,0.6
								c1.9,0.6,3.8,1.2,5.6,2l1.4,0.6C66.5,7.8,66.8,7.9,67,8l0.7,0.4l2.7,1.5c0.9,0.5,1.7,1.2,2.6,1.8c0.4,0.3,0.9,0.6,1.3,0.9
								l1.2,1c1.6,1.4,3.1,2.8,4.6,4.4l2,2.5l0.5,0.6l0.4,0.7l0.9,1.4l0.9,1.4l0.8,1.5l0.8,1.5l0.4,0.7l0.3,0.8
								c0.4,1,0.8,2.1,1.3,3.1l0.9,3.2c1.1,4.4,1.6,9,1.3,13.6c-0.4,4.6-1.4,9-3.1,13.3l-1.4,3.1l-1.6,2.9c-0.1,0.2-0.3,0.5-0.4,0.7
								l-0.5,0.7l-0.9,1.4l-1,1.3l-1.1,1.2l-1.1,1.2L79,75.4L78.4,76l-2.3,2.2c-1.6,1.4-3.3,2.6-5.1,3.8l-1.3,0.9
								c-0.4,0.3-0.9,0.5-1.4,0.7c-0.9,0.5-1.8,1-2.8,1.4l-2.8,1.1L62,86.4c-0.2,0.1-0.5,0.1-0.7,0.2L59.9,87
								c-1.9,0.6-3.8,1-5.8,1.3c-1,0.1-1.9,0.2-2.9,0.3l-1.4,0.1h-4.2c-0.9,0-1.9-0.2-2.8-0.3c-1.8-0.2-3.6-0.5-5.3-1
								c-0.9-0.2-1.7-0.5-2.5-0.8s-1.7-0.5-2.5-0.8l-2.3-1l-1.1-0.5L28,83.7l-2.1-1.2c-0.7-0.4-1.3-0.9-2-1.3
								c-0.6-0.5-1.3-0.9-1.9-1.4l-1.7-1.5c-4.1-3.6-7.5-7.9-10-12.8c-1.9-3.7-3.2-7.6-3.9-11.6c-0.2-0.8-0.3-1.6-0.4-2.4
								c-0.1-0.7-0.1-1.4-0.2-2.1c0-0.6-0.1-1.2-0.1-1.8v-1.5c0-0.9,0-1.6,0.1-2C5.2,43.9,5.2,43.6,5.2,43.6"/>
							<path id="Caminho_1617" class="st4" d="M67.1,47.3c-0.5,0.1-1,0.1-1.5,0.1l-4.1,0.1c-3.5,0-8.4,0.1-13.9,0.1h-0.3v-3.1
								c0-6.2,0-11.7,0.1-15.7c0-1.9,0.1-3.6,0.1-4.8c0-0.6,0-1.2,0.1-1.8c0.1,0.6,0.1,1.2,0.1,1.8c0,1.2,0.1,2.8,0.1,4.8
								c0.1,4,0.1,9.6,0.1,15.7v2.8L47.6,47c5.5,0,10.4,0,13.9,0.1l4.1,0.1C66.1,47.2,66.6,47.3,67.1,47.3"/>
							<path id="Caminho_1618" class="st4" d="M47.7,10.5c0.3,1.2,0.4,2.4,0.3,3.6c0.1,1.2,0,2.4-0.3,3.6c-0.3-1.2-0.4-2.4-0.3-3.6
								C47.3,12.9,47.4,11.7,47.7,10.5"/>
							<path id="Caminho_1619" class="st4" d="M67,16.3c-0.6,1-1.4,1.9-2.3,2.7c-0.8,0.9-1.7,1.7-2.7,2.3c0.6-1,1.4-1.9,2.3-2.7
								C65.1,17.7,66,16.9,67,16.3"/>
							<path id="Caminho_1620" class="st4" d="M78.3,28.6c-0.9,0.8-1.9,1.4-2.9,2c-1,0.7-2,1.3-3.1,1.7c0.8-0.9,1.7-1.6,2.8-2.2
								C76.1,29.4,77.2,28.9,78.3,28.6"/>
							<path id="Caminho_1621" class="st4" d="M85,47c-1.6,0.3-3.2,0.4-4.9,0.3c-1.6,0.1-3.3,0-4.9-0.3c1.6-0.3,3.2-0.4,4.9-0.3
								C81.7,46.6,83.4,46.7,85,47"/>
							<path id="Caminho_1622" class="st4" d="M17.5,46.3c-1.5,0.3-3.1,0.4-4.6,0.3c-1.5,0.1-3.1,0-4.6-0.3c1.5-0.3,3.1-0.4,4.6-0.3
								C14.5,46,16,46,17.5,46.3"/>
							<path id="Caminho_1623" class="st4" d="M22.3,60c-1,1.2-2.2,2.2-3.5,3.2c-1.2,1.1-2.4,2-3.8,2.7c1-1.2,2.2-2.2,3.5-3.2
								C19.6,61.6,20.9,60.7,22.3,60"/>
							<path id="Caminho_1624" class="st4" d="M34,70.5c-0.7,1.4-1.5,2.8-2.4,4.1c-0.7,1.4-1.6,2.7-2.5,4c0.5-1.5,1.1-3,2-4.3
								C32,72.9,32.9,71.7,34,70.5"/>
							<path id="Caminho_1625" class="st4" d="M47.7,84.2c-0.3-1.6-0.4-3.2-0.3-4.9c-0.1-1.6,0-3.3,0.3-4.9c0.3,1.6,0.4,3.2,0.3,4.9
								C48,80.9,47.9,82.5,47.7,84.2"/>
							<path id="Caminho_1626" class="st4" d="M68.6,77.7c-1.5-0.7-2.8-1.6-4-2.7c-1.3-1-2.4-2.2-3.3-3.6c1.3,1,2.5,2.1,3.6,3.2
								C66.3,75.5,67.5,76.6,68.6,77.7"/>
							<path id="Caminho_1627" class="st4" d="M78.5,67.1c-1.2-0.8-2.3-1.8-3.2-2.8c-1.1-0.9-2-2-2.8-3.2c1.2,0.8,2.3,1.8,3.2,2.8
								C76.7,64.8,77.7,65.9,78.5,67.1"/>
							<path id="Caminho_1628" class="st4" d="M21.8,33.2c-1.1-0.7-2-1.5-2.8-2.5c-1-0.8-1.8-1.8-2.5-2.8c1.1,0.7,2,1.5,2.8,2.5
								C20.3,31.2,21.2,32.2,21.8,33.2"/>
							<path id="Caminho_1629" class="st4" d="M34,20.4c-1-0.7-2-1.5-2.8-2.4c-0.9-0.8-1.7-1.7-2.4-2.8c1,0.7,2,1.5,2.8,2.4
								C32.5,18.5,33.3,19.4,34,20.4"/>
							<path id="Caminho_1630" class="st5" d="M10,46.6C10,24.3,27.4,5.8,49.7,4.5c-0.8,0-1.7-0.1-2.5-0.1C23.9,4.4,5,23.3,5,46.6
								s18.9,42.2,42.2,42.2c0.8,0,1.7,0,2.5-0.1C27.4,87.4,10,68.9,10,46.6"/>
							<path id="Caminho_1631" class="st6" d="M234.5,76.8c4.5,2.1,8.2,5.6,10.6,10c-4.7,0.6-11.1,0.2-15.3-2
								c-4.1-2.1-7.5-5.4-9.7-9.5C225,74.2,230,74.7,234.5,76.8"/>
							<path id="Caminho_1632" class="st7" d="M238.6,83.4c-0.2-0.2-0.4-0.3-0.6-0.5c-0.4-0.3-1-0.7-1.8-1.2
								c-4.1-2.5-8.5-4.4-13.1-5.8c-0.9-0.3-1.6-0.4-2.1-0.6c-0.3-0.1-0.5-0.1-0.8-0.2c0.2,0.1,0.5,0.2,0.8,0.3
								c0.5,0.1,1.2,0.4,2.1,0.6c4.5,1.5,8.9,3.4,13.1,5.7c0.8,0.5,1.4,0.8,1.9,1.1C238.1,83.1,238.4,83.3,238.6,83.4"/>
							<path id="Caminho_1633" class="st6" d="M252,63.9c4.5,2.1,8.2,5.6,10.6,10c-4.7,0.6-11.1,0.2-15.3-2s-7.6-5.6-9.8-9.8
								C242.4,61.2,247.5,61.8,252,63.9"/>
							<path id="Caminho_1634" class="st7" d="M256.1,70.5c-0.2-0.2-0.4-0.3-0.6-0.5c-0.4-0.3-1-0.7-1.8-1.2
								c-4.1-2.5-8.5-4.4-13.1-5.8c-0.9-0.3-1.6-0.4-2.1-0.6c-0.3-0.1-0.5-0.1-0.8-0.2c0.2,0.1,0.5,0.2,0.8,0.3
								c0.5,0.1,1.2,0.4,2.1,0.6c4.5,1.5,8.9,3.4,13.1,5.7c0.8,0.5,1.4,0.8,1.9,1.1C255.6,70.3,255.9,70.4,256.1,70.5"/>
							<path id="Caminho_1635" class="st6" d="M250,45c0.3-5-0.9-10-3.6-14.2c-2.8,3.9-5.5,9.8-5.6,14.5s1.2,9.4,3.8,13.4
								C247.8,54.8,249.7,50,250,45"/>
							<path id="Caminho_1636" class="st7" d="M246.2,38.2c0.1,0.3,0.1,0.5,0.1,0.8c0.1,0.5,0.1,1.3,0.1,2.2
								c0.2,4.8-0.3,9.7-1.3,14.4c-0.2,0.9-0.4,1.6-0.5,2.1c-0.1,0.3-0.1,0.5-0.2,0.8c0-0.3,0.1-0.5,0.1-0.8
								c0.1-0.5,0.3-1.2,0.4-2.2c0.4-1.8,0.8-4.3,1-7.2s0.3-5.4,0.3-7.2L246.2,38.2"/>
							<path id="Caminho_1637" class="st6" d="M232,56.4c0.3-5-0.9-10-3.6-14.2c-2.8,3.9-5.5,9.8-5.6,14.5s1.2,9.4,3.8,13.4
								C229.7,66.2,231.6,61.4,232,56.4"/>
							<path id="Caminho_1638" class="st7" d="M228.2,49.5c0.1,0.3,0.1,0.5,0.1,0.8c0.1,0.5,0.1,1.3,0.1,2.2
								c0.2,4.8-0.3,9.7-1.3,14.4c-0.2,0.9-0.4,1.6-0.5,2.1c-0.1,0.3-0.1,0.5-0.2,0.8c0-0.3,0.1-0.5,0.1-0.8
								c0.1-0.5,0.3-1.2,0.4-2.2c0.4-1.8,0.8-4.3,1-7.2s0.3-5.4,0.3-7.2L228.2,49.5"/>
							<path id="Caminho_1639" class="st7" d="M210.7,86.8c0.1-0.2,0.2-0.4,0.3-0.5l1-1.4l0.7-1l0.9-1.2c0.7-0.8,1.4-1.8,2.3-2.8
								l1.4-1.6c0.5-0.6,1-1.1,1.6-1.7c1.1-1.2,2.3-2.3,3.6-3.6c5.7-5.3,12.2-9.8,19.2-13.2c1.6-0.8,3.2-1.5,4.6-2.1l2.1-0.9l2-0.7
								c1.3-0.5,2.4-0.8,3.5-1.2c0.5-0.2,1-0.3,1.4-0.4l1.2-0.3l1.7-0.4c0.2-0.1,0.4-0.1,0.6-0.1c-0.2,0.1-0.4,0.1-0.6,0.2l-1.7,0.5
								l-1.2,0.3c-0.4,0.1-0.9,0.3-1.4,0.5c-1,0.3-2.2,0.7-3.4,1.2l-2,0.8l-2.1,0.9c-1.5,0.6-3,1.4-4.6,2.1
								c-7,3.5-13.4,7.9-19.1,13.2c-1.3,1.2-2.6,2.4-3.7,3.6c-0.6,0.6-1.1,1.1-1.6,1.7l-1.4,1.6c-0.9,1-1.7,2-2.4,2.8
								c-0.3,0.4-0.7,0.8-0.9,1.2l-0.8,1l-1.1,1.4C210.9,86.5,210.8,86.7,210.7,86.8"/>
							<path id="Caminho_1640" class="st6" d="M264.7,47.4c4.8-1.2,9.9-0.9,14.6,1c-3.3,3.4-8.6,7.2-13.2,8.2s-9.4,0.5-13.8-1.3
								C255.4,51.4,259.8,48.6,264.7,47.4"/>
							<path id="Caminho_1641" class="st7" d="M272,49.9h-0.8c-0.5,0-1.3,0.1-2.2,0.3c-4.8,0.7-9.4,2-13.9,3.9
								c-0.9,0.4-1.5,0.7-2,0.9c-0.2,0.1-0.5,0.2-0.7,0.4c0.3-0.1,0.5-0.2,0.8-0.3c0.5-0.2,1.2-0.5,2-0.8c1.7-0.7,4.1-1.5,6.8-2.3
								s5.2-1.3,7-1.6c0.9-0.2,1.6-0.3,2.2-0.4C271.5,50,271.8,49.9,272,49.9"/>
							<path id="Caminho_1642" class="st6" d="M194.5,37.9c3.5-4.4,8.2-7.7,13.6-9.3c-0.5,5.2-2.7,12.2-6.1,16.3
								c-3.4,4.1-8,7-13.1,8.5C189.1,47.7,191.1,42.3,194.5,37.9"/>
							<path id="Caminho_1643" class="st7" d="M202.7,34.9c-0.2,0.2-0.5,0.4-0.7,0.6l-1.7,1.7c-3.7,3.9-7,8.3-9.6,13
								c-0.5,0.9-0.9,1.6-1.2,2.2c-0.1,0.3-0.3,0.5-0.4,0.8c0.2-0.2,0.3-0.5,0.5-0.8c0.3-0.5,0.7-1.2,1.2-2.1
								c1.1-1.8,2.6-4.2,4.5-6.7s3.7-4.7,5.1-6.3c0.7-0.8,1.3-1.4,1.7-1.8C202.4,35.4,202.6,35.2,202.7,34.9"/>
							<path id="Caminho_1644" class="st6" d="M200.1,59.5c3.9-2.9,8.7-4.6,13.5-4.7c-1.7,4.3-5.1,9.7-8.9,12.3
								c-3.8,2.6-8.3,4.1-13,4.1C193.3,66.6,196.2,62.5,200.1,59.5"/>
							<path id="Caminho_1645" class="st7" d="M207.7,58.9c-0.2,0.1-0.5,0.2-0.7,0.3c-0.4,0.2-1.1,0.6-1.9,1.1
								c-4,2.5-7.8,5.4-11.1,8.8c-0.6,0.6-1.1,1.2-1.5,1.6c-0.2,0.2-0.4,0.4-0.5,0.6c0.2-0.2,0.4-0.3,0.6-0.5l1.5-1.5
								c1.3-1.3,3.1-2.9,5.3-4.7s4.2-3.1,5.8-4.1c0.8-0.5,1.4-0.9,1.8-1.1C207.3,59.2,207.5,59.1,207.7,58.9"/>
							<path id="Caminho_1646" class="st6" d="M183.7,53.9c-3.7-3.1-8.4-4.9-13.2-5.2c1.4,4.4,4.4,9.9,8.1,12.7
								c3.7,2.8,8.1,4.4,12.7,4.6C190.1,61.2,187.4,57,183.7,53.9"/>
							<path id="Caminho_1647" class="st7" d="M176.1,53c0.2,0.1,0.5,0.2,0.7,0.4c0.4,0.3,1,0.6,1.8,1.1c3.9,2.6,7.4,5.7,10.5,9.2
								c0.6,0.7,1.1,1.2,1.4,1.6c0.2,0.2,0.3,0.4,0.5,0.6c-0.2-0.2-0.4-0.4-0.5-0.6c-0.3-0.4-0.8-0.9-1.4-1.6
								c-3.2-3.4-6.7-6.5-10.5-9.2c-0.7-0.5-1.3-0.9-1.7-1.2C176.5,53.3,176.3,53.2,176.1,53"/>
							<path id="Caminho_1648" class="st6" d="M177.1,34.6c-4.3-2-9.2-2.5-13.8-1.5c2.4,3.8,6.7,8.2,10.8,9.9
								c4.2,1.7,8.8,2.1,13.2,1.1C184.9,39.9,181.4,36.6,177.1,34.6"/>
							<path id="Caminho_1649" class="st7" d="M169.7,35.7c0.3,0,0.5,0.1,0.7,0.2c0.5,0.1,1.2,0.3,2,0.6c4.3,1.5,8.5,3.5,12.3,6
								c0.7,0.5,1.3,0.9,1.7,1.2c0.2,0.1,0.4,0.3,0.6,0.5c-0.2-0.1-0.4-0.2-0.7-0.4c-0.4-0.3-1-0.6-1.7-1.1c-3.9-2.4-8-4.4-12.2-6
								c-0.8-0.3-1.5-0.5-2-0.7C170.1,35.9,169.9,35.8,169.7,35.7"/>
							<path id="Caminho_1650" class="st7" d="M189.7,112.4v-0.2l0.1-0.6c0.1-0.6,0.2-1.4,0.4-2.5c0.1-0.5,0.2-1.1,0.3-1.8l0.3-2.1
								c0.2-1.5,0.5-3.3,0.6-5.2l0.3-3c0.1-1.1,0.1-2.2,0.2-3.3c0.2-2.3,0.2-4.7,0.3-7.3c0.1-5.6-0.2-11.1-0.7-16.7
								c-0.6-5.5-1.4-11-2.6-16.4c-0.6-2.5-1.1-4.9-1.8-7c-0.3-1.1-0.6-2.2-0.9-3.2s-0.6-2-0.9-2.9c-0.6-1.8-1.2-3.5-1.7-4.9
								c-0.3-0.7-0.5-1.4-0.8-2s-0.5-1.2-0.7-1.7l-1-2.3l-0.2-0.6c0-0.1-0.1-0.1-0.1-0.2c0,0.1,0.1,0.1,0.1,0.2l0.3,0.6l1,2.3
								c0.2,0.5,0.5,1,0.7,1.6s0.5,1.3,0.8,2c0.5,1.4,1.2,3.1,1.8,4.9c0.3,0.9,0.6,1.9,1,2.9c0.3,1,0.6,2.1,0.9,3.2
								c0.7,2.2,1.2,4.6,1.8,7c1.2,5.4,2,10.9,2.6,16.5c0.5,5.5,0.7,11.1,0.6,16.7c-0.1,2.6-0.1,5-0.3,7.3c-0.1,1.1-0.1,2.2-0.2,3.3
								s-0.2,2.1-0.3,3c-0.2,1.9-0.5,3.7-0.7,5.2c-0.1,0.8-0.2,1.5-0.3,2.1c-0.1,0.7-0.2,1.2-0.3,1.8l-0.5,2.5
								c-0.1,0.3-0.1,0.5-0.1,0.6C189.8,112.2,189.8,112.3,189.7,112.4"/>
							<path id="Caminho_1651" class="st6" d="M140.5,70.8c-4.9,1-9.3,3.5-12.6,7.2c4.4,1.7,10.8,2.8,15.3,1.7
								c4.5-1.1,8.6-3.5,11.7-7C150.4,70.6,145.4,69.9,140.5,70.8"/>
							<path id="Caminho_1652" class="st7" d="M135,76.3c0.2-0.1,0.5-0.2,0.7-0.3c0.5-0.2,1.2-0.4,2.1-0.7c4.6-1.4,9.3-2.3,14.1-2.5
								c0.9,0,1.7-0.1,2.2-0.1h0.8c-0.3,0-0.5,0.1-0.8,0.1c-0.5,0-1.3,0.1-2.2,0.1c-4.8,0.3-9.5,1.2-14.1,2.5
								c-0.9,0.3-1.6,0.5-2.1,0.6C135.5,76.2,135.2,76.3,135,76.3"/>
							<path id="Caminho_1653" class="st6" d="M126.6,54.2c-4.9,1-9.3,3.5-12.6,7.2c4.4,1.7,10.8,2.8,15.3,1.7
								c4.6-1.1,8.7-3.6,11.8-7.2C136.5,53.8,131.4,53.2,126.6,54.2"/>
							<path id="Caminho_1654" class="st7" d="M121,59.6c0.2-0.1,0.5-0.2,0.7-0.3c0.5-0.2,1.2-0.4,2.1-0.7c4.6-1.4,9.3-2.3,14.1-2.5
								c0.9,0,1.7-0.1,2.2-0.1h0.8c-0.3,0-0.5,0.1-0.8,0.1c-0.5,0-1.3,0.1-2.2,0.1c-4.8,0.3-9.5,1.2-14.1,2.5
								c-0.9,0.3-1.6,0.5-2.1,0.6C121.5,59.5,121.3,59.6,121,59.6"/>
							<path id="Caminho_1655" class="st6" d="M133,36.3c0.9-4.9,3.3-9.5,6.9-12.9c1.8,4.4,3,10.8,2,15.4s-3.4,8.8-6.8,12.1
								C132.8,46.4,132.1,41.3,133,36.3"/>
							<path id="Caminho_1656" class="st7" d="M138.2,30.6c-0.1,0.2-0.2,0.5-0.3,0.8c-0.2,0.5-0.4,1.2-0.6,2.1
								c-1.3,4.7-2,9.5-2.2,14.3V50c0,0.3,0,0.5,0.1,0.8c0-0.3,0.1-0.5,0.1-0.8c0-0.5,0-1.3,0.1-2.2c0.1-1.8,0.3-4.4,0.7-7.2
								s1-5.3,1.4-7.1c0.2-0.9,0.4-1.6,0.6-2.1C138.1,31.1,138.2,30.8,138.2,30.6"/>
							<path id="Caminho_1657" class="st6" d="M147.8,51.6c0.9-4.9,3.3-9.5,6.9-12.9c1.8,4.4,3,10.8,2,15.4s-3.4,8.8-6.8,12.1
								C147.7,61.7,147,56.6,147.8,51.6"/>
							<path id="Caminho_1658" class="st7" d="M153.1,45.9c-0.1,0.2-0.2,0.5-0.3,0.8c-0.2,0.5-0.4,1.2-0.6,2.1
								c-1.3,4.7-2,9.5-2.2,14.3v2.2c0,0.3,0,0.5,0.1,0.8c0-0.3,0.1-0.5,0.1-0.8c0-0.5,0-1.3,0.1-2.2c0.1-1.8,0.3-4.4,0.7-7.2
								s1-5.3,1.4-7.1c0.2-0.9,0.4-1.6,0.6-2.1C153,46.4,153,46.1,153.1,45.9"/>
							<path id="Caminho_1659" class="st7" d="M161.3,86.2c-0.1-0.2-0.1-0.4-0.2-0.6c-0.2-0.4-0.4-0.9-0.6-1.6l-0.5-1.2
								c-0.2-0.4-0.4-0.9-0.6-1.4c-0.5-1-0.9-2.1-1.6-3.3l-1-1.9c-0.3-0.7-0.8-1.3-1.1-2c-0.8-1.4-1.7-2.8-2.7-4.3
								c-4.3-6.5-9.6-12.4-15.5-17.4c-1.4-1.1-2.7-2.2-4-3.2c-0.6-0.5-1.3-0.9-1.9-1.4l-1.8-1.2c-1.1-0.8-2.2-1.4-3.1-1.9
								c-0.5-0.3-0.9-0.5-1.3-0.8l-1.1-0.6l-1.5-0.8c-0.2-0.1-0.4-0.2-0.5-0.3c0.2,0.1,0.3,0.2,0.5,0.3l1.5,0.9l1.1,0.6
								c0.4,0.2,0.8,0.5,1.3,0.8c0.9,0.6,2,1.2,3.1,2l1.8,1.2c0.6,0.4,1.2,0.9,1.8,1.4c1.3,0.9,2.6,2,4,3.2
								c5.9,5,11.1,10.9,15.5,17.3c1,1.5,1.9,2.9,2.7,4.3c0.4,0.7,0.8,1.3,1.2,2l1,1.9c0.7,1.2,1.2,2.3,1.6,3.3
								c0.2,0.5,0.5,0.9,0.6,1.4l0.5,1.2l0.7,1.6C161.1,85.9,161.2,86.1,161.3,86.2"/>
							<path id="Caminho_1660" class="st6" d="M118.2,35.2c-4.4-2.3-9.4-3.2-14.4-2.5c2.4,4.1,6.7,9,10.9,11.1c4.3,2,9,2.7,13.7,2
								C126.2,41.2,122.6,37.5,118.2,35.2"/>
							<path id="Caminho_1661" class="st7" d="M110.4,35.8c0.3,0.1,0.5,0.1,0.8,0.2c0.5,0.2,1.2,0.4,2,0.8c4.5,1.8,8.7,4.2,12.6,7.1
								c0.7,0.6,1.3,1,1.7,1.3c0.2,0.2,0.4,0.3,0.6,0.5c-0.2-0.1-0.5-0.3-0.7-0.5c-0.4-0.3-1-0.7-1.8-1.3c-1.5-1.1-3.6-2.5-6.1-3.9
								c-2.1-1.2-4.2-2.2-6.4-3.2c-0.8-0.4-1.5-0.7-2-0.9C110.9,36.1,110.7,36,110.4,35.8"/>
							<rect id="Retângulo_1066" x="57" y="62.5" class="st8" width="282.1" height="191.7"/>
							<rect id="Retângulo_1067" x="66.9" y="71.2" class="st6" width="262.2" height="175.6"/>
							<path id="Caminho_1662" class="st7" d="M339.2,62.5l-0.6,0.6c-0.4,0.4-1.1,1-1.9,1.8l-7.5,6.8l0,0l-131,0.1L67,71.7l0,0
								l-7.3-6.8l-1.9-1.8l-0.6-0.6c0,0,0.2,0.2,0.7,0.6l1.9,1.7l7.3,6.7H67l131.2-0.1l131,0.1h-0.1l7.5-6.7l1.9-1.7
								C338.9,62.7,339.2,62.5,339.2,62.5"/>
							<path id="Caminho_1663" class="st7" d="M339.2,254.2c0,0-0.2-0.2-0.7-0.5l-1.9-1.4c-1.7-1.3-4.2-3.1-7.5-5.5h0.1l-131,0.1
								L67,246.8h0.1l-7.3,5.5l-1.9,1.4c-0.4,0.3-0.7,0.5-0.7,0.5s0.2-0.2,0.6-0.5l1.9-1.4l7.3-5.6l0,0l131.2-0.1l131,0.1l0,0
								l7.5,5.6l1.9,1.4C338.9,254.1,339.2,254.2,339.2,254.2"/>
							<path id="Caminho_1664" class="st7" d="M329.1,71.5c0.1,0,0.2,39.2,0.2,87.6s-0.1,87.6-0.2,87.6s-0.2-39.2-0.2-87.6
								S329,71.5,329.1,71.5"/>
							<rect id="Retângulo_1068" x="46.8" y="254.2" class="st8" width="306.8" height="6.3"/>
							<path id="Caminho_1665" class="st7" d="M354.4,254.6c0,0.1-68.8,0.2-153.6,0.2s-153.6-0.1-153.6-0.2s68.8-0.2,153.6-0.2
								C285.6,254.3,354.4,254.4,354.4,254.6"/>
							<path id="Caminho_1666" class="st7" d="M66.9,71.2c0.1,0,0.2,39.7,0.2,88.7s-0.1,88.7-0.2,88.7s-0.2-39.7-0.2-88.7
								S66.8,71.2,66.9,71.2"/>
						</g>
					</g>
				</g>
			</g>
		</g>
	</g>
</g>
<g>
	<g id="Grupo_1880_00000001640271689691374000000000567142857794544567_">
		<g id="Grupo_1873_00000131330029847289825300000004492998313212030642_" transform="translate(117.88 187.709)" class="st9">
			<g id="Grupo_1872_00000093869100706473714750000001182295741792739726_">
				<g>
					<g>
						<defs>
							<rect id="SVGID_00000138549585536201430620000000378630305165992868_" x="-0.8" y="-23.8" width="169" height="3.8"/>
						</defs>
						<clipPath id="SVGID_00000156545708463621988040000013153216600351245697_">
							<use xlink:href="#SVGID_00000138549585536201430620000000378630305165992868_"  style="overflow:visible;"/>
						</clipPath>
						
							<g id="Grupo_1871_00000119075608797089109740000009734856535059692991_" style="clip-path:url(#SVGID_00000156545708463621988040000013153216600351245697_);">
							<path id="Caminho_1667_00000075847068704963778860000013735315194606057140_" class="st3" d="M168.2-22.8l-0.2-0.3l-0.9,0.3
								H168.2z"/>
							<path id="Caminho_1668_00000012473452334741854450000015748484116637719961_" class="st3" d="M159.5-23.1
								c-0.8,0.3-2.3,0.5-2.3,1l1.4-0.5c0.2,0.4,1.1,0.4,2,0.3h-0.9c0.2-0.1,0.1-0.3,0.3-0.4c1.4,0.2,1.8-0.4,3.1,0.1H163l1-0.3
								c0.3,0.1,0.2,0.3,0.1,0.3C165-22.9,166-23,167-23c-1-0.8-2.8,0.6-3.7-0.2h0.1C162.1-22.8,160.7-23.3,159.5-23.1"/>
							<path id="Caminho_1669_00000175283136353810156260000001671920123663989684_" class="st3" d="M164.1-22.4L164.1-22.4
								C164-22.4,164.1-22.4,164.1-22.4"/>
							<path id="Caminho_1670_00000008142944049538610270000017654987429703008640_" class="st3" d="M113.6-23.5l-0.1,0.1
								C113.6-23.4,113.6-23.5,113.6-23.5"/>
							<path id="Caminho_1671_00000096760357781373009350000000017831641877283503_" class="st3" d="M129-22L129-22
								C128.8-21.9,128.9-21.9,129-22"/>
							<path id="Caminho_1672_00000075874671856314559310000009835538174634880406_" class="st3" d="M29.6-23.3l-0.3-0.2
								C29.3-23.4,29.5-23.3,29.6-23.3"/>
							<path id="Caminho_1673_00000144318051418569044580000005045381552095080082_" class="st3" d="M8.9-23.5L8.9-23.5L8.9-23.5"/>
							<path id="Caminho_1674_00000008865645618164559950000012137847602611049627_" class="st3" d="M18.3-21.1v0.2
								C18.4-21.1,18.4-21.1,18.3-21.1"/>
							<path id="Caminho_1675_00000052102983273812085440000008326298193190327714_" class="st3" d="M11.6-20.8
								c-0.2,0-0.4-0.1-0.6-0.1C11.2-20.8,11.4-20.8,11.6-20.8"/>
							<path id="Caminho_1676_00000142138812476868388960000016268042254547778432_" class="st3" d="M9.1-23.5c-0.1,0-0.1,0-0.2,0.1
								C8.9-23.5,9-23.5,9.1-23.5"/>
							<path id="Caminho_1677_00000036217220117027023120000002117609049459583671_" class="st3" d="M28.4-20.9l0.3,0.4
								C28.6-20.6,28.5-20.7,28.4-20.9"/>
							<path id="Caminho_1678_00000137116300503311658360000013209266399402035115_" class="st3" d="M9.9-20.5
								c-0.1-0.1-0.2-0.1-0.4-0.1C9.7-20.6,9.8-20.5,9.9-20.5"/>
							<path id="Caminho_1679_00000023984442797636667720000007792545908139757757_" class="st3" d="M158.1-23c0.2,0,0.4,0,0.7-0.1
								C158.5-23.1,158.3-23.1,158.1-23"/>
							<path id="Caminho_1680_00000064341794565167999810000005163620768840797839_" class="st3" d="M66.1-20.5
								c-0.1,0-0.1,0.1-0.1,0.2C66.2-20.4,66.2-20.4,66.1-20.5"/>
							<path id="Caminho_1681_00000071535979779907029790000010507921935571613342_" class="st3" d="M44-20.6L44-20.6
								C44-20.5,44-20.5,44-20.6L44-20.6z"/>
							<path id="Caminho_1682_00000114790435130076217240000006330066722533192081_" class="st3" d="M50.5-20.6
								C50.4-20.6,50.4-20.6,50.5-20.6L50.5-20.6"/>
							<path id="Caminho_1683_00000040534043956075187110000005872207608762819262_" class="st3" d="M39.1-20.1
								c-0.1,0-0.2,0.1-0.2,0.1L39.1-20.1z"/>
							<path id="Caminho_1684_00000166637525790534858250000003779541912371494273_" class="st3" d="M34.5-20.6
								c0.2,0.1,0,0.3-0.2,0.4c1.2,0.2,1.6-0.3,2.8,0l-0.6-0.2c1-0.3,2-0.3,2.9,0l-0.2,0.1c0.7-0.3,1.9,0.3,2.2,0
								c-0.3-0.2,0-0.3-0.5-0.4l1.9-0.3l0.1,0.5l1-0.2c-0.2-0.2,1.3,0.2,1.4-0.3c0.6,0.2-0.2,0.4-0.4,0.6c0.6-0.2,0.6,0.1,1.1-0.2
								l0.6,0.5l1.5-0.3c-0.1,0,0,0.1-0.1,0.1c0.7-0.4,1.7,0.2,2.5-0.5c0,0,0,0,0,0.1c0.5-0.4,1.6-0.1,2,0c0.8-0.1,0.3-0.5,0.3-0.7
								c2.2,0.1,1.5,0.1,3.3-0.5c1.1,0.6-1.3,1,0.1,1.4c0.7-0.4,1.5-0.6,2.2-0.6c1.2,0.2,2.5,0.4,3.6,0.8l-0.1-0.4l1.4-0.2l-0.8,0.6
								c0.2-0.1,0.9-0.4,1.4-0.6c1.5-0.3,0.8,0.8,2,0.3l0.1,0.1c0.4-0.3,1.3-0.2,2.4-0.3L68-20.3l-0.7-0.1c0.4,0.5,1.2-0.1,1.9-0.1
								c0.7-0.2,0.4-0.6,0.8-0.7c0.3,0,0.7-0.1,0.9,0c0.6,0.2,0.1,0.6-0.1,0.8c0.6-0.5,0.7-0.4,2-0.6c0.1,0.2,0,0.3-0.2,0.4
								c0.2,0,0.5-0.2,0.6-0.4l0.4,0.3c1.4,0.4,1.4-0.9,3.1-0.8c-0.4,0.3,1.4-0.1,2,0.3c-0.6,0.1,0.3,0.7-0.1,1
								c1.3,0.2,0.5-0.6,1.6-0.7l-0.4,0.6c1-0.3,0.3-0.3,1.3-0.5c-0.3,0.2,0.5,0.2-0.2,0.4c1.4,0.1,1,0,2.3,0.1l0.1-0.6
								c0.3,0,0.5,0.1,0.7,0.3c-0.2,0-0.4,0-0.4,0.1c0.5,0.5,0.8-0.3,1.3,0.2c-0.1-0.2-0.3-0.5,0.2-0.5c-0.2,0.4,0.8,0.3,0.8,0.5
								c-0.3-0.3,1.1-0.1,1.2-0.5c0.6,0.3-0.2,0.3-0.2,0.5c0.5-0.5,2.1-0.1,2.5-0.3v0.1c0.6-0.3,1.6-0.4,2.9-0.8L91.9-21
								c1.2,0.1,0.8-0.7,1.8-0.7c-0.2,0.5,1.7,0,1.2,0.5c0.6-0.2,1.2-0.5,1.7-0.8c0.6,0.3-1.1,0.7-0.3,0.8l0.9-0.3l0.2,0.3
								c0-0.2,0.8-0.2,0.8-0.4c0.1,0.3,0.5,0.5,0.5,0.8c0.6-0.1,1.3,0.2,1.8-0.1v0.2c0.5-0.6,1.7-0.1,2-0.7l0.3,0.3
								c0.8-0.1,0.7-0.7,1.1-0.8s0.7-0.1,1.1,0c-1.1,0.4,0.6,0.5,0.8,0.7c0.7,0,1.4-0.1,2.1-0.3c-0.5,0.3-0.2,0.6-1.1,0.6
								c0.5,0.6,1.4-0.1,2.5-0.1v0.3c1.5-0.2,1.5-0.7,2.2-1.1c0.2,0.3,0,0.4-0.4,0.8c1.2,0.1,2.5,0.1,3.7,0c0.4,0.2,0.1,0.4-0.3,0.5
								c1.2-0.3,2.6,0.1,3.3-0.5c-0.3,0.2,0.5,0.2,0.9,0.3c0-0.1,0.1-0.3,0.1-0.3c1-0.3,2.1-0.4,3.1-0.3l-0.3,0.2
								c1.9,0.1,2.8-0.9,4.9-0.5c0.4,0.1-0.4,0.5,0.4,0.5c0.4-0.2,0.3-0.7,1.2-0.6l-0.1,0.4l0.7-0.4c-0.3-0.3-1.4-0.2-0.7-0.6
								c0.9,0.4,0.8-0.4,1.8,0.1c-0.3,0.1-0.5,0.3-0.7,0.5c2.2,0.5,3.1-0.4,5.4,0.1c1.1-0.3,2.6-0.4,3.3-0.7c0,0.4-0.2,0.8-0.6,1.1
								c1,0.1,1.4-0.8,2.1-0.3c0.5-0.5,2.7-0.3,2.9-1.1c0,0.2,1,0,0,0.4c1.3-0.2,1.7,0.7,2.3,0.7c0.3,0-0.4-0.5,0.4-0.5
								c0.1,0,0.1,0.1,0.2,0.1l0.3-0.2c0.3,0.2-0.3,0.4-0.4,0.6c1.1,0.2,1.8-0.4,3.1-0.5l-0.2,0.1h1.3h-0.1l1-0.3v0.2
								c0.2-0.1,0.3-0.2,0.6-0.2l-0.1,0.2c0.7-0.4,1.4-0.6,2.2-0.6l0.1,0.1l1.4-0.5c0.8,0.3-1,0.6,0.5,0.4l-0.4,0.5
								c1.1-0.2,1.2,0.1,2-0.1c-0.3-0.3-0.8-0.2-0.5-0.4c0.8,0.6,1.3-0.1,2.1-0.4c-0.3-0.1-0.7,0.1-1,0.3c-0.4,0-0.2-0.3-0.4-0.3
								l-0.6,0.3l-0.2-0.3l-1,0.3c0.1-0.4-1-0.1-0.6-0.5c-0.7,0.2-1.2-0.1-1.8,0.3c-0.5-0.2,0.8-0.3,0.3-0.3c-3,0.3-6,0.3-9,0.1
								l0.3-0.2c-0.3,0.2-0.7,0.3-0.9,0.5c-0.5-0.3-2.5-0.7-3.2-0.1c-0.1,0,0.1-0.1,0.1-0.2c-1,0.1-2.8-0.3-4.3-0.3
								c-0.6,0.6-2.2-0.4-2.7,0.5l0.3-0.2c0.5,0.2-0.7,0.6-0.9,0.8c-0.4-0.6,0-0.4-0.5-0.9l0.6,0.2l-0.1-0.5
								c-1.8,1.2-3.4-0.5-4.6,0.3c0.1,0,0.1-0.1,0.1-0.2c-0.8-0.3-1.3,0.3-1.9,0.5c-0.1-0.2,0.3-0.4,0.6-0.6
								c-1.3-0.2-3.6,0.4-5.1,0.1c-0.5,0.3,0.2,0.4-0.3,0.7c-0.5-0.1-0.8-0.3-0.2-0.5c-1.3-0.6-4.2,0.4-6.2-0.2
								c-1,0.3-0.4,0.5-2,0.7c0.4-0.2-0.4-0.8,0.6-0.8l0.1-0.2c-1.6,0-3.7-0.1-4.5,0.6c0-0.5-0.3-0.1-0.9-0.4
								c-0.2,0.1,0,0.1,0.1,0.1c-0.6,0.4-0.9,0-1.3,0.1l0.1-0.1l-1.1,0.3c-0.2-0.1-0.5-0.2-0.5-0.3v0.4c-0.6,0-0.3-0.4-1-0.4
								l0.2,0.3c-0.5-0.2-1.2,0.2-1.3-0.2c0-0.1,0.1,0,0.2-0.1c-0.7-0.5-1.9,0.2-2.9-0.1l0.2,0.6c-0.9,0.2-0.5-0.1-0.5-0.3
								c-0.6,0-0.7-0.2-1.5-0.2c-0.4,0.1-0.2,0.2-0.3,0.4l-0.8-0.1l0.5-0.3c-1.2,0.8-3.1-0.1-4,0.7c-0.5-0.2,0.4-0.3,0.1-0.4
								c-1.5-0.4-3.3,0.5-4.5,0.1c-2-0.4-4.3,0-6.5-0.3v0.2l-1.6-0.1c-0.4,0.3-1.5,0.2-2.2,0.6c0.1-0.1-0.1-0.3,0.1-0.4
								c-0.6,0.1-1.2,0.1-1.8,0l0.2-0.1c-1.4-0.1-2.9-0.1-4.3,0.2c-0.5,0-0.5-0.2-0.6-0.4c-0.7,0-1.5,0.1-2.1,0.4
								c-0.2-0.1-0.4-0.2-0.6-0.3l-0.3,0.4c-0.4-0.1-0.1-0.3-0.4-0.4c-1.3,0.4-2.9,0-3.9,0.1l0.1,0.2c-0.4,0.1-1.1-0.1-0.7-0.3
								c-1.9-0.2-2.8,0.6-5.3,0.5c-0.4-0.7-2.3,0.2-2.6-0.6c-1.1,0.2-1.8-0.1-2.5,0.3c0-0.1-0.1-0.1,0.1-0.1
								c-0.4-0.3-1.8-0.1-2.9,0.1l-0.1-0.2c-0.4,0.5-2.2,0.4-2.6,0.8c-0.1-0.1,0.2-0.2,0.4-0.3c-0.6-0.5-1,0.2-1.7,0.1
								c0.1-0.1-0.2-0.3,0-0.4c-2.4-0.5-5.8,0.4-9,0c-0.9,0,0.3,0.5-0.8,0.5c-0.3-0.3,0.6-0.5-0.2-0.6c-0.5,0.3-0.7,0.2-1.4,0.2
								c0.1-0.2,0-0.3,0.5-0.4c-0.4-0.2-1.7,0.4-2.5,0c0,0.2-0.1,0.2-0.3,0.3c-1.2,0.4-2.7-0.4-2.8-0.2c0,0-0.4,0.1-0.1,0.1
								c-0.4,0-1.1-0.1-0.9-0.3c-0.2,0.2-0.5,0.3-0.8,0.4l0.2-0.3c-0.2,0.1-0.4,0.2-0.6,0.3l0.3,0.2c-0.5-0.2-1.5,0.3-1.4-0.2h0.2
								l-0.9-0.2c-0.4,0.3-0.9,0.4-1.4,0.4c-0.2-0.6-1.6-0.1-2.4-0.2v-0.2c-0.6,0.3-2.2,0.2-1.9,0.3c-0.6,0-1.4-0.1-1.1-0.3
								c-0.5,0.1-1.5,0.1-1.8,0.4l-1-0.5c-0.6,0.7-2-0.3-2,0.5c-0.5-0.1-0.4-0.3-0.8-0.4c-0.7,0.3-1.6,0.4-2.3,0.2v-0.1
								c-0.8-0.1-1.7,0.3-2.8,0.4l-0.2-0.6c-0.6,0.1-0.7,0.5-1.3,0.4C8.4-23,8.5-23,8.6-23c-0.6,0.1-1.1,0-1.7-0.2
								c-0.8,0.4-1.5,0.3-2.2,0.7c-0.7-0.5,1-0.2,0.4-0.7c-1.2-0.2-2.5-0.1-3.7,0.3c-0.1-0.1,0-0.2,0.1-0.3c0,0-2.7,1.4-2.2,1.9
								c-0.3,0.4-0.7,0.6,0.4,0.9c0.4-0.2,1.4-0.5,1.6-0.1l0.1-0.4c1.5-0.2,0.1,0.8,1.9,0.8l-0.4-0.1c0.3,0,0.6-0.3,1-0.1
								C4-20.2,3.8-20.1,3.6-20l1.5-0.5c0.1,0.2,0,0.4-0.3,0.5c1.4,0-0.3-0.7,1.4-0.6c0.3,0.2-0.1,0.2-0.3,0.4
								c0.8,0.3,1.3,0,2.1-0.2c0,0.4-0.5,0.3,0.1,0.5c-0.1-0.2-0.2-0.5,0.3-0.5c-0.2,0.4,0.4,0.2,0.9,0.3c-0.1-0.1-0.1-0.2,0-0.3
								c0,0,0.1,0,0.1-0.1c0.2-0.1,0.5,0.1,0.8,0.1l-0.6-0.3c0.9-0.3,1.3,0.2,2,0.3c-0.1,0.1-0.2,0.1-0.3,0.1
								c0.7,0.3,1.5,0.3,2.3,0.1h-0.1c1.6-0.3-0.5-0.6,1.4-0.9c0.6,0.1-0.3,1.2,1.1,0.7c-0.7-0.3,0.9-0.7,1.8-0.9L17-20.6
								c0.4-0.1,0.7-0.1,1.1-0.1v-0.2c-0.1-0.6,1.1,0.1,1.7-0.3c-0.7,0.8-0.8,0.6-0.9,1.4c0.6-0.5,1.5-0.8,2.3-0.7l-0.9,0.6
								c1.4,0.1,3.1-0.8,4.2-1.3c-0.3,0.5,0.2,0.6-0.3,1l1.4-0.1l-0.4,0.5c0.6-0.5,1.2-0.2,1.1-0.8c-0.1,0.1-0.1,0.2-0.4,0.1
								c0-0.2,0.3-0.6,1-0.6c0.5,0.2-0.3,0.3-0.1,0.4c0.4-0.3,0.5,0.2,0.9,0L27.3-21c0.3-0.4,0.8,0,1.2-0.2
								c-0.6,0.2-0.4,0.4-0.2,0.6l0,0c0.3,0,0.8-0.3,1-0.1L29-20.2l0.5-0.4c0.2,0.1,0.3,0.3,0,0.4c1.5,0.3,0-1.1,2-0.6
								c0,0.2-0.3,0.3-0.8,0.2c-0.1,0.3,0,0.5,0.6,0.6c0,0,0,0,0,0.1C32.5-20.1,33.5-20.3,34.5-20.6"/>
							<path id="Caminho_1685_00000130624097929455657000000000677760210676146074_" class="st3" d="M31.3-20.2
								c-0.4,0-0.8,0-1.3,0.1C30.2-20.1,31.4-19.9,31.3-20.2"/>
							<path id="Caminho_1686_00000124879503120916132310000018344673419799058101_" class="st3" d="M114.3-20.8
								c-0.1,0-0.1,0-0.2,0.1C114.2-20.8,114.3-20.8,114.3-20.8"/>
							<path id="Caminho_1687_00000166664930307310439780000008351979084959040421_" class="st3" d="M118.8-21
								c-0.1-0.1-0.1-0.1-0.2-0.1C118.6-21,118.6-20.9,118.8-21"/>
							<path id="Caminho_1688_00000062158627186245333090000006332779860546193568_" class="st3" d="M72.6-20.6L72.6-20.6L72.6-20.6
								"/>
							<path id="Caminho_1689_00000167374746328724881010000007658118515453472133_" class="st3" d="M98-20.5
								c0.4-0.2,0.5-0.3,0.6-0.4C98.3-20.9,98.1-20.7,98-20.5"/>
							<path id="Caminho_1690_00000096026925818452603340000010733935125242799244_" class="st3" d="M89.4-20.7
								c-0.1,0-0.1,0.1-0.2,0.1C89.4-20.6,89.4-20.7,89.4-20.7"/>
							<path id="Caminho_1691_00000001660684492645171270000018389334893892623524_" class="st3" d="M71.3-20.4
								c0.4-0.1,0.9-0.2,1.3-0.3C72.2-20.5,71.5-20.7,71.3-20.4"/>
							<path id="Caminho_1692_00000139262234924999508110000004966262952161503906_" class="st3" d="M124.2-21.5l-0.4,0.3
								L124.2-21.5L124.2-21.5z"/>
							<path id="Caminho_1693_00000018225144311144529110000013797891393385456791_" class="st3" d="M120.1-21.4
								c-0.2-0.1-0.9,0.1-0.7,0.2C119.6-21.2,119.8-21.3,120.1-21.4"/>
							<path id="Caminho_1694_00000032611247102476402910000004790167782580253887_" class="st3" d="M104.1-21.6l-0.2,0.3l0.4-0.2
								L104.1-21.6z"/>
						</g>
					</g>
				</g>
			</g>
		</g>
		<g id="Grupo_1876_00000109727348885348985670000002817232390923967908_" transform="translate(119.723 192.075)" class="st9">
			<g id="Grupo_1875_00000067947947817272085050000015944539445421650107_">
				<g>
					<g>
						<defs>
							<rect id="SVGID_00000088107308236162039870000013261792544982842524_" x="-0.8" y="-23.8" width="50.4" height="3.8"/>
						</defs>
						<clipPath id="SVGID_00000171692280856676967230000018422191463165881011_">
							<use xlink:href="#SVGID_00000088107308236162039870000013261792544982842524_"  style="overflow:visible;"/>
						</clipPath>
						
							<g id="Grupo_1874_00000128452518114842732450000006995342374104421275_" style="clip-path:url(#SVGID_00000171692280856676967230000018422191463165881011_);">
							<path id="Caminho_1695_00000092426556906327044230000012924925506203781545_" class="st3" d="M49.6-22.8v-0.3l-0.3,0.3H49.6z
								"/>
							<path id="Caminho_1696_00000105394218235242249300000008029088084909307790_" class="st3" d="M47-23.1
								c-0.2,0.3-0.7,0.5-0.7,1l0.4-0.5c0.1,0.4,0.3,0.4,0.6,0.3H47c0.1-0.1,0-0.3,0.1-0.4c0.4,0.2,0.5-0.4,0.9,0.1l0,0l0.3-0.3
								c0.1,0.1,0.1,0.3,0,0.3c0.3-0.2,0.5-0.4,0.9-0.4c-0.3-0.8-0.8,0.6-1.1-0.2l0,0C47.8-22.8,47.4-23.3,47-23.1"/>
							<path id="Caminho_1697_00000104678821293556606470000007179025856964565177_" class="st3" d="M48.4-22.4L48.4-22.4L48.4-22.4
								"/>
							<path id="Caminho_1698_00000169557934525113511100000001226667602105766311_" class="st3" d="M33.3-23.5L33.3-23.5L33.3-23.5
								"/>
							<path id="Caminho_1699_00000063608397934984731300000008427078993385577399_" class="st3" d="M37.9-22L37.9-22
								C37.9-21.9,37.9-21.9,37.9-22"/>
							<path id="Caminho_1700_00000156586460095114527050000000539001850361875334_" class="st3" d="M8.3-23.3l-0.1-0.2
								C8.2-23.4,8.2-23.3,8.3-23.3"/>
							<path id="Caminho_1701_00000130624464724978337780000000592653229978179757_" class="st3" d="M2.1-23.5L2.1-23.5L2.1-23.5"/>
							<path id="Caminho_1702_00000030466084544843369610000004271890277095936187_" class="st3" d="M4.9-21.1v0.2
								C4.9-21.1,4.9-21.1,4.9-21.1"/>
							<path id="Caminho_1703_00000181089261325630177610000007872069082622967989_" class="st3" d="M2.9-20.8c0,0-0.1-0.1-0.2-0.1
								C2.8-20.8,2.8-20.8,2.9-20.8"/>
							<path id="Caminho_1704_00000148634321770359480500000013189029428110007947_" class="st3" d="M2.1-23.5L2.1-23.5L2.1-23.5"/>
							<path id="Caminho_1705_00000080907122098769344320000015768950618899550375_" class="st3" d="M7.9-20.9L8-20.5
								C8-20.6,7.9-20.7,7.9-20.9"/>
							<path id="Caminho_1706_00000005256097654562211880000003964853137657152913_" class="st3" d="M2.4-20.5
								c0-0.1-0.1-0.1-0.1-0.1L2.4-20.5"/>
							<path id="Caminho_1707_00000145020377772775693760000014345105079455665338_" class="st3" d="M46.6-23c0.1,0,0.1,0,0.2-0.1
								C46.7-23.1,46.6-23.1,46.6-23"/>
							<path id="Caminho_1708_00000119114892699307739060000015014374456564020392_" class="st3" d="M19.2-20.5c0,0,0,0.1,0,0.2
								C19.2-20.4,19.2-20.4,19.2-20.5"/>
							<path id="Caminho_1709_00000173883057703896282890000017887602988969677758_" class="st3" d="M12.6-20.6L12.6-20.6
								C12.6-20.5,12.6-20.5,12.6-20.6L12.6-20.6z"/>
							<path id="Caminho_1710_00000022562582511042729430000008395384245551127194_" class="st3" d="M14.5-20.6L14.5-20.6L14.5-20.6
								"/>
							<path id="Caminho_1711_00000136404232537711081190000013001290757232743854_" class="st3" d="M11.1-20.1L11-20L11.1-20.1z"/>
							<path id="Caminho_1712_00000025415930884111075140000014391021145082754454_" class="st3" d="M9.7-20.6c0,0.1,0,0.3-0.1,0.4
								c0.3,0.2,0.5-0.3,0.8,0l-0.2-0.2c0.1-0.2,0.5-0.3,0.7-0.2c0.1,0,0.1,0.1,0.2,0.2L11-20.3c0.2-0.3,0.6,0.3,0.7,0
								c-0.1-0.2,0-0.3-0.1-0.4l0.6-0.3v0.5l0.3-0.2c-0.1-0.2,0.4,0.2,0.4-0.3c0.2,0.2-0.1,0.4-0.1,0.6c0.2-0.2,0.2,0.1,0.3-0.2
								l0.2,0.5l0.4-0.3v0.1c0.2-0.4,0.5,0.2,0.8-0.5v0.1c0.1-0.4,0.5-0.1,0.6,0c0.2-0.1,0.1-0.5,0.1-0.7c0.7,0.1,0.4,0.1,1-0.5
								c0.3,0.6-0.4,1,0,1.4c0.1-0.3,0.4-0.5,0.7-0.6c0.4,0.2,0.8,0.4,1.1,0.8v-0.4l0.4-0.2l-0.2,0.6c0.1-0.2,0.3-0.4,0.4-0.6
								c0.4-0.3,0.2,0.8,0.6,0.3v0.1c0.1-0.3,0.4-0.2,0.7-0.3l-0.1,0.5l-0.2-0.1c0.1,0.5,0.4-0.1,0.6-0.1c0.2-0.2,0.1-0.6,0.2-0.7
								c0.1,0,0.2-0.1,0.3,0c0.2,0.2,0,0.6,0,0.8c0.2-0.5,0.2-0.4,0.6-0.6c0,0.2,0,0.3-0.1,0.4c0.1-0.1,0.2-0.2,0.2-0.4l0.1,0.3
								c0.4,0.4,0.4-0.9,0.9-0.8c-0.1,0.3,0.4-0.1,0.6,0.3c-0.2,0.1,0.1,0.7,0,1c0.4,0.2,0.2-0.6,0.5-0.7l-0.1,0.6
								c0.3-0.3,0.1-0.3,0.4-0.5c-0.1,0.2,0.1,0.2,0,0.4c0.4,0.1,0.3,0,0.7,0.1v-0.6c0.1-0.1,0.2,0.2,0.2,0.3c-0.1,0-0.1,0-0.1,0.1
								c0.1,0.5,0.2-0.3,0.4,0.2c0-0.2-0.1-0.5,0.1-0.5c0,0.4,0.2,0.3,0.2,0.5c-0.1-0.3,0.3-0.1,0.3-0.5c0.2,0.3-0.1,0.3-0.1,0.5
								c0.1-0.5,0.6-0.1,0.7-0.3v0.1c0.2-0.3,0.5-0.4,0.9-0.8L27-21c0.4,0.1,0.2-0.7,0.5-0.7c-0.1,0.5,0.5,0,0.4,0.5
								c0.2-0.2,0.4-0.5,0.5-0.8c0.2,0.3-0.3,0.7-0.1,0.8l0.3-0.3v0.3c0-0.2,0.2-0.2,0.2-0.4c0.1,0.3,0.1,0.5,0.1,0.8
								c0.2-0.1,0.4,0.2,0.5-0.1v0.2c0.2-0.6,0.5-0.1,0.6-0.7l0.1,0.3c0.3-0.1,0.2-0.7,0.3-0.8c0.1,0,0.2-0.1,0.3,0
								c-0.3,0.4,0.2,0.5,0.2,0.7c0.3,0,0.5-0.1,0.6-0.3c-0.2,0.3-0.1,0.6-0.3,0.6c0.1,0.6,0.4-0.1,0.7-0.1v0.3
								c0.4-0.2,0.5-0.7,0.7-1.1c0,0.3,0,0.5-0.1,0.8c0.3,0.2,0.8,0,1.1,0c0.1,0.2,0.1,0.4-0.1,0.5c0.3-0.3,0.8,0.1,1-0.5
								c-0.1,0.2,0.1,0.2,0.3,0.3c0-0.1,0-0.3,0-0.3c0.2-0.2,0.7-0.5,0.9-0.3l-0.1,0.2c0.6,0.1,0.8-0.9,1.5-0.5
								c0.1,0.1-0.1,0.5,0.1,0.5c0.1-0.2,0.1-0.7,0.4-0.6v0.4l0.2-0.4c-0.1-0.3-0.4-0.2-0.2-0.6c0.3,0.4,0.2-0.4,0.5,0.1
								c-0.1,0.2-0.2,0.3-0.2,0.5c0.7,0.5,0.9-0.4,1.6,0.1c0.3-0.3,0.8-0.4,1-0.7c0,0.4,0,0.7-0.2,1.1c0.3,0.1,0.4-0.8,0.6-0.3
								c0.1-0.5,0.8-0.3,0.9-1.1c0,0.2,0.3,0,0,0.4c0.4-0.2,0.5,0.7,0.7,0.7c0.1,0-0.1-0.5,0.1-0.5c0,0,0,0.1,0.1,0.1l0.1-0.2
								c0.1,0.2-0.1,0.4-0.1,0.6c0.3,0.2,0.5-0.4,0.9-0.5l-0.1,0.1h0.4l0,0l0.3-0.3v0.2c0.1-0.1,0.1-0.2,0.2-0.2v0.2
								c0.1-0.3,0.3-0.5,0.6-0.6v0.1l0.4-0.5c0.2,0.3-0.3,0.6,0.2,0.4l-0.1,0.5c0.3-0.2,0.4,0.1,0.6-0.1c-0.1-0.3-0.2-0.2-0.1-0.4
								c0.3,0.6,0.4-0.1,0.6-0.4c-0.1,0-0.2,0-0.3,0.3c-0.1,0,0-0.3-0.1-0.3L46-22.7L45.9-23l-0.3,0.3c0-0.4-0.3-0.1-0.2-0.5
								c-0.2,0.2-0.3-0.1-0.5,0.3c-0.1-0.2,0.2-0.3,0.1-0.3c-0.9,0.3-1.8,0.3-2.7,0.1l0.1-0.2c-0.1,0.2-0.2,0.3-0.3,0.5
								c-0.2-0.3-0.8-0.7-1-0.1c0,0,0-0.1,0-0.2c-0.3,0.1-0.8-0.3-1.3-0.3c-0.2,0.6-0.6-0.4-0.8,0.5l0.1-0.2
								c0.1,0.2-0.2,0.6-0.3,0.8c-0.1-0.6,0-0.4-0.2-0.9l0.2,0.2v-0.5c-0.5,1.2-1-0.5-1.4,0.3c0,0,0-0.1,0-0.2
								c-0.2-0.3-0.4,0.3-0.6,0.5c0-0.2,0.1-0.4,0.2-0.6c-0.4-0.2-1.1,0.4-1.5,0.1c-0.2,0.3,0.1,0.4-0.1,0.7
								c-0.2-0.1-0.2-0.3-0.1-0.5l0,0c-0.4-0.6-1.3,0.4-1.8-0.2c-0.3,0.3-0.1,0.5-0.6,0.7c0.1-0.2-0.1-0.8,0.2-0.8v-0.2
								c-0.5,0-1.1-0.1-1.3,0.6c0-0.5-0.1-0.1-0.3-0.4c-0.1,0.1,0,0.1,0,0.1c-0.2,0.4-0.3,0-0.4,0.1v-0.1l-0.3,0.3
								c-0.1-0.1-0.1-0.2-0.2-0.3v0.4c-0.2,0-0.1-0.4-0.3-0.4v0.3c-0.1-0.2-0.4,0.2-0.4-0.2c0-0.1,0,0,0.1-0.1
								c-0.2-0.5-0.6,0.2-0.9-0.1l0.1,0.6C28.9-22.7,29-23,29-23.2c-0.2,0-0.2-0.2-0.5-0.2c-0.1,0.1-0.1,0.2-0.1,0.4l-0.2-0.1
								l0.2-0.3c-0.4,0.8-0.9-0.1-1.2,0.7c-0.1-0.2,0.1-0.3,0-0.4c-0.4-0.4-1,0.5-1.4,0.1c-0.6-0.4-1.3,0-1.9-0.3v0.2l-0.5-0.1
								c-0.1,0.3-0.4,0.2-0.6,0.6c0-0.1,0-0.3,0-0.4c-0.2,0-0.4,0.2-0.5,0l0.1-0.1c-0.4-0.1-1.1-0.1-1.3,0.2c-0.2,0-0.1-0.2-0.2-0.4
								c-0.3,0-0.4,0.1-0.6,0.4c-0.1-0.1-0.1-0.2-0.2-0.3L20-22.8c-0.1-0.1,0-0.3-0.1-0.4c-0.4,0.4-0.9,0-1.1,0.1v0.2
								c-0.1,0.1-0.3-0.1-0.2-0.3c-0.6-0.2-0.8,0.6-1.6,0.5c-0.1-0.7-0.7,0.2-0.8-0.6c-0.3,0.2-0.5-0.1-0.7,0.3c0-0.1,0-0.1,0-0.1
								c-0.1-0.3-0.5-0.1-0.9,0.1v-0.2c-0.1,0.5-0.7,0.4-0.8,0.8c0-0.1,0.1-0.2,0.1-0.3c-0.2-0.5-0.3,0.2-0.5,0.1c0-0.1,0-0.3,0-0.4
								c-0.7-0.5-1.7,0.4-2.7,0c-0.3,0,0.1,0.5-0.2,0.5c-0.1-0.3,0.2-0.5,0-0.6c-0.2,0.3-0.2,0.2-0.4,0.2c0-0.2,0-0.3,0.1-0.4
								c-0.1-0.2-0.5,0.4-0.7,0c0,0.1,0,0.2-0.1,0.3c-0.4,0.4-0.8-0.4-0.8-0.2c0,0-0.1,0.1,0,0.1c-0.2,0-0.3-0.1-0.3-0.3
								c0,0,0,0,0-0.1c-0.1,0.1-0.1,0.3-0.2,0.4l0.1-0.3c-0.1,0.1-0.1,0.2-0.2,0.3l0.1,0.2c-0.1-0.2-0.4,0.3-0.4-0.2h0.1l-0.3-0.2
								c-0.1,0.2-0.2,0.4-0.4,0.4C7-23.5,6.6-23,6.4-23.1v-0.2C6.2-23,5.7-23.1,5.8-23c-0.2,0-0.4-0.1-0.3-0.3
								C5.4-23.2,5-23.2,5-22.9l-0.3-0.5c-0.2,0.7-0.6-0.3-0.6,0.5C3.9-23,4-23.2,3.9-23.3c-0.1,0.3-0.4,0.4-0.7,0.2l0,0v-0.1
								c-0.2-0.1-0.5,0.3-0.8,0.4l-0.1-0.6c-0.2,0.1-0.2,0.5-0.4,0.4v-0.1l0,0c-0.2,0.1-0.4,0-0.5-0.2C1.2-22.9,1-23,0.7-22.6
								c-0.2-0.5,0.3-0.2,0.1-0.7c-0.4-0.3-0.7,0-1.1,0.3c0-0.1,0-0.2,0-0.3c0,0-0.8,1.4-0.6,1.9C-1-21-1.1-20.8-0.8-20.5
								c0.1-0.2,0.4-0.5,0.5-0.1V-21c0.4-0.2,0,0.8,0.6,0.8l-0.1-0.1c0.1,0,0.2-0.3,0.3-0.1c0,0.1,0,0.2-0.1,0.3l0.4-0.5
								c0,0.2,0,0.4-0.1,0.5c0.4,0-0.1-0.7,0.4-0.6c0.1,0.2,0,0.2-0.1,0.4c0.2,0.3,0.4,0,0.6-0.2c0,0.4-0.2,0.3,0,0.5
								c0-0.2-0.1-0.5,0.1-0.5c-0.1,0.4,0.1,0.2,0.3,0.3c0-0.1,0-0.2,0-0.4c0.1-0.1,0.1,0.1,0.2,0.1L2-20.8c0.3-0.3,0.4,0.2,0.6,0.3
								c0,0.1,0,0.1-0.1,0.1c0.2,0.1,0.4,0.4,0.7,0.1l0,0c0.5-0.3-0.1-0.6,0.4-0.9c0.2,0.1-0.1,1.2,0.3,0.7
								c-0.2-0.3,0.3-0.7,0.5-0.9l-0.3,0.7c0.1,0,0.3-0.2,0.3-0.1V-21c0-0.6,0.3,0.1,0.5-0.3c-0.2,0.5-0.3,0.9-0.3,1.4
								c0.2-0.4,0.4-0.8,0.7-0.7L5-20c0.4,0.1,0.9-0.8,1.3-1.3c-0.1,0.5,0,0.6-0.1,1l0.4-0.1l-0.1,0.5c0.2-0.5,0.3-0.2,0.3-0.8
								c0,0.1,0,0.2-0.1,0.1c0-0.2,0.1-0.6,0.3-0.6c0.1,0.2-0.1,0.3,0,0.4c0.1-0.3,0.1,0.2,0.3,0l-0.1-0.3c0.1-0.4,0.2,0,0.4-0.2
								c-0.2,0.2-0.1,0.4,0,0.6l0,0c0.1,0,0.2-0.3,0.3-0.1l-0.1,0.5l0.1-0.4c0.1,0.1,0.1,0.2,0,0.4c0.5,0.3,0-1.1,0.6-0.6
								c0,0.2-0.1,0.3-0.2,0.2c0,0.3,0,0.5,0.2,0.6c0,0,0,0,0,0.1C9.1-20.2,9.5-20.2,9.7-20.6"/>
							<path id="Caminho_1713_00000053503243107574560850000016706378944301666182_" class="st3" d="M8.8-20.2c-0.2,0-0.3,0-0.4,0.1
								C8.4-20.1,8.8-19.9,8.8-20.2"/>
							<path id="Caminho_1714_00000171715595125655412760000015992491463268463014_" class="st3" d="M33.5-20.8L33.5-20.8L33.5-20.8
								"/>
							<path id="Caminho_1715_00000008841070344087861410000002481329617326078399_" class="st3" d="M34.9-21c0,0,0-0.1-0.1-0.1
								C34.8-21,34.8-20.9,34.9-21"/>
							<path id="Caminho_1716_00000034090224605593690500000010547958864748774309_" class="st3" d="M21.1-20.6L21.1-20.6L21.1-20.6
								"/>
							<path id="Caminho_1717_00000178917484817315069200000001600088868883574959_" class="st3" d="M28.7-20.5
								c0.1-0.1,0.2-0.3,0.2-0.4C28.8-20.9,28.7-20.8,28.7-20.5"/>
							<path id="Caminho_1718_00000102505746665710101990000003348301975317752964_" class="st3" d="M26.1-20.7
								C26.1-20.7,26.1-20.6,26.1-20.7C26.1-20.6,26.1-20.7,26.1-20.7"/>
							<path id="Caminho_1719_00000029749321730853014400000011877214124311056050_" class="st3" d="M20.7-20.4
								c0.1-0.2,0.3-0.2,0.4-0.3C21-20.5,20.8-20.7,20.7-20.4"/>
							<path id="Caminho_1720_00000114786245125586597890000007768417082528789905_" class="st3" d="M36.5-21.5l-0.1,0.3L36.5-21.5
								L36.5-21.5z"/>
							<path id="Caminho_1721_00000005231236770804206350000011753161256339948458_" class="st3" d="M35.2-21.4
								c-0.1-0.1-0.3,0.1-0.2,0.2C35.1-21.2,35.2-21.3,35.2-21.4"/>
							<path id="Caminho_1722_00000129894029945897852470000017577127193521177498_" class="st3" d="M30.5-21.6l-0.1,0.3L30.5-21.6
								L30.5-21.6z"/>
						</g>
					</g>
				</g>
			</g>
		</g>
		<g id="Grupo_1879_00000015319434270056722060000005536290518279494313_" transform="translate(226.773 192.075)" class="st9">
			<g id="Grupo_1878_00000173147648012996627530000018100373642563692419_">
				<g>
					<g>
						<defs>
							<rect id="SVGID_00000049182676607350510420000018035608428513123977_" x="-0.8" y="-23.8" width="56.1" height="3.8"/>
						</defs>
						<clipPath id="SVGID_00000112598198927873826470000012098528395415495353_">
							<use xlink:href="#SVGID_00000049182676607350510420000018035608428513123977_"  style="overflow:visible;"/>
						</clipPath>
						
							<g id="Grupo_1877_00000127743128723665334860000005213237998493339015_" style="clip-path:url(#SVGID_00000112598198927873826470000012098528395415495353_);">
							<path id="Caminho_1723_00000062909704739352391940000002440215242267780507_" class="st3" d="M55.3-22.8l-0.1-0.3l-0.3,0.3
								H55.3z"/>
							<path id="Caminho_1724_00000065057092812689557070000008218771554402549394_" class="st3" d="M52.4-23.1
								c-0.3,0.3-0.8,0.5-0.8,1l0.5-0.5c0.1,0.4,0.4,0.4,0.6,0.3h-0.3c0.1-0.1,0-0.3,0.1-0.4c0.5,0.2,0.6-0.4,1,0.1l0,0l0.3-0.3
								c0.1,0.1,0.1,0.3,0,0.3c0.3-0.3,0.6-0.4,1-0.4c-0.3-0.8-0.9,0.6-1.2-0.2l0,0C53.3-22.8,52.8-23.3,52.4-23.1"/>
							<path id="Caminho_1725_00000175315932969616611540000006400495132539550346_" class="st3" d="M53.9-22.4L53.9-22.4L53.9-22.4
								"/>
							<path id="Caminho_1726_00000104683444895681374460000004494629005062160545_" class="st3" d="M37.1-23.5L37.1-23.5
								C37.1-23.4,37.2-23.5,37.1-23.5"/>
							<path id="Caminho_1727_00000034802716683532594920000014769183793140115643_" class="st3" d="M42.3-22L42.3-22
								C42.2-21.9,42.2-21.9,42.3-22"/>
							<path id="Caminho_1728_00000052788865807454286130000005063895545056371609_" class="st3" d="M9.3-23.3l-0.1-0.2
								C9.2-23.4,9.2-23.3,9.3-23.3"/>
							<path id="Caminho_1729_00000160895299833332417190000008651245077606688173_" class="st3" d="M2.4-23.5L2.4-23.5L2.4-23.5"/>
							<path id="Caminho_1730_00000099630076437714413550000008384765871046460831_" class="st3" d="M5.5-21.1v0.2
								C5.6-21.1,5.6-21.1,5.5-21.1"/>
							<path id="Caminho_1731_00000103258615767019060470000008662165495278646682_" class="st3" d="M3.3-20.8
								c-0.1,0-0.1-0.1-0.2-0.1C3.2-20.8,3.2-20.8,3.3-20.8L3.3-20.8"/>
							<path id="Caminho_1732_00000021100785876841261620000012323784129136007562_" class="st3" d="M2.5-23.5
								C2.5-23.5,2.4-23.5,2.5-23.5C2.4-23.5,2.5-23.5,2.5-23.5"/>
							<path id="Caminho_1733_00000045588407670644096210000012252573082568923309_" class="st3" d="M8.9-20.9L9-20.5
								C9-20.6,8.9-20.7,8.9-20.9"/>
							<path id="Caminho_1734_00000157280656639592718070000013998256163717252530_" class="st3" d="M2.8-20.5
								c0-0.1-0.1-0.1-0.1-0.1S2.7-20.5,2.8-20.5"/>
							<path id="Caminho_1735_00000129894402896802924070000003662550964304829317_" class="st3" d="M51.9-23c0.1,0,0.2,0,0.2-0.1
								C52.1-23.1,52-23.1,51.9-23"/>
							<path id="Caminho_1736_00000142898789543804209110000007872394428444389513_" class="st3" d="M21.4-20.5c0,0,0,0.1,0,0.2
								C21.4-20.4,21.4-20.4,21.4-20.5"/>
							<path id="Caminho_1737_00000054969076201379303910000009091919148047180208_" class="st3" d="M14.1-20.6L14.1-20.6
								C14.1-20.5,14.1-20.5,14.1-20.6L14.1-20.6z"/>
							<path id="Caminho_1738_00000075138410036163604400000017591055281686625178_" class="st3" d="M16.2-20.6L16.2-20.6L16.2-20.6
								"/>
							<path id="Caminho_1739_00000034809762529434457980000002998551288887762070_" class="st3" d="M12.5-20.1L12.4-20L12.5-20.1z"
								/>
							<path id="Caminho_1740_00000104675194737400387350000009081647706222414236_" class="st3" d="M10.9-20.6
								c0.1,0.1,0,0.3-0.1,0.4c0.4,0.2,0.5-0.3,0.9,0l-0.2-0.2c0.2-0.3,0.6-0.3,0.8-0.1c0.1,0,0.1,0.1,0.1,0.1l-0.1,0.1
								c0.2-0.3,0.6,0.3,0.7,0c-0.1-0.2,0-0.3-0.2-0.4l0.6-0.3v0.5l0.3-0.2c-0.1-0.2,0.4,0.2,0.5-0.3c0.2,0.2-0.1,0.4-0.1,0.6
								c0.2-0.2,0.2,0.1,0.4-0.2l0.2,0.5l0.5-0.3v0.1c0.2-0.4,0.6,0.2,0.8-0.5v0.1c0.2-0.4,0.5-0.1,0.7,0c0.3-0.1,0.1-0.5,0.1-0.7
								c0.7,0.1,0.5,0.1,1.1-0.5c0.4,0.6-0.4,1,0,1.4c0.1-0.3,0.4-0.6,0.7-0.6c0.4,0.2,0.9,0.4,1.2,0.8v-0.4l0.5-0.2L20-20.3
								c0.1-0.2,0.3-0.4,0.5-0.6c0.5-0.3,0.3,0.8,0.7,0.3v0.1c0.1-0.3,0.4-0.2,0.8-0.3l-0.1,0.5l-0.2-0.1c0.1,0.5,0.4-0.1,0.6-0.1
								c0.2-0.2,0.1-0.6,0.3-0.7c0.1,0,0.2-0.1,0.3,0c0.2,0.2,0,0.6,0,0.8c0.2-0.5,0.2-0.4,0.7-0.6c0,0.2,0,0.3-0.1,0.4
								c0.1-0.1,0.2-0.2,0.2-0.4l0.1,0.3c0.5,0.4,0.5-0.9,1-0.8c-0.1,0.3,0.5-0.1,0.7,0.3c-0.2,0.1,0.1,0.7,0,1
								c0.4,0.2,0.2-0.6,0.5-0.7l-0.1,0.6c0.3-0.3,0.1-0.3,0.4-0.5c-0.1,0.2,0.2,0.2-0.1,0.4c0.5,0.1,0.3,0,0.7,0.1v-0.6
								c0.1-0.1,0.2,0.2,0.2,0.3c-0.1,0-0.1,0-0.1,0.1c0.2,0.5,0.3-0.3,0.4,0.2c0-0.2-0.1-0.5,0.1-0.5c-0.1,0.4,0.3,0.3,0.3,0.5
								c-0.1-0.3,0.4-0.1,0.4-0.5c0.2,0.3-0.1,0.3-0.1,0.5c0.2-0.5,0.7-0.1,0.8-0.3v0.1c0.2-0.3,0.5-0.4,1-0.8L29.8-21
								c0.4,0.1,0.3-0.7,0.6-0.7c-0.1,0.5,0.6,0,0.4,0.5c0.2-0.2,0.4-0.5,0.6-0.8c0.2,0.3-0.4,0.7-0.1,0.8l0.3-0.3l0.1,0.3
								c0-0.2,0.3-0.2,0.3-0.4c0.1,0.3,0.1,0.5,0.1,0.8c0.2-0.1,0.4,0.2,0.6-0.1v0.2c0.2-0.6,0.6-0.1,0.6-0.7l0.1,0.3
								c0.3-0.1,0.2-0.7,0.4-0.8c0.1,0,0.2-0.1,0.4,0c-0.4,0.4,0.2,0.5,0.3,0.7c0.1,0,0.6,0,0.7-0.3c-0.2,0.3-0.1,0.6-0.4,0.6
								c0.2,0.6,0.5-0.1,0.8-0.1v0.3c0.5-0.2,0.5-0.7,0.7-1.1c0.1,0.3,0,0.5-0.1,0.8c0.3,0.2,0.9,0,1.2,0c0.1,0.2,0.1,0.4-0.1,0.5
								c0.4-0.3,0.9,0.1,1.1-0.5c-0.1,0.2,0.2,0.2,0.3,0.3c0-0.1,0-0.3,0-0.3c0.2-0.2,0.8-0.5,1-0.3l-0.1,0.2
								c0.6,0.1,0.9-0.9,1.6-0.5c0.1,0.1-0.1,0.5,0.1,0.5c0.1-0.2,0.1-0.7,0.4-0.6v0.4l0.2-0.4c-0.1-0.3-0.5-0.2-0.2-0.6
								c0.3,0.4,0.3-0.4,0.6,0.1c-0.1,0-0.2,0.3-0.2,0.5c0.7,0.5,1-0.4,1.8,0.1c0.4-0.3,0.9-0.4,1.1-0.7c0,0.4,0,0.7-0.2,1.1
								c0.3,0.1,0.5-0.8,0.7-0.3c0.2-0.5,0.9-0.3,1-1.1c0,0.2,0.3,0,0,0.4c0.4-0.2,0.6,0.7,0.8,0.7c0.1,0-0.1-0.5,0.1-0.5
								c0,0,0,0.1,0.1,0.1l0.1-0.2c0.1,0.2-0.1,0.4-0.1,0.6c0.4,0.2,0.6-0.4,1-0.5l-0.1,0.1h0.4l0,0l0.3-0.3v0.2
								c0.1-0.1,0.1-0.2,0.2-0.2v0.2c0.1-0.3,0.4-0.5,0.7-0.6v0.1l0.5-0.5c0.3,0.3-0.3,0.6,0.2,0.4l-0.1,0.5
								c0.4-0.2,0.4,0.1,0.6-0.1c-0.1-0.3-0.3-0.2-0.2-0.4c0.3,0.6,0.4-0.1,0.7-0.4c-0.1,0-0.2,0-0.3,0.3c-0.1,0-0.1-0.3-0.1-0.3
								l-0.2,0.3L51-23l-0.3,0.3c0-0.4-0.3-0.1-0.2-0.5c-0.2,0.2-0.4-0.1-0.6,0.3c-0.2-0.2,0.3-0.3,0.1-0.3c-1,0.3-2,0.3-3,0.1
								l0.1-0.2c-0.1,0.2-0.2,0.3-0.3,0.5c-0.2-0.3-0.8-0.7-1.1-0.1c0,0,0-0.1,0-0.2c-0.3,0.1-0.9-0.3-1.4-0.3
								c-0.2,0.6-0.7-0.4-0.9,0.5l0.1-0.2c0.2,0.2-0.2,0.6-0.3,0.8c0-0.3-0.1-0.6-0.2-0.9l0.2,0.2v-0.5c-0.6,1.2-1.1-0.5-1.5,0.3
								c0,0,0-0.1,0-0.2c-0.3-0.3-0.4,0.3-0.6,0.5c0-0.2,0.1-0.4,0.2-0.6c-0.4-0.2-1.2,0.4-1.7,0.1c-0.2,0.3,0.1,0.4-0.1,0.7
								c-0.2-0.1-0.2-0.3-0.1-0.4c0,0,0-0.1,0.1-0.1c-0.4-0.6-1.4,0.4-2-0.2c-0.3,0.3-0.1,0.5-0.6,0.7c0.1-0.2-0.1-0.8,0.2-0.8v-0.2
								c-0.5,0-1.2-0.1-1.5,0.6c0-0.5-0.1-0.1-0.3-0.4c-0.1,0.1,0,0.1,0,0.1c-0.2,0.4-0.3,0-0.4,0.1v-0.1l-0.4,0.3
								c-0.1-0.1-0.2-0.2-0.2-0.3v0.4c-0.2,0-0.1-0.4-0.3-0.4l0.1,0.3c-0.2-0.2-0.4,0.2-0.4-0.2c0-0.1,0,0,0.1-0.1
								c-0.2-0.5-0.6,0.2-0.9-0.1l0.1,0.6c-0.3,0.2-0.2-0.1-0.2-0.3c-0.2,0-0.2-0.2-0.5-0.2c-0.1,0.1-0.1,0.2-0.1,0.4l-0.3-0.1
								l0.2-0.3c-0.4,0.8-1-0.1-1.3,0.7c-0.2-0.2,0.1-0.3,0-0.4c-0.5-0.4-1.1,0.5-1.5,0.1c-0.7-0.4-1.4,0-2.2-0.3v0.2l-0.5-0.1
								c-0.1,0.3-0.5,0.2-0.7,0.6c0-0.1,0-0.3,0-0.4c-0.2,0-0.5,0.2-0.6,0l0.1-0.1c-0.5-0.1-1.2-0.1-1.4,0.2c-0.2,0-0.2-0.2-0.2-0.4
								c-0.3,0-0.5,0.1-0.7,0.4c-0.1-0.1-0.2-0.2-0.2-0.3l-0.1,0.4c-0.1-0.1,0-0.3-0.1-0.4c-0.4,0.4-1,0-1.3,0.1v0.2
								c-0.1,0.1-0.4-0.1-0.2-0.3c-0.6-0.2-0.9,0.6-1.8,0.5c-0.1-0.7-0.8,0.2-0.9-0.6c-0.4,0.2-0.6-0.1-0.8,0.3c0-0.1,0-0.1,0-0.1
								c-0.1-0.3-0.6-0.1-1,0.1v-0.2c-0.1,0.5-0.7,0.4-0.9,0.8c0-0.1,0.1-0.2,0.1-0.3c-0.2-0.5-0.3,0.2-0.6,0.1c0-0.1-0.1-0.3,0-0.4
								c-0.8-0.5-1.9,0.4-3,0c-0.3,0,0.1,0.5-0.3,0.5c-0.1-0.3,0.2-0.5-0.1-0.6c-0.2,0.3-0.2,0.2-0.5,0.2c0-0.2,0-0.3,0.2-0.4
								c-0.1-0.2-0.6,0.4-0.8,0c0,0.1,0,0.2-0.1,0.3c-0.4,0.4-0.9-0.4-0.9-0.2c0,0-0.1,0.1,0,0.1c-0.1,0-0.3-0.1-0.3-0.3
								c-0.1,0.1-0.1,0.3-0.3,0.4l0.1-0.3c-0.1,0.1-0.1,0.2-0.2,0.3l0.1,0.2C9-23,8.7-22.5,8.7-23h0.1l-0.3-0.2
								C8.4-23,8.3-22.8,8-22.8c-0.1-0.6-0.5-0.1-0.8-0.2v-0.2C7-22.9,6.5-23,6.6-22.9c-0.2,0-0.5-0.1-0.4-0.3
								c-0.2,0.1-0.5,0.1-0.6,0.4l-0.3-0.5c-0.2,0.7-0.7-0.3-0.7,0.5c-0.2-0.1-0.1-0.3-0.3-0.4c-0.2,0.3-0.5,0.4-0.8,0.2v-0.1
								c-0.3-0.1-0.6,0.3-0.9,0.4l-0.1-0.6c-0.2,0.1-0.2,0.5-0.4,0.4c0-0.1,0-0.1,0-0.1c-0.2,0.1-0.4,0-0.6-0.2
								c-0.3,0.4-0.5,0.3-0.7,0.7c-0.2-0.5,0.3-0.2,0.1-0.7c-0.4-0.3-0.8,0-1.2,0.3c0-0.1,0-0.2,0-0.3c0,0-0.9,1.4-0.7,1.9
								c-0.1,0.4-0.2,0.6,0.1,0.9c0.1-0.2,0.5-0.5,0.5-0.1v-0.4c0.5-0.2,0,0.8,0.6,0.8l-0.1-0.1c0.1,0,0.2-0.3,0.3-0.1
								c0,0.1,0,0.2-0.1,0.3l0.5-0.5c0,0.2,0,0.4-0.1,0.5c0.5,0-0.1-0.7,0.5-0.6c0.1,0.2,0,0.2-0.1,0.4c0.3,0.3,0.4,0,0.7-0.2
								c0,0.4-0.2,0.3,0,0.5c0-0.2-0.1-0.5,0.1-0.5C1.8-20,2-20.2,2.2-20.1c0-0.1,0-0.2,0-0.4c0.1-0.1,0.1,0.1,0.3,0.1l-0.2-0.3
								C2.6-21,2.7-20.5,3-20.4c0,0.1,0,0.1-0.1,0.1c0.2,0.1,0.5,0.4,0.7,0.1l0,0c0.5-0.3-0.2-0.6,0.5-0.9C4.3-21,4-19.9,4.5-20.4
								c-0.2-0.3,0.3-0.7,0.6-0.9l-0.3,0.7c0.1,0,0.3-0.2,0.4-0.1v-0.2c0-0.6,0.4,0.1,0.5-0.3c-0.2,0.5-0.3,0.9-0.3,1.4
								c0.2-0.4,0.4-0.8,0.8-0.7l-0.3,0.6c0.5,0.1,1-0.8,1.4-1.3c-0.1,0.5,0.1,0.6-0.1,1l0.4-0.1l-0.1,0.5c0.2-0.5,0.4-0.2,0.4-0.8
								c0,0.1,0,0.2-0.1,0.1c0-0.2,0.1-0.6,0.3-0.6c0.2,0.2-0.1,0.3,0,0.4c0.1-0.3,0.2,0.2,0.3,0L8.3-21c0.1-0.4,0.3,0,0.4-0.2
								c-0.2,0.2-0.1,0.4-0.1,0.6l0,0c0.1,0,0.3-0.3,0.3-0.1l-0.1,0.5L9-20.6c0.1,0.1,0.1,0.2,0,0.4c0.5,0.3,0-1.1,0.7-0.6
								c0,0.2-0.1,0.3-0.3,0.2c0,0.3,0,0.5,0.2,0.6c0,0,0,0,0,0.1C10.2-20.2,10.7-20.2,10.9-20.6"/>
							<path id="Caminho_1741_00000110444330624364450510000007810370442495961496_" class="st3" d="M9.9-20.2c-0.1,0-0.3,0-0.4,0.1
								C9.5-20.1,9.9-19.9,9.9-20.2"/>
							<path id="Caminho_1742_00000117663186904588433640000013966662014401482932_" class="st3" d="M37.4-20.8L37.4-20.8L37.4-20.8
								"/>
							<path id="Caminho_1743_00000181768041495277946450000011207022287307371655_" class="st3" d="M38.9-21c0,0,0-0.1-0.1-0.1
								C38.8-21,38.8-20.9,38.9-21"/>
							<path id="Caminho_1744_00000026864349281286088360000007780713373728116926_" class="st3" d="M23.6-20.6L23.6-20.6L23.6-20.6
								"/>
							<path id="Caminho_1745_00000131361333349330854180000014376521573316166838_" class="st3" d="M32-20.5
								c0.1-0.1,0.2-0.3,0.2-0.4C32.1-20.9,32-20.8,32-20.5"/>
							<path id="Caminho_1746_00000067954007103348593070000005831139559423738540_" class="st3" d="M29.1-20.7
								C29.1-20.7,29.1-20.6,29.1-20.7C29.1-20.6,29.1-20.7,29.1-20.7"/>
							<path id="Caminho_1747_00000030460197155869584800000003037363924169264306_" class="st3" d="M23.1-20.4
								c0.1-0.2,0.3-0.2,0.4-0.3C23.4-20.5,23.2-20.7,23.1-20.4"/>
							<path id="Caminho_1748_00000103230460128197673310000016157717055523767984_" class="st3" d="M40.7-21.5l-0.1,0.3L40.7-21.5
								L40.7-21.5z"/>
							<path id="Caminho_1749_00000081617277266197107100000009526110735562808704_" class="st3" d="M39.3-21.4
								c-0.1-0.1-0.3,0.1-0.2,0.2C39.1-21.2,39.2-21.3,39.3-21.4"/>
							<path id="Caminho_1750_00000055694911548533643760000004242199419803160968_" class="st3" d="M34-21.6l-0.1,0.3L34-21.6
								L34-21.6z"/>
						</g>
					</g>
				</g>
			</g>
		</g>
	</g>
	<g class="st13">
		<path class="st3" d="M113.2,156.4l-0.2,0.5l-0.1-0.1l-0.2,0.2l-0.5,0.1h-0.4l-0.1,0.1l-0.6-0.1l-0.1,0.1l-0.8-0.2h-0.3l-0.3-0.1
			h-0.3v-0.1l-0.3-0.3H109l0.1-0.1l-0.2,0.1v-0.1h-0.1l-0.4-0.4v-0.4l-0.2-0.2l0.2-0.3l-0.2,0.1l0.1-0.1v-0.4l-0.3-0.2l-0.2,0.1
			l0.2-0.4l-0.2,0.2v-0.6l0.1-0.2l-0.2-0.4l-0.2,0.1l0.3-0.4l-0.1-0.1l0.1-0.1v-0.3l0.1-0.1l-0.1-0.3l-0.2,0.2h-0.1v-0.3h0.3
			l-0.2-0.5l-0.1,0.1l-0.1-0.1l0.1-0.2l-0.1-0.2l-0.1-0.2l-0.1,0.1l0.1-0.5l-0.1,0.1l-0.2-1l0.1-3.2l0.1-0.5l0.1,0.2l0.1-0.3v-0.3
			l-0.1,0.1l0.1-0.2v-0.8l0.2-0.9v-0.4l0.8-2.1l0.2-0.1v-0.2l0.4-0.3l0.1-0.3l0.2-0.1l-0.2,0.3l0.2-0.1l0.1-0.2h0.1l0.6-0.2
			l-0.1-0.1l0.1-0.2l0.2,0.1l0.2-0.2l0.1-0.1h0.3v0.1h0.1l0.1-0.1l0.8,0.1l0.2,0.1l0.1,0.2l0.1-0.2l0.4,0.4h-0.2l0.1,0.2h0.3
			l0.4,0.2l0.2-0.2l0.4,0.5l0.1-0.1l0.1,0.1l0.1,0.1l0.3,0.7l0.1-0.3l0.3,1.1l0.1,0.5l0.2,0.5v0.6l-0.1,0.3v0.6l-0.2,0.4l-0.1,0.1
			l-0.1-0.1l-0.2,0.4v-0.1h-0.3l-0.1-0.1l-0.4,0.2l-0.1-0.2h-0.4v-0.2l-0.4,0.2v-0.6l0.3-1.2V142l-0.2-0.3l-0.1-0.3l-0.4-0.6
			l-0.1,0.1l-0.1-0.3l-0.5-0.4l-0.4,0.1l-0.3,0.3v0.2l-0.3,0.2l-0.2,0.3v0.1l-0.3,0.4v0.3l0.1,0.3l-0.2,0.5v0.4l-0.1,0.1l0.1,0.1
			l-0.2,0.3l0.1,0.5l-0.1,0.1v1.1l-0.1,0.6v0.5l-0.1,0.3l0.2,1l-0.1,0.2v0.3l0.1,0.2v0.6l-0.2,0.2l0.1,0.1l-0.1,0.2l0.1,0.1v0.5
			l0.1,0.1l0.2,1.8v0.5l0.2,0.4l0.1,0.9v0.3l0.2,0.5l0.1,0.4l0.6,1l0.5-0.4l0.5-0.8l0.8-1.6l0.5-2v-0.8l0.1-1l0.1,0.1l0.1-0.1v0.1
			l0.1,0.2l0.1-0.1v0.1l0.1-0.2l0.1,0.2v-0.2l0.1-0.1h0.3l0.1-0.1l0.2,0.1l0.1-0.2l0.6,0.9v0.6l-0.1,0.1l0.1,0.4l-0.1,0.2v0.3
			l0.1,0.1h-0.2v0.7l0.1,0.1l-0.1,0.1v0.4l-0.1-0.1l-0.1,0.1v0.3l-0.2,0.1l0.1,0.4l-0.2,0.5h-0.2l-0.2,0.8l-0.2,0.3l-0.1-0.3
			l-0.1,0.7l-0.5,0.5L113.2,156.4z M107.9,151.8l0.2-0.2h-0.3L107.9,151.8z M107.9,142.4l0.1-0.4v-0.1l-0.1,0.4V142.4z M109.4,143.3
			l0.1-0.1l-0.1-0.1V143.3z"/>
		<path class="st3" d="M119.9,157.7l-0.2-0.2h-0.4l-0.1-0.1l-1.1-0.7l-0.4-0.6l-0.1-0.1l-0.2-0.2l-0.1-0.4l-0.1-0.3l0-0.1l-0.1-0.1
			v-0.2l-0.1-0.1l0.1-0.1l-0.1-0.1l-0.1-0.2l-0.1-0.1l0.1-0.1V154l-0.1-0.1l0.1-0.1l-0.2-0.2l-0.1-0.7l-0.1,0.3l0-0.2l-0.1-0.1
			l-0.1-1.2h0.1v-0.2l-0.3,0.2l0-4l-0.1-0.1l0.1-0.6l0.1,0.4l0.1-0.6h-0.1l0-0.5l0.1-0.3l0-0.3l0.5-2.6l1.2-2.4l0.9-1.2l0.7-0.4
			l0.1,0.1l-0.2,0.1h0.2l0.2-0.1l-0.1-0.1l0.5-0.1l0.3,0.1l0.1,0.2l0.1,0.1v0.4h0.5l0,0.1l0.4-0.2l-0.1,0.2l-0.2,0.1l0.1,0.1
			l0.3,0.3l0,0.2l0.4,0.3l0.2-0.2l0.1,0.2h0.2l0.3,0.4v0.1l0.2,0.2l0,0.5l0.1-0.2l0.3-0.1l-0.1,0.2l0.1-0.1l0.1,0.1v0.2h0.1l0.1,0.5
			l0.1,0.1v0.2l-0.1-0.1l0.1,0.4l0.1-0.1v0.2l0.1,0.1v0.3l0.1,0.1l0,0.6l0.1,0.1l-0.1,0.2l0.1,0l0,0.4l0.1,0.2l0.1,1l-0.1,1.1
			l0.1,0.3l-0.2,0.5l0.1,0.3v0.4l-0.1,0.2v0.3l-0.1,0.1l0,0.2l-0.2,0.2l0.3,0.1l-0.1,0.2v0.1l0.1-0.1l-0.1,0.3h0.1l-0.2,0.4l0,0.6
			l-0.1,0.1l-0.1,0.8l-0.1,0.3v0.4l-0.2,0.4l-0.1,0.7l-0.1,0.1v-0.2l-0.1,0.2v0.2l-0.5,0.8v0.4l-0.2,0.1l0.1-0.1l-0.1,0.1l-0.1,0.5
			h-0.2l-0.1,0.1h-0.1l-0.2,0.4h-0.1l-0.2,0.3h-0.3l-0.1,0.1h-0.4l-0.1,0.3l-0.1-0.1l-0.2,0.1h-0.4l-0.1-0.1L119.9,157.7z
			 M120.1,156.6l0.2-0.2l0.4-0.3l0.6-0.5l0.8-1.7l0.2-0.7l0.2-0.4v-0.1l0.2-0.3v-0.2l0.1-0.1l-0.1-0.4h0.1l0-0.7l0.2-1.7l0-0.5
			l0.1-0.4l0.1-0.1l0.1-0.7l-0.1-0.2l0-0.4l0.2-0.1l0.1-0.3h0.1v-0.1l-0.2,0.1l-0.1,0.1l-0.1-0.1v-0.3l0.1-0.7l-0.1-0.1l0.1-0.1
			l-0.1,0.1l0-0.1l0-0.8l-0.1-0.3l0.1-0.2l-0.1,0.1l-0.1-0.2l0.1-0.2l-0.2-0.4l-0.1-0.5l-0.6-1.3l-0.4-0.5h-0.2l0.1-0.2l-0.4-0.3
			h-0.3v0.2h-0.2l-0.2,0.2l0.1,0.4l-0.4,0.4l0.1,0.1v0.1l-0.4,0.6v0.2l-0.5,0.6l0,0.3l0.1-0.1l-0.5,1l0.1-0.1l0,0.6l-0.1,0l-0.1,0.8
			l-0.1,0.1l0,0.7l-0.1,0.6l-0.1,0.2l0.1,0.2l-0.1,0.1l0.1,2.3l-0.1,0.6l0.1,0.8l0,0.7l0.2,1.9l0.5,1.5v0.1l0.5,0.8L120.1,156.6z
			 M123,153L123,153v-0.2V153z M123.2,144.3l0.1-0.1h-0.1V144.3z M123.3,147v-0.2l-0.1,0.4L123.3,147z M123.5,148.7l0.1,0.1
			l-0.1-0.4L123.5,148.7z M124,146.7l0-0.2l-0.1,0.1L124,146.7z"/>
		<path class="st3" d="M137.4,157.9l-0.2-0.2l-0.2,0.1v-0.5l-0.1-0.1v0.1l-0.1,0.2h-0.2l-0.1-0.1l-0.1,0.1l-0.2-0.2v-0.5l-0.1-0.1
			v-0.4l-0.1-0.1l-0.1-1.3h0.1v-0.4l-0.1-0.8l-0.1-0.1v-0.2l-0.1-0.1l0.2-0.1l0.1-0.2v-0.3l-0.1-0.1v-0.7l-0.1-0.4l0.2-0.3l0.1,0.1
			l0.1-0.1v-0.3H136l-0.2-0.7l0.1-0.3l0.1,0.2l0.1-0.2l-0.1-0.2l-0.2-0.1l-0.1-0.3l0.1-0.7l-0.1,0.1v-0.3l-0.1-0.1v-0.2l-0.2-0.5
			v-0.6h0.2v-0.8l-0.1-0.4l0.1-0.7l0.1-0.1v-0.2l0.1-0.1l-0.1-0.1l-0.2,0.1l-0.2-1.3l0.1-0.1l0.2,0.1v-0.1l-0.1-0.1l0.1-0.1v-0.5
			l-0.1,0.2l-0.1-0.4v-0.6l-0.2,0.3v0.4l-0.1-0.1l-0.1,0.3h-0.1v0.5H135v0.5l-0.2,0.2h-0.1v0.5l0.1,0.2l-0.1,0.1l-0.4,1.3l-0.1,0.5
			l-0.1,0.1v0.2l-0.1,0.3v0.4l-0.1,0.3v0.3l-0.1,0.3v0.3l-0.3,0.6v0.6l-0.1,0.1l-0.2,1.4h-0.1l-0.1,0.1h-0.4l-0.2-0.1h-0.3l-0.1-0.2
			l-0.2,0.1l-0.5-0.1l-0.1-0.1h-0.2l-0.2-0.2l-0.2-0.3l-0.1-0.5l-0.3-0.5l-1.1-3.8l-0.1-0.5v-0.4l-0.2-0.1v-0.3l-0.1,0.1v1.4
			l-0.2-0.2v0.4l-0.1-0.1v0.3l0.1,0.1h0.1l-0.1,0.3l-0.1-0.1v0.1l0.3,0.5v0.2h-0.2l-0.1,0.1l0.1,0.1v0.2l0.1-0.1l-0.1,0.1l-0.1,0.1
			l0.2,0.5l-0.2,0.4v0.3l0.1-0.5v0.6l0.1,0.1l0.1,1.1l0.1,0.1h-0.1l0.1,0.5l-0.1,0.3l0.1,0.6l-0.2,0.5l-0.1,0.2l0.1,0.4l-0.1,0.1
			v1.3h0.1l-0.1,0.1v0.4l-0.1-0.1v0.2l0.1,0.1l0.1,0.8l-0.1,0.2l0.2-0.1l-0.1,0.5l0.1,0.5l-0.1,0.1l-0.1-0.1l-0.1,0.3h-0.4v-0.2
			l-0.3,0.1l-0.1-0.1l-0.3-0.1l-0.3-1.4l-0.2-1.7l-0.2-6l-0.2-2.4V145l-0.1-0.2l0.1-0.9v-0.7l-0.1-0.1v-0.3l0.1-0.1V142l0.1-0.3
			v-0.5l0.1-0.3l0.1,0.1l0.2-0.4l0.3,0.1l-0.1,0.2v0.2l0.1-0.2l0.1,0.1v-0.6l-0.1-0.1l-0.1-0.3l-0.1,0.1v0.2l-0.4,0.1l-0.1-0.2h0.3
			l-0.1-0.5l0.5-0.3l0.1-0.2h0.1l0.2-0.1l0.1,0.1l0.1-0.1h0.3l0.1,0.1h0.4l0.2,0.3l1.4,4.5v0.3l0.2,0.2l0.1,0.7l0.3,0.8l0.2,0.3v0.3
			l0.2,0.4l0.1,0.4l1.3-5l0.3-0.8v-0.1l0.1-0.1l0.1-0.6l0.1,0.1l0.1-0.1v-0.2l0.2-0.2l0.2-0.6v-0.3h0.2l0.1-0.5l0.1,0.1l0.1-0.3
			l0.1,0.1l0.1,0.5l0.1-0.2v0.4l0.1-0.2v-0.4l0.2-0.2l0.1,0.2l0.1-0.4l0.1,0.2v-0.4h-0.4v-0.2l0.2-0.2l0.2,0.1l0.1,0.2l0.2-0.2h0.1
			v0.1h0.2l0.1,0.1h0.3l0.1,0.1h0.1l0.3,0.3l0.2,2.2v0.4l0.1,0.7l0.1,0.6l-0.1,0.4l0.2,0.6l-0.1,0.2v0.1l0.1-0.1l0.1,1.2l0.1,0.3
			v0.6l0.1,0.1v0.8l0.1,0.6v1.8l0.1,1.9v1.3h0.1l-0.1,1.3l0.4,3.9l-0.1,0.3l-0.4-0.3H137.4z M126.9,142.6l0.1-0.1v-0.4l-0.1,0.2
			L126.9,142.6z M127,143.7l0.1-0.4l0.1,0.1l-0.1-0.4l-0.1,0.1l-0.2-0.1l0.1,0.5L127,143.7z M127.4,143.8l0.1-0.2l-0.1-0.1l-0.2,0.4
			L127.4,143.8z M127.5,139.3L127.5,139.3l-0.1,0.2v-0.2H127.5z M128.3,153.4h0.1l0.1-0.2l-0.2-0.1V153.4z M129.3,157.7l0.2-0.1
			l-0.2,0.4l-0.1-0.2L129.3,157.7z M134.2,140.7L134.2,140.7l0.1-0.3l-0.2,0.1L134.2,140.7z M134.6,140.1h0.1l-0.1-0.3V140.1z
			 M134.7,143.8l0.1-0.2L134.7,143.8L134.7,143.8z M135.7,143.8L135.7,143.8l0.1-0.2l-0.1,0.1V143.8z M135.8,144.6v-0.1l-0.1-0.2
			v0.2L135.8,144.6z M136.1,146.8L136.1,146.8l-0.1-0.3v-0.1l-0.1,0.2L136.1,146.8z M136.5,155.1l-0.1-0.2L136.5,155.1L136.5,155.1z
			"/>
		<path class="st3" d="M140.7,157.9l-0.1,0.1h-0.3l-0.1-0.1h-0.1l-0.3,0.1l-0.1-0.1h-0.1l-0.1-0.1l0.1-4.1l-0.1-2.7l-0.1-0.8
			l-0.2-4.5l0.1-0.6l-0.1-2.9l0.1,0.1l0-0.5l0.1-0.2l-0.1-0.7h0.2l0.1-0.2l0.2-0.2v-0.1l0.2-0.3l0.2-0.1h0.2l0.4-0.2l0.2,0l-0.1-0.1
			l0.4-0.1l0.5-0.1h1.1l0.5,0.1l0.7,0.3l1.4,0.8l0.4,0.3l0.2,0.1l0.1,0.2l0.5,0.4v0.2h0.1l0.2,0.3l0.1,0.5l0.1,0.3l-0.1,0.1l0.2,0.3
			l-0.1,0.5l0.1,0.1l0,0.5l-0.4,0.5l-0.2,0.4l-0.4,0.4v0.2l0.1,0.1l-0.1,0.1l-0.1,0.3l-0.2,0.2v0.3l-0.5,0.4l0.1,0.1l-0.2,0.1
			l-0.1,0.4l-0.2,0.1l0,0.1l-0.4,0.3l-0.2,0.4l-0.3,0.1l0.1-0.2l-0.3,0.2l-0.1,0.4l-0.5,0.2h-0.1l-0.1,0.3l0-0.4l0.1-0.2l-0.1-0.1
			v0.1l-0.2,0.2l-0.1-0.1l-0.5,0.3v0.2l-0.1,0.2h0.1l0,0.1l-0.7,0.4l0.2-0.3h0.2v-0.2l-0.1,0.1h-0.2v0.2l-0.1,0.1l-0.1-0.1V150
			l-0.1-0.1l-0.2,0.2l0.2,1.1l-0.1,0.3l0,0.5l0.1,0.3l0,0.7l-0.1,0.4h0.1l0,0.4l-0.1,0.3l0,0.2l0.1,0.1v0.2l-0.2,0.1l-0.1,0.5
			l-0.1-0.1l-0.1,0.1l0.1,0.2l0.2-0.1l-0.1,0.3v0.1l0.1-0.1l0,0.5l-0.1,0.3l-0.2,0.2l0,0.3l0.1,0.1v0.2l-0.1,0.2l-0.1-0.2l-0.2-0.3
			l0,0.9l-0.1-0.1l0.1-0.1h-0.1l-0.2,0.6l-0.1,0.1v-0.3L140.7,157.9z M141.4,148.6l1.2-1.2l1.4-1.9l0.7-1.4l0.4-1.1l-0.2-1.3
			l-0.2-0.6l-0.5-0.4l-0.5,0.1l-0.2-0.1l-0.8,0.1l-0.1,0.2l-0.9,0.3l-0.2,0.2l-0.4,0.1l0.2,2.1l-0.1,0.3l0.1,0.9l-0.1,0.2l0.1-0.1
			l0,0.7l-0.1,0.4l0.1,0.4l-0.1,0.3h0.1v0.3l-0.1,0.2l0.1-0.1l0.1,0.4l-0.2,0.2l0.2,0.2l-0.2,0.2l0.1,0.1L141.4,148.6z"/>
		<path class="st3" d="M150.1,150.4h0.2l0,1.8l-0.2-0.1l0.1,0.2l0.1,0.1v0.2l-0.1,0.2l0.1,0.4l-0.2,0.2l-0.1-0.1l0,0.8l0.1-0.1
			l0.1-0.2l-0.1,0.4l-0.2,0.8l-0.1-0.1l-0.1,0.7v0.1l0.1,0.1v0.4h0.1l0.1-0.1l1.8-0.5h0.3l0.4-0.2l0.1,0.1l0.4-0.2l0.1,0.1l0.1-0.1
			l0.1,0.2l0.1-0.1v-0.1l0.5-0.1v0.2h0.6l0.3-0.1l0.1,0.1l0.2-0.2l0.2,0.2h0.1l-0.1,0.1l0.1,0.1h0.1l0.2,0.3l-0.2,0.2l-0.1,0.2
			l-0.5,0.1H154l-0.1,0.1l-0.4,0.1l-0.2,0.1v0.2L153,157l-0.4,0.1l-0.4,0.2l-0.5,0.1l-0.4,0.2l-0.2,0.2h-0.2l-0.2,0.2l-0.6,0.2h-0.4
			l-0.2,0.1l-0.3-0.2L149,158l-0.8-0.2v-0.6l0.1-0.1l-0.1-0.1l0-1.2l0.2-2.5v-11.7l-0.1-0.2v-0.9h-0.1l-0.1-0.2l-0.2-0.2l-0.1-0.3
			l0.1-0.4h0.4l0.1,0.1l0.1-0.2l4-0.4v0.1h0.3l0.1-0.1h0.5l0.2,0.1h0.2l0.1-0.1l0.1,0.1l0.6,0.1l0.2,0.1l0.2,0.2l0.1-0.1l0.1,0.2
			l0.3,0.3l-0.3,0.1l-0.1,0.1l0.2,0.1l-0.2,0.2l-0.5,0.1l-0.1,0.2l-0.1,0.1l-0.2-0.1h-0.3l-0.2,0.1l-0.4-0.2l-0.4,0.1l-0.6,0.2
			l-0.2-0.1l-1.7,0.4l-0.3,0.2l0.1,0.6l0.1,0.2v0.6l-0.1,0.1l0.1,0.1v1.6l-0.1,0.2l0.1,0.1l-0.1,0.1l0.1,0.2l-0.2,0.5h0.2v0.3
			l-0.1,0.1l0,0.7l-0.1-0.1l-0.1,0.1v0.5l0.5-0.1h1l0.1,0.1l0.1-0.1h0.2l0.2,0.1l0.3-0.1h0.2l0.1,0.1l0.1-0.1l0.2,0.1h0.2l0.2,0.1
			l0.1,0.3l-0.2,0.4v0.1l-0.1,0.1l0.1,0.2h-0.1l-0.1,0.2h-0.2l-0.5,0.1l0,0.1H152l-0.5,0.2l-0.1,0.1h-0.1l-0.1,0.1h-0.4l-0.5,0.3
			v0.2l-0.1,0.1l-0.1-0.1v0.3l0.1,0.2l0.1-0.4v0.2l-0.1,0.1l0.1,0.2v0.2h-0.1l-0.2,0.2l0,0.5l0.1-0.3l0.1,0.1L150.1,150.4
			L150.1,150.4z M148.9,155.7L148.9,155.7v-0.2V155.7z M155.8,156.2l0.2-0.1v0.2l-0.3,0.3v-0.3H155.8z"/>
		<path class="st3" d="M159.6,157.3l0.1-0.1l-0.2,0.1l-0.1-0.3l-0.1,0.3l-0.1-0.1l-0.2,0.5l-0.4-0.2v-5.5l-0.1-0.9v-1.2l0.1-0.3
			l-0.1-0.4l-0.1-3.2l-0.1-0.2v-4.5l0.1-0.7l-0.1-0.7h-0.6l-0.1-0.1l-0.4-0.1l-0.1-0.1l-0.2-0.1l-0.5-0.3l-0.3-0.3l-0.1-0.1l0.3-0.7
			h0.2l0.1,0.1h2.9l0.1,0.1l0.4-0.1l0.1,0.1h0.2l0.5,0.2l0.1,0.2l0.2,0.1h0.1v0.3l0.1-0.1l0.1,0.2l-0.1,0.1h-0.1l-0.3,0.1l-0.1,0.2
			h-0.1l-0.2-0.1l-0.1,0.1l0.1,0.8l-0.1,0.5l0.1,0.6v4.3l-0.1,0.3l0.1,0.3l0.1,0.9l-0.1-0.1v0.5l0.1,0.2l0.1,1v2.1l-0.1,0.2l0.1,0.2
			l-0.1,0.4l0.1,0.3v0.3l0.1,0.2v0.4l-0.1,0.2l0.1,0.1v1.8l-0.1,0.1v0.2l-0.1,0.1h-0.1l-0.1,0.4l0.1,0.1l-0.2,0.8L160,157l-0.1,0.4
			l-0.1-0.1l-0.1,0.9l-0.1-0.7L159.6,157.3z M160.5,156.6h-0.1l0.1-0.1L160.5,156.6z"/>
		<path class="st3" d="M168.1,138.3l-0.2-0.1l-1.8-1.9l-0.6,0.6h-0.2l-0.1-0.1l-0.2,0.1l-0.4,0.4l0.1,0.1l-0.3,0.4l-0.2,0.1v0.1
			l0.2-0.1l-0.4,0.3l-0.1,0.2l-0.2,0.1h-0.3l-0.1-0.1l-0.9-0.4l-0.1-0.4l0.2-0.3l1.3-1.2l1.8-1.3l0.2-0.3h0.2l0.4,0.3l0.4,0.2
			l0.4,0.4h0.1v0.1l0.2-0.1l-0.1,0.2l0.7,0.9l0.4,0.9l0.1,0.7l-0.2,0.4l-0.2,0L168.1,138.3z M164.6,150.4h0.2l0,1.8l-0.2-0.1
			l0.1,0.2l0.1,0.1v0.2l-0.1,0.2l0.1,0.4l-0.2,0.2l-0.1-0.1l0,0.8l0.1-0.1l0.1-0.2l-0.1,0.4l-0.2,0.8l-0.1-0.1l-0.1,0.7v0.1l0.1,0.1
			v0.4h0.1l0.1-0.1l1.8-0.5h0.3l0.4-0.2l0.1,0.1l0.4-0.2l0.1,0.1l0.1-0.1l0.1,0.2l0.1-0.1v-0.1l0.5-0.1v0.2h0.6l0.3-0.1l0.1,0.1
			l0.2-0.2l0.2,0.2h0.1l-0.1,0.1l0.1,0.1h0.1l0.2,0.3l-0.2,0.2l-0.1,0.2l-0.5,0.1h-0.7l-0.1,0.1l-0.4,0.1l-0.2,0.1v0.2l-0.2-0.1
			l-0.4,0.1l-0.4,0.2l-0.5,0.1l-0.4,0.2l-0.2,0.2h-0.2l-0.2,0.2l-0.6,0.2h-0.4l-0.2,0.1l-0.3-0.2l-0.3-0.1l-0.8-0.2v-0.6l0.1-0.1
			l-0.1-0.1l0-1.2l0.2-2.5v-11.7l-0.1-0.2v-0.9h-0.1l-0.1-0.2l-0.2-0.2l-0.1-0.3l0.1-0.4h0.4l0.1,0.1l0.1-0.2l4-0.4v0.1h0.3l0.1-0.1
			h0.5l0.2,0.1h0.2l0.1-0.1l0.1,0.1l0.6,0.1l0.2,0.1l0.2,0.2l0.1-0.1l0.1,0.2l0.3,0.3l-0.3,0.1l-0.1,0.1l0.2,0.1l-0.2,0.2l-0.5,0.1
			l-0.1,0.2l-0.1,0.1l-0.2-0.1h-0.3l-0.2,0.1l-0.4-0.2l-0.4,0.1l-0.6,0.2l-0.2-0.1l-1.7,0.4l-0.3,0.2l0.1,0.6l0.1,0.2v0.6l-0.1,0.1
			l0.1,0.1v1.6l-0.1,0.2l0.1,0.1l-0.1,0.1l0.1,0.2l-0.2,0.5h0.2v0.3l-0.1,0.1l0,0.7l-0.1-0.1l-0.1,0.1v0.5l0.5-0.1h1l0.1,0.1
			l0.1-0.1h0.2l0.2,0.1l0.3-0.1h0.2l0.1,0.1l0.1-0.1l0.2,0.1h0.2l0.2,0.1l0.1,0.3l-0.2,0.4v0.1l-0.1,0.1l0.1,0.2h-0.1l-0.1,0.2h-0.2
			l-0.5,0.1l0,0.1h-0.2l-0.5,0.2l-0.1,0.1h-0.1l-0.1,0.1h-0.4l-0.5,0.3v0.2l-0.1,0.1l-0.1-0.1v0.3l0.1,0.2l0.1-0.4v0.2l-0.1,0.1
			l0.1,0.2v0.2h-0.1l-0.2,0.2l0,0.5l0.1-0.3l0.1,0.1L164.6,150.4L164.6,150.4z M163.4,155.7L163.4,155.7v-0.2V155.7z M170.3,156.2
			l0.2-0.1v0.2l-0.3,0.3v-0.3H170.3z"/>
		<path class="st3" d="M178.5,157.6h-0.3l-0.2-0.5l-0.2,0.2l-0.2-0.1h-0.1l-0.2-0.4l-0.1,0.1l0.1-0.1H177v-0.2l-0.1-0.1l-0.4-1.1
			l-0.8-2.4v-0.2l-0.2-0.5v-0.2l-0.2-0.5v-0.2l-0.2-0.4v-0.3l-0.1-0.1v-0.2l-0.2-0.4v-0.1l-0.1-0.1v-0.5l-0.2-0.3v-0.1l-0.7-1.6
			l-0.1-0.2l-0.4-0.9l-0.1,0.1l-0.1,0.2v0.8l0.1,0.1v0.6l-0.1,0.3l0.1,0.5v0.5l-0.1,0v0.1l0.1,0.2l-0.1,0.4l-0.1,0.1v0.5l0.1-0.5
			v0.6l0.1,0.5l-0.1,0.6l0.1,0.3l-0.1,0.1v0.1l0.1,0.1v0.6l0.1,0.2v0.3l-0.1,0.1l0.1,1.1l0.1,0.1l-0.1,0.1l0.1,0.1v0.9l-0.1,0.1h0.1
			v0.2l0.1,0.1l0.1,1.3l0,0.2l-0.3,0.2v-0.1l-0.4-0.1v-0.1l-0.1,0.1l-0.2-0.2h-0.3l-0.1,0.1v-0.1h-0.2L172,157h-0.1l-0.1-0.1
			l-0.1,0.1v-0.3l-0.1-0.2l-0.1-2.4l-0.1-0.8v-1l0.1-0.1l-0.2-0.2v-2.2l0.1-0.1v-0.5l-0.1-0.3v-2.4l0.1-0.1l-0.4-5.5l0.2-0.2v-0.1
			l0.1-0.3H171l-0.1,0.2l-0.2-1.1l0.2-0.2h0.5l0.1,0.1l0.1-0.1l0.1,0.1h0.1l0.3-0.1l0.2,0.2h0.5l0.4,0.8l0.3,0.4v0.4l0.2,0.2
			l0.1,0.2v0.1l0.3,0.6l0.1,0.1v0.2l0.3,0.5l0.1,0.5l-0.1,0.1l0.1,0.1v0.2l0.1,0.1l0.1,0.4l0.1,0.4l0.1-0.1v0.4l0.1,0.1l0.1,0.2
			l0.3,0.6l0.2,0.5v0.3l0.2,0.2v0.3l0.2,0.2v0.2l0.1,0.1v0.2l0.1,0.1l0.1-0.1l-0.1,0.2l0.2-0.1v0.1l1,2.6l0,0.2l0.1,0.1v0.2l0.1,0.1
			l0.2,0.6v0.1l0.2,0.1l-0.3-12.9l0.4-0.2l0.4,0.3l0.1,0.1l0.1-0.1l0.5,0.3l0.1,0.2l0.2-0.1l0.1,0.2l0.1-0.1l0.1,0.1l0,2.8l-0.1,0.1
			l0.2,0.2l-0.1,0.3l-0.1,0.1l0.1,0.1l-0.1,0.1l0.1,0.1l-0.1,0.8l0.1,0.1l0.1,1h-0.1v0.4l0.1-0.1l0.1,0.1l-0.1,0.2l0.1,0.3v0.4
			l-0.1,0.1v0.1l0.1,0.1l-0.1,0.5l-0.2,0.2v0.1l0.2-0.2l0.1,0.1v0.1h-0.1v0.3l0-0.1v0.2l0.1,0.1v0.8l-0.1,0.1l0.1,0.1l0.1,1.7
			l-0.1,0.1l0.1,0.1l-0.1,2.5l0.1,0.1l-0.1,0.2v0.8l-0.1,0.3l-0.1,1.2l0.1,0.5l-0.2,0.2l-0.3,0.2l-0.5-0.1L178.5,157.6z
			 M179.4,150.6l0.1-0.2h-0.1V150.6z"/>
		<path class="st3" d="M185.1,157.7L185.1,157.7l-0.3-0.2l-0.1-0.1h-0.6l-0.9-0.6v-0.4H183v-0.1l-0.3-0.3h-0.1l-0.3-0.7v-0.1
			l-0.2-0.2l-0.4-1v-0.3l-0.2-1.2v-2.3l-0.1-0.1v-4l1-4.2l0.5-1.1l1-1l1.1-0.2l0.7,0.1l0.7,0.2h0.2l0.4,0.4l0.3,0.1l0.8,0.6l0.7,0.8
			h0.2l0.1,0.2v0.1l0.1,0.2l0.1,0v0.3l0.2,0.3l-0.1,0.1l-0.1-0.2l-0.1,0.3l0.1,0.1h0.1l0.1,0.1v0.1h-0.1l-0.2,0.3l0.2,0.1l0.1,0.3
			l0.1-0.3l0.4,0.5v0.6l-0.2,0.1v0.2l-0.1,0.1v0.4l0.1,0.1v0.3l-0.1,0.1l0.1,0.1l0.1-0.1v0.3l0.1,0.1v0.6l-0.1,0.4v0.4l-0.1-0.1
			l-0.1,0.2l-0.4-0.2l-0.1-0.2l-0.1-0.1l0-0.2l-0.2,0.3l-0.2-0.3l-0.1,0.1l-0.1-0.1v-0.5l-0.4-0.1h-0.4l-0.1-0.4l0.2-1.7v-1.2
			l-0.1-0.4v-0.3l-0.1-0.2v-0.2l-0.4-1.2h-0.2l-0.2-0.3l-0.3-0.3l-0.3-0.1h-0.5l-0.3-0.1l-0.4,0.4v0.1l-0.2,0.3l-0.1,0l-0.1,0v0.1
			l-0.3,0.3v0.1h0.1v0.2l-0.2,0.4l-0.1,0.3v0.1l-0.1,0.1v0.6l-0.3,0.8v0.2l-0.1-0.1l-0.1,0.1v0.4l-0.1,0l-0.1,0.3v0.1l-0.1,0.4v0.6
			l-0.1,0.5v0.2l-0.1,1l-0.1,0.3l0.1,0.4l-0.1,0.7l0.1,0.6l-0.1,0.3l0.2,0.7l-0.1,0.3h-0.2v0.8l0.1,0.1l0.2-0.3l0.1,0.1v0.4l0.1,0.2
			l-0.1,0.1l-0.1-0.1l-0.1,0.1l0.2,0.1l0.1-0.1l-0.1,0.3l0.1,0.1l0.1,0.3l-0.1,0.1l0.1,0.1l-0.1,0.1v0.2l0.1-0.2v0.2l0.2,0.1
			l0.5,1.7l0.5,0.7l0.5-0.3l0.8-0.8l0.8-1.6l0.3-0.7l0.1-0.1V153l0.2-0.2v-0.4l0.1-0.4l0.1,0.1l0.1-0.5l-0.1-0.1l-0.1,0.2v-0.3
			l0.1-0.1l-0.2-0.8l0.2-0.4l0.4,0.2l0.2,0.1l0.2,0.1l0.3,0.2h0.1l0.6,0.5l0.1-0.1l0.1,0.4l0.2,0.3v1.1l-0.2,0.1v0.4l-0.2,0.4
			l-0.1-0.2l-0.1,0.3h0.1v0.3l-0.8,1.6l-0.1,0.1l-0.1,0.1l-0.4,0.3l-0.1,0.4L188,157h-0.1l-0.5,0.5l-0.6,0.5l-0.5,0.1l-0.5-0.1
			L185.1,157.7z M183.4,152.6v-0.2V152.6L183.4,152.6z M183.5,153.3v-0.1V153.3L183.5,153.3z M184.4,142h0.1l-0.1-0.1L184.4,142z
			 M184.8,141.6h-0.1l0.4-0.4L184.8,141.6z M188.4,156.5l-0.2,0.1v-0.1H188.4z"/>
		<path class="st3" d="M191.6,140l0.1-0.3v-0.6l-0.1-0.1l0.1-0.2l0.2-0.2l0.9,0.4l0.2,0.1h0.1l0.4,0.2l0.1,0.2h0.1l0.1,0.6v2.4
			l0.1,0.1l-0.1,1.1l0.1,0.4v0.9l0.1,0.2l-0.1,0.3v0.2l0.1-0.2l0.1,0.7l-0.1,0.3l0.1,0.1l-0.1,0.4l0.1,0.5v0.6l0.1,0.1l-0.1,0.1
			l0.1,3.1l-0.1,0v0.4l0.2,0.1l-0.1,0.1l0.1,0.1h-0.2l-0.1,0.4l0.1,0.1l-0.1,0.1v0.5l-0.1-0.2l-0.1,0.2l0.2,0.2v0.1l0.1,0.1h0.1
			l-0.1,0.2h-0.2l-0.1,0.6l-0.1,0.1v0.2l-0.1-0.1l-0.2,0.1v0.5l0.1,0.1l0.1-0.1l0.1,0.2l0.1,0.3l0.1-0.1v0.4l-0.2,0.3l-0.1-0.1
			l-0.1,0.1l-0.1,0.5l-0.1,0.4l-0.1-0.7l-0.1,0.5l-0.1-0.1l-0.1-0.1v-0.2l-0.2,0.2v0.1l-0.2,0.3l-0.1,0.1L192,157l-0.1,0.1l-0.1-0.1
			L191.6,140z M192.7,157l0.1-0.1l0.1,0.2l0.1,0.1l-0.1,0.2l-0.1-0.1l-0.1,0.1l-0.1-0.1L192.7,157z M193.2,156v-0.5l-0.1,0.4
			L193.2,156z M193.7,154.9L193.7,154.9L193.7,154.9L193.7,154.9z M194,154l-0.1,0.1l-0.2-0.1L194,154z"/>
		<path class="st3" d="M196.1,157.6l-0.2-0.1l-0.1,0.1l-0.2,0.1l-0.2-0.2h-0.2l-0.2-0.1l2.2-14.2l0.1-0.1l0.1-0.4l0.2,0.2v-0.4
			l0.3-1.2l0.2-0.2l-0.1-0.1l0.1-0.6l0.1-0.1v0.2l0.1-0.1l0.1,0l0.1-0.1v0.9h-0.1v0.3l0.1-0.1l0.1-0.5h0.2v-0.2l-0.2-0.3l0.2-0.7
			l-0.1-0.3l-0.2-0.2V139l0.2,0.1l0.1-0.1l0.4,0.1l0.1-0.1l0.2,0.1l0.3,0.2h0.1l0.1,0.1l0.4,0.1l0.1,0.2v0.2l0.3,0.5l0.2,0.8v0.3
			l0.2,0.4v0.3l0.2,0.7v0.4l0.1,0.4v0.8l0.2,0.2v0.4l-0.1,0.2v0.3l0.1-0.1v0.4l0.1,0.1v0.6l0.1,0.7l-0.1,0.8l0.1,0.1v0.6l0.1,0.4
			l-0.1,0.2l0.1,0.1v0.2l0.1,0.4v0.5l-0.1,0.2h0.1l-0.1,0.3l0.1,0.1l-0.1,0.2l0.2-0.1l-0.1,0.1l0.1,0.1l-0.1,0.1l0.1,0.1l0.1,0.6
			l0.1,0.1v0.2l0.1,0.4v0.5l0.1-0.1l0.1,0.4v1.1l0.1,0.1l0,0.7l0.1,1l-0.1,0.1l-0.2-0.1l0.1,0.3l0.1,0.1v0.2h-0.2l-0.1-0.2l-0.1,0.2
			V157l-0.2-0.1l-0.1,0.1l-0.2-0.2v-0.2l-0.1-0.2l-0.1,0.5h-0.3l-0.2-0.4l-0.5-1.6l-0.1-0.6l-0.1-0.1v-0.5l-0.2-0.3l-0.2-1.3
			l-0.1,0.1l-0.1,0.3l-0.1-0.2l-0.2,0.2v0.2l-0.3,0.2h-0.1l-0.3,0.2h-0.3l-0.1,0.1l-0.9,0.4h-0.2l-0.1,0.2l0.1,0.1l-0.1,0.1v0.2
			l-0.1-0.1l0,0.2h-0.2v0.2l-0.1,0.2v0.4l-0.1,0.1l-0.2,0.6l-0.1,0.9v1.1h0.2l0.1,0.1l-0.4,0.1l-0.1-0.1l-0.1,0.1l-0.2-0.2V157.6z
			 M197.5,145.3l0.1-0.1l-0.1-0.1V145.3z M197.8,151.5L197.8,151.5l0.1-0.4l0.1,0.1v0.2l0.7-0.1h0.5l0.4-0.1v0.2l0.1-0.1l0.1,0.1
			l0.1-0.2l-0.2-1.6l-0.1-1.4l0.1-0.2v-0.1l-0.1,0.1v-0.6h-0.1v-0.6l-0.1-0.2l0.1-0.2v-0.6l-0.2-1.1l0.1-1l-0.1-0.2v-0.3h-0.1v0.8
			l-0.1,0.1v0.6l-0.2,0.3l-0.1,0.4l-0.3,0.4l-0.1,0.6l-0.2,0.1v0.8l-0.1,0.5l-0.2-0.1l-0.1,0.2v0.5h0.1v0.1h-0.2v0.1h0.1l-0.1,0.1
			l0.1,0.1L198,149h-0.1l0.1,0.3l0.1-0.1l0.1,0.3l-0.1-0.1v0.5l-0.2,0.6l-0.2,0.2v0.2l0.1-0.2L197.8,151.5L197.8,151.5z
			 M197.9,150.2v-0.5l-0.1,0.4L197.9,150.2z M198,142.6h0.1v-0.2l-0.1,0.1v-0.2l-0.1-0.1l-0.1,0.2v0.3L198,142.6z M198,150.8
			l-0.1,0.1v-0.2L198,150.8z M198.1,145.2L198.1,145.2V145V145.2z M198.6,141.6v-0.1l-0.2,0.2l0,0.2L198.6,141.6z M198.5,143.1
			L198.5,143.1h-0.2H198.5z M198.7,142.4l-0.1-0.5l-0.1,0.5H198.7z M198.8,141.9l-0.1-0.1l0.1-0.2l-0.2-0.5v0.8H198.8z M202.6,155.3
			v0.2l-0.1,0.1v-0.2L202.6,155.3z M202.7,157L202.7,157L202.7,157L202.7,157z M202.8,157.4l-0.1,0.1v-0.3L202.8,157.4z"/>
		<path class="st3" d="M207.1,157.7l-0.2-0.2h-0.3l-1.2-1l-0.1-0.3l-0.7-0.7h-0.1l-0.1-0.3l-0.6-0.7l-0.3-0.5V154l-0.2-0.1v-0.8
			l-0.1-0.1v-0.1l0.1,0l0.1-0.8l0.1-0.1l0.1,0.2l0.2-0.2l0.2,0.1l0,0.2l0.2,0v0.2l0.1-0.1l0.1,0.1v0.5l0.2-0.5v-0.1l0.3-0.1v0.4
			l0.1,0.1v0.5l0.1,0.1v0.1l-0.1,0v0.4l0.1-0.2l0.1,0.3l0.1,0.1l-0.1,0.2l0.2,0.2l0.1,0.1v0.2l0.1,0.1l0.1,0.2v0.1l0.2,0.1l0,0.2
			l0.3,0.4v0.2l0.6,0.4l0.2,0.3h0.2l0.2-0.5l0.2-0.8l0.1-0.6v-1.3l-0.2-1.5l-0.1-0.1l-0.1-0.5l-0.2-0.4v-0.2l-0.1-0.1l0.1-0.1
			l-0.1-0.1l-0.1-0.5l-0.1-0.1v-0.5l-0.1-0.1v-0.1l-0.2-0.4l-0.2-0.7l-0.3-0.4v-0.1l-0.4-0.8l-0.1,0l-0.2-0.4l-0.2-0.2l-0.6-1.5
			l-0.3-0.5l-0.3-0.6v-0.2l-0.2-0.5v-0.8l0.3-1.1l0.4-0.6l0.6-0.5l0.9-0.5h0.7l1.4,0.5l0.1,0.2h0.2l0.2,0.2h0.2l0.2,0.2l0.1,0.1
			l0.3,0.3l0.1,0.3l0.1,0.1h0.1v0.3l-0.1,0.1v0.3l-0.2,0.1l-0.3-0.1l-0.1-0.4l-0.1,0.2l-0.1-0.1h-0.2l-0.1-0.2l-0.1,0.1l-0.1-0.1
			l-0.1-0.2l-0.1,0.1h-0.2l-0.1-0.3l-0.1-0.5l-0.1-0.1l-0.6,0.3l-0.5,0.4V141l-0.4,0.6l-0.1,0.4l-0.2,0.4v1.1l0.1,0.1v0.2l0.1,0.2
			v0.1l0.1,0.1l0,0.2l0.1,0.1l0.9,1.8h0.2l1.1,2.5l0.8,2.3l-0.1,0.1l0.1,0.2l0.1,0.1l0.3,1.1l0.1,0.8l0.1,0.1v0.4l0.1,0.2l-0.1,0.2
			v0.2l0.1,0.1l-0.1,0.1v0.4l-0.1,0.1v0.4l0.1,0.1l-0.1,0.2l-0.1,0.2l-0.1-0.1l0.1,0.5l0.1,0.1l-0.2,0.2v0.2l-0.4,0.5l-0.2,0.1h-0.2
			l-0.1,0.2l-0.1-0.1l-0.4,0.1h-0.3l-0.1-0.1l-0.1,0.1l-0.1-0.2L207.1,157.7z"/>
		<path class="st3" d="M220.5,158.1l-0.2,0.1l-0.2-0.2l-0.1,0.1l-0.1-0.2l-0.3-0.1l-0.2-0.2h-0.1l0-0.4l0.1-0.2l-0.1-0.1l-0.2,0.2
			v-0.3l0.1-0.2l-0.1-0.3l-0.1-1.2l0.1-0.1l0-0.4l0.1-0.4H219l0-1.6l-0.1-1.5l0.1,0.6l0-0.6l-0.1-0.3l0-0.4l0.1-0.1l0,0.4l0.2-0.2
			l-0.2-1.1l0.1-0.2l0.1,0.1l0.1-0.1l0-0.3h-0.1v-0.3h0.2l-0.2-1l-0.1,0.1l-0.1-0.4l0.1-0.8l0.1,0.5l-0.1-0.9l-0.1,0.3l-0.1-0.5
			l0.1-0.6l0,0.5l0.1,0.2l0-0.3l0-0.9l0.2-0.1l0.1-0.1l-0.1-0.4h0.1l-0.1-1.1l0.1-0.1l0.1-0.2l-0.1,0.1l0-0.1l-0.1-0.1l0-0.7
			l-0.1-0.1l-0.1-0.5l0.1-0.1l0-0.4l-0.1-0.2l-0.1,0.2l-0.1-0.1l0-0.3l0.3-0.1v-0.1l0.1-0.3h0.2l0.2-0.1l0.2,0.2l0.1-0.2l0.2,0.1
			l0.1,0.1l0.1-0.1l0.1,0.1v0.6l0.1,0.4l0.8,13.2l-0.1,0.4l0.1,1.7l0.3-0.2h0.5l0.1-0.2v-0.2l0.4-0.4l0.8-0.9l0.6-1.1h0.2l0-0.3
			l0.1-0.1l-0.1-0.1l0.8-2.5l0-0.5l0.2-0.2l0-0.5l0.2-0.2l-0.1-0.1l-0.1-0.7L225,147l-0.1-0.1l-0.6-2.3l-1.1-2.1l-1.8-2.2l-0.5-0.5
			l-0.8-0.5l-0.4-0.1l-0.2-0.5l0.2,0.1l0.1-0.1l0.3,0.1l2.5,1.3l0.5,0.4l-0.1,0.1l0.1,0.1h0.1l0.1,0.1l-0.1,0.1l1,1l-0.1,0.1h0.1
			l0.1,0.5l0.3,0.5l0,0.2l0.1-0.1h0.2v0.2h0.1v0.2l0.5,0.8l0.2,0.1l0,0.4l0.1,0.1v0.4l0.4,0.4l-0.1,0.2l0.2,0.5l0,0.4l0.2-0.3
			l0.2,0.8v0.4l0.1,0.1v0.4l-0.1,0.5l0.2,0.2l0,0.5l0.1,0.4l-0.1,0.8l0.1,0.9l-0.1,0.4l-0.2,0.7l-0.1,0.4v0.3l-0.1,0.3l-0.2,0.2
			l-0.1,0.5l-0.2,0.4l0,0.3l-0.2,0.2l0,0.2l-0.3,0.3l-0.1,0.1l-0.3,0.3l-0.1,0.5l-0.4,0.4l-0.2-0.1l-0.2,0.2l0,0.1h-0.2l-0.5,0.5
			h-0.2l-0.2,0.2l-0.6,0.2l-0.1,0.1l-0.5,0.2l-0.3,0.2h-0.5l-0.2,0.2l-0.1-0.1l-0.1,0.1h-0.5L220.5,158.1z M219.2,143.7l0,0.3
			L219.2,143.7L219.2,143.7z M219.5,150l0.1-0.2l0-0.4l-0.2,0.1v0.1l0.1,0.2L219.5,150z M219.7,155l0.1-0.3l-0.1,0.1V155z
			 M225.2,152.8l0.1-0.1v-0.2l-0.2,0.1L225.2,152.8z M225.4,146.1v-0.2l-0.1-0.1v0.1L225.4,146.1z"/>
		<path class="st3" d="M228.6,157.6l-0.2-0.1l-0.1,0.1l-0.2,0.1l-0.2-0.2h-0.2l-0.2-0.1l2.2-14.2l0.1-0.1l0.1-0.4l0.2,0.2v-0.4
			l0.3-1.2l0.2-0.2l-0.1-0.1l0.1-0.6l0.1-0.1v0.2l0.1-0.1l0.1,0l0.1-0.1v0.9h-0.1v0.3l0.1-0.1l0.1-0.5h0.2v-0.2l-0.2-0.3l0.2-0.7
			l-0.1-0.3l-0.2-0.2V139l0.2,0.1l0.1-0.1l0.4,0.1l0.1-0.1l0.2,0.1l0.3,0.2h0.1l0.1,0.1l0.4,0.1l0.1,0.2v0.2l0.3,0.5l0.2,0.8v0.3
			l0.2,0.4v0.3l0.2,0.7v0.4l0.1,0.4v0.8l0.2,0.2v0.4l-0.1,0.2v0.3l0.1-0.1v0.4l0.1,0.1v0.6l0.1,0.7l-0.1,0.8l0.1,0.1v0.6l0.1,0.4
			l-0.1,0.2l0.1,0.1v0.2l0.1,0.4v0.5l-0.1,0.2h0.1l-0.1,0.3l0.1,0.1l-0.1,0.2l0.2-0.1l-0.1,0.1l0.1,0.1l-0.1,0.1l0.1,0.1l0.1,0.6
			l0.1,0.1v0.2l0.1,0.4v0.5l0.1-0.1l0.1,0.4v1.1l0.1,0.1l0,0.7l0.1,1l-0.1,0.1l-0.2-0.1l0.1,0.3l0.1,0.1v0.2h-0.2l-0.1-0.2l-0.1,0.2
			V157l-0.2-0.1l-0.1,0.1l-0.2-0.2v-0.2l-0.1-0.2L234,157h-0.3l-0.2-0.4l-0.5-1.6l-0.1-0.6l-0.1-0.1v-0.5l-0.2-0.3l-0.2-1.3
			l-0.1,0.1l-0.1,0.3l-0.1-0.2l-0.2,0.2v0.2l-0.3,0.2h-0.1l-0.3,0.2h-0.3l-0.1,0.1l-0.9,0.4H230l-0.1,0.2l0.1,0.1l-0.1,0.1v0.2
			l-0.1-0.1l0,0.2h-0.2v0.2l-0.1,0.2v0.4l-0.1,0.1l-0.2,0.6l-0.1,0.9v1.1h0.2l0.1,0.1l-0.4,0.1l-0.1-0.1l-0.1,0.1l-0.2-0.2V157.6z
			 M230,145.3l0.1-0.1l-0.1-0.1V145.3z M230.3,151.5L230.3,151.5l0.1-0.4l0.1,0.1v0.2l0.7-0.1h0.5l0.4-0.1v0.2l0.1-0.1l0.1,0.1
			l0.1-0.2l-0.2-1.6l-0.1-1.4l0.1-0.2v-0.1l-0.1,0.1v-0.6H232v-0.6l-0.1-0.2l0.1-0.2v-0.6l-0.2-1.1l0.1-1l-0.1-0.2v-0.3h-0.1v0.8
			l-0.1,0.1v0.6l-0.2,0.3l-0.1,0.4l-0.3,0.4l-0.1,0.6l-0.2,0.1v0.8l-0.1,0.5l-0.2-0.1l-0.1,0.2v0.5h0.1v0.1h-0.2v0.1h0.1l-0.1,0.1
			l0.1,0.1l-0.1,0.2h-0.1l0.1,0.3l0.1-0.1l0.1,0.3l-0.1-0.1v0.5l-0.2,0.6l-0.2,0.2v0.2l0.1-0.2L230.3,151.5L230.3,151.5z
			 M230.4,150.2v-0.5l-0.1,0.4L230.4,150.2z M230.5,142.6h0.1v-0.2l-0.1,0.1v-0.2l-0.1-0.1l-0.1,0.2v0.3L230.5,142.6z M230.5,150.8
			l-0.1,0.1v-0.2L230.5,150.8z M230.6,145.2L230.6,145.2V145V145.2z M231.1,141.6v-0.1l-0.2,0.2l0,0.2L231.1,141.6z M231,143.1
			L231,143.1h-0.2H231z M231.2,142.4l-0.1-0.5l-0.1,0.5H231.2z M231.3,141.9l-0.1-0.1l0.1-0.2l-0.2-0.5v0.8H231.3z M235.1,155.3v0.2
			l-0.1,0.1v-0.2L235.1,155.3z M235.2,157L235.2,157L235.2,157L235.2,157z M235.3,157.4l-0.1,0.1v-0.3L235.3,157.4z"/>
		<path class="st3" d="M248.5,157.6l-0.7-0.4l-0.5-0.2l-0.3-0.2l-0.2-0.1l0.1-0.1l-0.2,0.1v-0.2l-0.2-0.2h-0.1l0.1-0.1l-0.1-0.1
			l-0.1,0.1l0-0.1l-0.1-0.3v-0.2l-0.1-0.2l-0.3-0.6l-0.2-1.3l-0.1-0.1l0-0.2h-0.1l0-0.3l0.1-0.1l0-0.1l-0.2-0.2l0.1-0.2l-0.1-0.1
			l0.1-0.1l0-0.5l0.1,0.1l0-0.4l0.1,0.1l0.2-0.2l0,0.4l0.3-0.2l0-1.1l-0.1-0.4l-0.1,0.1l-0.1,0.3l-0.1-0.1l0,0.1l-0.2-0.1l-0.2,0.1
			v-0.2l-0.1-0.1l0-0.5l-0.1,0.1l-0.3-0.2l0.1-4.9l0.2-0.8l0.1-0.1l-0.2-0.1l0.2-0.8v-0.2l0.2-0.4v-0.1l0.1-0.2h0.1l0.3-0.6l0.2-0.2
			h0.2l0.2-0.5l0.2,0.1l0-0.2l0.4-0.1l0.4-0.3l0.4-0.4l1.2-0.1l0.3-0.1l1.2,0.4l1.1,0.6l-0.1,0.1l0.2,0.1h0.3l0.4,0.5l0.3,0.1
			l0.3,0.7l0.4,0.2l0,0.6l0.2,0.2l0.2,0.7l0.2,0.4l0.2,0.8l0.2,0.2l-0.1,0.2v0.3l-0.3,0.3l-0.5,0.2l-0.4-0.2l-0.3,0.1l-0.1-0.1
			l-0.2-0.1v-0.2l-0.3,0.1l0.1-0.3l0.1-0.1v-0.2l-0.2,0.2l-0.2-0.3l-0.3-1.1l-0.6-1.8l-0.4-0.7l-0.8-0.7l-0.4-0.2l-0.2,0.1l-0.6,0.1
			l-0.2,0.2l0.1,0.1l-0.6,0.2l0.1,0.1l-0.1,0.3l-0.1,0.1l-0.4,0.5h0.2l-0.3,0.4v0.2l-0.3,0.3l0,0.5l-0.1,0.1l-0.2,2.2l0,0.5
			l-0.1,0.6l0.1,0.3l-0.1,1.1l0.1,0.1l0.4,4.6l0.1,0.1l0,0.5l0.2,0.6l0.2,1l0.2,0.2l0.1,0.5l0.1,0.1l0.4,0.6l0.3,0.3l0.8-0.6
			l0.7-1.1l0.6-1.4l0.5-1.5l0.4-3.1h-0.2l-1.2,0.4l-0.6,0.1l-0.6-0.2l-0.2-0.2l-0.5-0.3v-0.1l-0.2-0.2h-0.2l-0.1-0.2l0.2-0.4
			l0.2-0.2l3.9-0.4l0.3,0.1l0.1-0.1l0.3,0.1l0.4,0.2l0,0.4l0.1,0.6h0.2l0.1,0.1l-0.1,0.2v0.2l0.2,0.4l0.1,0.1l-0.1,0.1l0.1,0.1
			l-0.1,0.2l0.2,0.4l-0.2,0.1l0.1,0.2l-0.1,0.1l0.1,0.2l-0.2,0.8v0.2l-0.1,0.1l0,0.2l-0.1,0.1l0.1,0.1l-0.1,0.2l0.1,0.4l-0.2,0.2
			l0.1,0.1l-0.1,0.3l-0.1,0.1l-0.1,0.4l-0.1,0.1l-0.1,0.7l-0.2,0.1v0.3l-0.1,0.1l-0.4,1l-0.2,0.1l-0.5,0.7h-0.2l-0.5,0.4v0.1h-0.2
			l-0.1,0.1h-0.4l-0.1,0.1h-0.4l-0.1-0.1l-0.4,0.1H248.5z M245.4,150.4l0,0.5l-0.2-0.4L245.4,150.4z M252.5,150.9L252.5,150.9l0-0.2
			L252.5,150.9z M252.6,150.2L252.6,150.2v-0.1V150.2z M253.7,152.8v-0.2l-0.2,0.1L253.7,152.8z"/>
		<path class="st3" d="M261.6,148h0.1l0.1,0.1l-0.1,0.1l-0.4,0.3h-0.3l-0.1-0.3h-0.1l-0.2,0.1h-0.4l-0.2,0.3l-0.2,0.1l-0.1,0.1h-0.1
			l-0.2,0.2h-0.3v-0.1l-0.2,0.1h-0.5v0.2h-0.4l-0.4,0.2l-0.1-0.1l-0.1,0.1v0.4l-0.1,0.2v0.3l-0.1,0.1l0.1,0.1l-0.1,0.2v0.5l-0.1,0.5
			l0.1-0.2l0.1,0.1v0.5l-0.1,0.4l0.1,0.1l-0.1,0.2v1.1l0.2,0.4l-0.1,0.2v0.1l-0.1,0.2l0.2,0.1v0.2l0.1,0.2v0.1h0.2l0.8-0.4l0.8-0.2
			l0.1-0.1h0.6l0.1-0.2l0.1,0.2l0.3-0.1l0.4,0l0.4-0.2l0.2,0.1l0.3-0.2l0.2,0.2l0.4,0.1v0.2l-0.1,0.1v0.3l-0.5,0.4l-1.1,0.3
			l-0.1,0.2h-0.4l-0.1,0.1l-0.4,0.1l-0.9,0.5H259l-0.7,0.4l-0.3,0.1l-0.1,0.1h-0.5l-0.1-0.1h-0.5l-0.5-0.3h-0.4l-0.1-0.5l0.1-0.4
			l0.1-0.2l-0.1-0.5l-0.2-0.3l0.1-0.4l-0.1-0.2v-0.8l-0.1-0.6l0.1-0.3l-0.1-1l0.1-0.1l0.1,0l-0.2-0.1l0.1-0.3l-0.1-0.2v-1.3l0.1-0.1
			v-0.2l0.1-0.4l-0.1-0.3v-0.6l0.1-0.4l0.1-0.4l0.1,0.1l0.2-0.3h0.1l-0.1-0.1l0.2-0.2l0.1,0.4l0.1-0.1v-0.4h-0.1v-0.4l-0.1,0.3v0.1
			l-0.1,0.2h-0.2l-0.1-0.1l-0.1-0.2v-0.2l0.1-0.2l-0.6-6.6L255,140v-0.5h0.3l0.2,0.1h0.4l0.1,0.1l0.1-0.1v0.1h0.2l0.1-0.1v0.1
			l0.2-0.1h1.9l0.1,0.1h0.2l0.2-0.1l-0.1,0.1h0.2l0.2,0l0.2-0.1l0.4,0.2l0.3-0.1l0.1,0.1h0.4l0.1,0l0.1,0.1h0.4v0.1l0.1,0.1
			l-0.1,0.1l-0.1,0.2h-0.1l-0.1,0.1l0.1,0.1l-0.1,0.2l-0.1-0.1l-0.2,0.1l-0.1,0.2l-0.4,0.1H260l-0.2,0.1l-0.1,0.2h-0.4l-0.2-0.1
			l-0.2,0.2h-0.2l-0.1,0.1l-0.1-0.2l-0.3,0.1l-0.2-0.1l-0.1,0.1l-0.1-0.1l-0.3,0.1l-0.4,0.1l0.1,1.5v0.6l0.1,0.1v1.6l0.1,0.3v0.7
			h0.1v0.9l1.6-0.2l0.5-0.1h0.9l0.4-0.1l0.3,0.1l0.5,0.4l-0.1,0.1l0,0.2l-0.1-0.1l-0.1,0.1v0.1l-0.1,0.2l-0.1,0.1h0.3l0.1-0.2V148z
			 M256.1,156.3l0.1,0.5v-0.7L256.1,156.3z M256.1,150.3l0.1,0.4l0-0.5L256.1,150.3z M256.3,150L256.3,150l-0.1-0.2L256.3,150z
			 M256.5,155.6l-0.1-0.4l-0.1,0.8L256.5,155.6z M260.9,148.4l-0.3,0.5l0.2-0.5H260.9z"/>
		<path class="st3" d="M265.5,158.1l-0.3,0.1l-0.1-0.2l-0.1,0.3l-0.1-0.1l-0.1,0.1h-0.2l-0.1,0.1l-0.1-0.1h-0.2l-0.1-0.1v-0.4
			l-0.5-5v-1.2l-0.1-1l0.1-0.1v-0.2l-0.2-0.1v-8.9l0.1-0.1l-0.1-0.3l-0.1,0.1l0.1-0.2l0.1-0.6l0.1,0.1l0,0.4l0.2,0.1l0.1-0.6
			l0.1,0.2l0.2-0.3l0.2,0.2l0.3-0.4l0.4,0.1h0.7l0.9,0.2l1.9,0.6l0.2,0.1h0.1l0.6,0.3v0.1h0.2v0.2h0.2l0.3,0.4l0.4,0.6v0.4l0.1,0.1
			l-0.1,0.5l0.1-0.1l-0.1,0.2v0.1l-0.2,0.4h0.1l-0.6,1.2l-0.2,0.2h-0.1l-0.2,0.4v0.1l-0.2,0.4H269l-0.1,0.1l0,0.1l-0.3,0.2h0.2
			l-0.1,0.1l-0.3,0.1l-0.3,0.2l-0.2,0.3l-0.5,0.5l0.9,1l0.1,0.4l0.1,0.1l0.1,0.4l0.2-0.1l-0.1,0.4h0.2v0.4l0.1,0.1v0.4l0.1,0.1
			l0,0.7l0.1,0.1l-0.1,0.1l0.1,0.1l0.1,0.2l-0.1,0.2l0.1,0.2v0.3l0.2,0.3v0.4l0.1,0.4v0.5h0.2v0.2l0.1,0.1v0.2l0.1,0.1l-0.1,0.2
			l0.1,0.1v0.2l0.2,0.4l0,0.4l0.1-0.2l0.2,0.4l-0.1,0v0.1h0.2v0.2l0.1,0.1l0.1,0.3l-0.1,0.1l0.2,0l0,0.2l0.2,0.1v0.2l0.4,0.5
			l-0.2,0.1l-0.4-0.1l-0.4-0.3l-0.2,0.1l-0.2-0.1h-0.5l-0.4-0.3l-0.5-0.8l-0.1,0.1l-0.5-1.1l-0.4-1.3v-0.5l-0.4-1.4v-0.6L267,151
			l-0.1-0.5l-0.2-0.5l0.1-0.1l-0.1-0.3l-0.3-0.7l-0.3-0.4l-0.1-0.2l-0.2-0.2l-0.1,0.1v0.1l0.1,0.1l-0.1,0.2l0.1,0.1l-0.1,0.5
			l0.1,0.1l-0.1,0.2v0.3l0.1,0v0.2l0.1,0.2l-0.1,0.2l-0.1,0.5l0.1,0.3l-0.1,0.1l0,0.6l-0.1,0.1l0.1,0.1l0.1,0.6l-0.1,0.1l0.1,0.6
			l-0.1,0.2l0.2,0.1l-0.1,0.5l0.2,0.1l-0.1,0.1H266v0.2l0.2-0.1l-0.1,0.3l-0.1,0.1l0.1,0.2l0.1,0.6l-0.1,0.1l0.1,0.1l-0.2,0.2
			l-0.1-0.1v0.1l0.1,0v0.3h-0.2l-0.1,0.2l0.3,0.1l-0.2,0.4v0.1h0.2l0.1,0.4l0.1-0.2l0.1,0.3l-0.1,0.1l-0.1,0.3l-0.2-0.1v0.2h-0.1
			l-0.1-0.1l-0.1,0.2L265.5,158.1z M264.4,149.8v-0.1V149.8L264.4,149.8z M264.6,154.6L264.6,154.6L264.6,154.6L264.6,154.6z
			 M265.9,146.4l0.2-0.3h0.1l0.1-0.1l0.1-0.1l0.1-0.1h0.2l0.5-0.4v-0.2l0.1-0.1l-0.1-0.1v-0.1l0.5-0.7l0.2-0.1l0.1-0.3l0.2-0.1
			l0.2-1v-0.9l-0.2-0.4l-0.5-0.5l-1.3-0.3h-0.9l0.3,2.5l0.1,2.8L265.9,146.4z"/>
		<path class="st3" d="M277.6,145.3l0.1,0.1l-0.3,0.5l-0.2,0.1v0.2l-0.4,0.6h-0.2l-0.1,0.2l-0.3,0.3l-0.3,0.4l-0.2-0.1l-0.2,0.2
			l0.1,0.1l-0.3,0.3l-0.2,0.3l-0.1-0.1l-0.8,0.4v-0.1h-0.2v-0.4l-0.4,0.1v-0.5l-0.2-0.1l0.1,0.4l-0.1,0.1l0.1,0.2l-0.1,0.1v0.2
			l0.1,0.2v1.4l-0.2,0.3l0.2,0.9v0.7l-0.1,0.2l-0.1,0.3l0.2,0.2v0.5l-0.1,0.2l0-0.1l-0.1,0.5l0.1,0.1l0-0.1l0.1,0v0.3h-0.1l0.1,0.5
			l0.2-0.1l-0.2,0.3l0,0.3l0.2,0.1l-0.1,0.1l-0.1-0.1l-0.2,0.1l0.1,0.2l0.2-0.2l0.1,0.1v0.5l-0.2,0.2l0.2,0.2v0.4l-0.3,0.1v-0.3
			l-0.1,0.2h-0.1v-0.1L273,157l0.1,0.3l-0.2,0.1h-0.1v0.3l-0.1,0.1l-0.1-0.1l-0.2,0.1v-0.5l-0.1-0.3l-0.1,0.6h-0.2v0.1H272l-0.1-0.2
			h-0.2v-0.8l-0.1-1.7v-0.9l-0.1-0.9v-0.9l-0.1-0.4v-2.7l-0.1-0.5v-1.9l0.1-0.1l-0.1-0.1l0.1-0.2l-0.1-0.2v-0.7l0.1-0.2l-0.1-0.1
			l-0.1-2.4l0.1-0.4l-0.1-0.5l0.1-1.5l0.1,0.1l0.1-0.3v-0.5l0.1,0.1l0.1,0.2l0.1-0.2l-0.1-0.1l0.2-0.2l0.3-0.4l0.1-0.4l0.5-0.1v-0.1
			h1.6l0.8,0.2l1.2,0.6h0.2l0.9,0.6l0.2,0.3h0.2l0.4,0.5l0.2,0.5l0.1,0.3v0.7l0.1,0.1l-0.1,0.6l-0.2,0.5v0.5l-0.4,0.4l-0.1,0.3
			l0.1,0.1L277.6,145.3z M272,150.7l0.1,0.3v-0.5L272,150.7z M272.1,150L272.1,150v-0.2V150z M272.5,157v-0.3l-0.1,0.1L272.5,157z
			 M273,157.7l-0.1-0.1h0.1l0.1-0.2l0.1,0.2l-0.1,0.1l0.1,0.1l-0.1,0.3H273l-0.1,0.4l-0.1-0.4L273,157.7z M273.1,156.7l0.2,0
			l-0.1-0.1l0.1-0.2h-0.1v0.1L273.1,156.7z M273.3,156.3l0.1-0.1l-0.1-0.1V156l-0.1,0.1L273.3,156.3z M273.4,147.4l0.2-0.1h0.1
			l0.4-0.2v-0.2l0.2-0.3l0.1-0.2l0.5-0.5l0.4-0.6l0.2-0.2l0.8-1.5l0.2-0.1l0.1-0.5h0.2l0.1-0.9l0-0.9l-0.3-0.6l-0.2-0.1l-0.3-0.3
			h-0.4l-0.5-0.1l-0.1,0.1h-0.9l-0.7,0.3l-0.1,1.7l0.1,0.8l-0.1,0.8l0.1,0.1l-0.1,0.7l0.1,0.1v1.7l-0.1,0.1l0.1,0.2l-0.1,0.2
			l0.1,0.2V147.4z M273.4,157.6v0.2l-0.1,0.1L273.4,157.6L273.4,157.6z M273.7,156.3v0.2l-0.1-0.1L273.7,156.3z M274.3,147.8
			l0.3-0.1h-0.1L274.3,147.8z"/>
		<path class="st3" d="M281.8,157.1l-0.1,0.4l-0.1-0.4l-0.2-0.1l-0.1,0.1h-0.1l0.1-0.1l-0.1-0.1l0.2-0.2l-0.1-0.1l0-0.3l-0.1-0.1
			v-0.9l0.1-0.3l-0.1-0.5l-0.2,0.1l0.1-0.1l-0.1,0.1l0.1,1.5l-0.1-0.1l-0.1,0.5l-0.1-0.1l-0.1-0.3l-0.3-0.4v-0.5l-0.1-0.2l0.1-0.4
			v-1l-0.1-0.3v-0.5l0.1-0.1l-0.1-0.3v-3.3l0.1-0.1l-0.2-0.3l0.1-0.9v-2.5l0.1-0.1l-0.1-0.1l0.2-0.5v-0.2l-0.1,0.1l-0.1-0.3v-1.9
			l0.1-0.5v-0.4l-0.1,0.2l-0.1-1.1h0.3l0.3-0.6l-0.2-0.1l0.2-0.1l0.1-0.2l0.2,0.1l0.2-0.1l0.1,0.2l0.4-0.2l0.1,0.1h0.3l0.2,0.6
			l0.1,3.4l-0.1,0.1l0.1,0.1v2.6l-0.1,0.3l0.1,0.2v2.6l0.1,0.1l-0.1,0.3l0.2,0.4l-0.1,0.1l0.1,0.3l-0.1,0.3v1.4l0.1,0.1l-0.1,0.1
			v1.5l-0.1,0.3v0.2l-0.1,0.2l0.2-0.1l-0.1,0.9l0.1,0.1l-0.1,0.3v1.1l-0.1,0.1v0.2l-0.1,0.1l-0.1-0.1v-0.2h-0.1l-0.2,0.3l0-0.3
			L281.8,157.1z M280.4,156.3l0.3,0.3l-0.2,0.2v-0.1L280.4,156.3z M280.5,155.8l0.1-0.4l-0.1-0.1V155.8z M281,153.4l0.2,0.5v-0.7
			L281,153.4z"/>
		<path class="st3" d="M288.2,158.1h-0.3l-0.2,0.1l-0.3-0.1H287l-0.9-0.8l-0.1-0.1h-0.1l-0.1-0.2l0-0.3l-0.1-0.2v-0.2l0.1-0.2v-0.2
			l-0.1-0.1l0.1-0.5l0.1,0.5h0.1v0.1l0.1,0.1l0.1,0.1l0.1-0.1v-0.6l0.2-0.3l0.2-0.4l0.1,0.1l0.2-0.1l-0.1,0.2l-0.1,0l0.1,0.2h0.1
			l0.1,0.1v0.2l-0.2,0.1h0.2v0.4l0.1,0.1l0.1,0.9l-0.2,0.1v0.2l0.2,0.2V157l0.1-0.1l0.1,0.1h0.2l-0.1-0.1l0.3-0.3l0.5-0.9l0.2-1.3
			l-0.2-1.5l0.1-0.1l-0.2-0.7h-0.1v-0.6l-0.1-0.2l-0.1,0.1v-0.7l-0.2-0.3v-0.4l-0.2-0.4l-0.1,0.1v-0.5l-0.2-0.4l0.1-0.2h-0.1
			l-0.1-0.1l-0.3-0.6l0.2-0.1v-0.3l-0.1-0.1l-0.2,0.1l-0.1-0.4h-0.2l-0.1,0.1l0.3-0.3l-0.1-0.2l-0.2,0.1v-0.1H286l-0.2-0.4l0.1-0.1
			l0.1-0.2h-0.2l-0.1,0.1l0.1-0.2l-0.1-0.1l0.2-0.1l-0.2-0.1l0.1-0.1h-0.1l-0.1-0.2l-0.1-0.1l-0.2,0.1l0.2-0.4v-0.1l-0.2,0.1
			l-0.1-0.7l-0.1,0.4l-0.1,0.1l-0.2-0.2h-0.1l-0.2-0.4l-0.1-0.5v-0.5l-0.1-0.2l0.1-0.1v-0.6l-0.1,0.2l0.2-0.5v-0.3l0.3-0.6v0.1h0.1
			l0.3-0.4h0.1l-0.2,0.4l0.8-0.9l-0.4,0.3h-0.1l0.1-0.2l-0.4,0.3l-0.1-0.1l0.1-0.1l0.2-0.1h0.3l0.2-0.3l0.2-0.1l0.1,0.1h0.9l0.2,0.2
			l0.3-0.1l0.7,0.2l0.7,0.4l0.4,0.4l0.4,0.7l0.2,0.2l-0.1,0.4l-0.1-0.1l-0.1,0.1l0-0.5h-0.1V141l-0.2-0.2l0.1,0.4l-0.1,0.3l-0.2-0.2
			l-0.1,0.1l-0.2-0.2V141h-0.2v-0.1l-0.2-0.1l-0.4-0.6h-0.4l-0.3,0.1l-0.3,0.3l-0.2,0.1l-0.4,0.7l-0.2,1l0.1,0.7l0.2,0.7l0.4,0.9
			l0.2,0.3v0.2l0.2,0.4v0.1l0.3,0.4l0.1,0.4l0.1,0.1v0.1l0.1-0.1l0.1,0.4l0.1-0.1v0.1l0.1,0.1v0.2l0.1,0.1l-0.1,0.1l0.1,0.1l0.1-0.1
			l0.1,0.3l0.4,0.7l-0.1,0.1l0.2,0.2v0.1l0.4,0.8v0.1l0.1,0.2v0.2l0.1-0.1l-0.1,0.2h0.2v0.4l0.2,0.4l-0.1,0.1l0.1,0.2l0,0.1h0.1
			l0.1,0.5l0.1,0.1v0.3l0.1,0.2l0.1,0.2l-0.1,0.2h0.1v0.2l0.1,0.1v0.1l-0.1,0.1l0.1,0.2l-0.1,0.3h0.2l-0.1,0.2l0.1,0.3v0.8l-0.1,0.2
			l0.1,0.1l-0.1,0.4v0.4l-0.1,0.2h-0.1v0.5l-0.2,0.3l-0.1,0.1l0.1,0.1h-0.1l-0.4,0.2h-0.3l-0.4,0.4v0.3l-0.4-0.3L288.2,158.1z
			 M285.6,155.7v0.1l-0.1,0.1L285.6,155.7L285.6,155.7z M285.7,155.9l-0.1,0.4L285.7,155.9L285.7,155.9z M286.4,156.5L286.4,156.5
			v-0.4l-0.1,0.1l0.1,0.1V156.5z M287,147.7l0,0.1L287,147.7L287,147.7z M287.2,156.5l-0.1-0.2L287.2,156.5L287.2,156.5z
			 M288.3,150.9L288.3,150.9v-0.2l0,0.1L288.3,150.9z"/>
	</g>
</g>
</svg>
