<?xml version="1.0" encoding="utf-8"?>
<!-- Generator: Adobe Illustrator 26.3.1, SVG Export Plug-In . SVG Version: 6.00 Build 0)  -->
<svg version="1.1" id="img-slide-5" xmlns="http://www.w3.org/2000/svg" xmlns:xlink="http://www.w3.org/1999/xlink" x="0px"
	 y="0px" viewBox="0 0 353.4 260.5" style="enable-background:new 0 0 353.4 260.5;" xml:space="preserve">
<style type="text/css">
	.st0{clip-path:url(#SVGID_00000066514959705198510670000009743008842812347538_);}
	.st1{clip-path:url(#SVGID_00000094579233467490339450000012122914618888564143_);}
	.st2{fill:#EBEBEB;}
	.st3{fill:#FFFFFF;}
	.st4{fill:#E0E0E0;}
	.st5{fill:#F5F5F5;}
	.st6{fill:#455A64;}
	.st7{fill:#263238;}
	.st8{fill:#91644A;}
	.st9{opacity:0.36;}
	.st10{clip-path:url(#SVGID_00000036220037761424267920000012663362525566458536_);}
	.st11{clip-path:url(#SVGID_00000053523370978640820420000018436937162149103277_);}
	.st12{clip-path:url(#SVGID_00000044887429557020382200000017675126738866571922_);}
	.st13{enable-background:new    ;}
</style>
<g>
	<g>
		<defs>
			<rect id="SVGID_1_" x="1" width="353.4" height="260.5"/>
		</defs>
		<clipPath id="SVGID_00000182488226199892706990000011109661758475700387_">
			<use xlink:href="#SVGID_1_"  style="overflow:visible;"/>
		</clipPath>
		<g style="clip-path:url(#SVGID_00000182488226199892706990000011109661758475700387_);">
			<g id="Grupo_1882">
				<g id="Grupo_1870">
					<g>
						<defs>
							<rect id="SVGID_00000125594079591682713220000015985897071523838595_" x="1" width="353.4" height="260.5"/>
						</defs>
						<clipPath id="SVGID_00000166636277597788992650000006945649479734947459_">
							<use xlink:href="#SVGID_00000125594079591682713220000015985897071523838595_"  style="overflow:visible;"/>
						</clipPath>
						<g style="clip-path:url(#SVGID_00000166636277597788992650000006945649479734947459_);">
							<g id="Grupo_1869">
								<path id="Caminho_1614" class="st2" d="M94.3,46.6c0,25.8-20.9,46.6-46.6,46.6S1.1,72.3,1.1,46.6C1,20.9,21.9,0,47.6,0
									S94.3,20.9,94.3,46.6L94.3,46.6"/>
								<path id="Caminho_1615" class="st3" d="M90,46.2c0,23.3-18.9,42.2-42.2,42.2S5.6,69.5,5.6,46.2S24.5,4,47.8,4
									S90,22.9,90,46.2L90,46.2"/>
								<path id="Caminho_1616" class="st4" d="M5.2,43.6v4.2c0,0.5,0.1,1.1,0.2,1.8s0.1,1.3,0.2,2.1S5.8,53.3,6,54
									c0.7,4,2.1,7.9,3.9,11.6c2.5,4.8,5.8,9.1,9.9,12.7l1.7,1.5c0.6,0.5,1.3,0.9,1.9,1.3c0.7,0.4,1.3,0.9,2,1.3l2.1,1.2l1.1,0.6
									l1.1,0.5l2.3,1c0.8,0.3,1.6,0.5,2.4,0.8s1.7,0.5,2.5,0.7c1.7,0.4,3.5,0.8,5.3,1l2.7,0.3h4.2l1.4-0.1
									c0.9-0.1,1.9-0.1,2.9-0.3c1.9-0.3,3.8-0.7,5.7-1.3l1.4-0.4c0.2-0.1,0.5-0.1,0.7-0.2l0.7-0.3l2.8-1.1
									c0.9-0.4,1.8-0.9,2.7-1.4c0.4-0.2,0.9-0.5,1.4-0.7l1.3-0.8c1.8-1.1,3.4-2.4,5-3.7l2.3-2.2l0.6-0.6l0.5-0.6l1-1.2l1.1-1.2
									l0.9-1.3l0.9-1.3l0.5-0.7c0.1-0.2,0.3-0.5,0.4-0.7l1.6-2.9l1.3-3c1.7-4.2,2.7-8.6,3.1-13.1c0.2-4.5-0.2-9.1-1.3-13.4
									l-0.9-3.2l-1.2-3.1l-0.3-0.8l-0.4-0.7l-0.8-1.4l-0.8-1.4L82.7,24l-0.9-1.4l-0.4-0.7l-0.5-0.6l-2-2.5c-1.4-1.6-2.9-3-4.5-4.4
									l-1.2-1L72,12.5c-0.8-0.6-1.7-1.2-2.5-1.7l-2.6-1.5l-0.7-0.4c-0.2-0.1-0.5-0.2-0.7-0.3L64.1,8c-1.8-0.8-3.6-1.5-5.5-2
									c-0.9-0.3-1.9-0.4-2.8-0.6l-1.4-0.3C53.9,5,53.5,5,53,4.9l-2.8-0.3c-0.9-0.1-1.8,0-2.8-0.1c-1.8,0-3.6,0.1-5.4,0.3
									c-0.9,0.1-1.7,0.2-2.6,0.4c-0.9,0.2-1.7,0.3-2.5,0.5l-2.4,0.7l-1.2,0.3l-1.1,0.5l-2.3,0.9c-0.8,0.3-1.4,0.7-2.1,1.1
									c-0.7,0.4-1.4,0.7-2.1,1.1l-1.9,1.2c-4.5,3-8.4,6.8-11.5,11.3c-2.4,3.4-4.2,7-5.4,10.9c-0.3,0.7-0.5,1.5-0.7,2.3
									c-0.2,0.7-0.3,1.4-0.5,2c-0.1,0.6-0.3,1.2-0.4,1.8c-0.1,0.5-0.1,1-0.2,1.5c-0.1,0.9-0.2,1.5-0.3,2
									C5.2,43.4,5.2,43.6,5.2,43.6c0,0,0-0.2,0.1-0.7s0.1-1.1,0.2-2c0-0.4,0.1-0.9,0.2-1.5c0.1-0.5,0.2-1.1,0.4-1.8
									s0.3-1.3,0.4-2.1c0.2-0.8,0.4-1.5,0.7-2.3c1.2-3.9,3-7.7,5.4-11c3.1-4.5,7-8.4,11.6-11.4l1.9-1.3c0.7-0.4,1.4-0.7,2.1-1.1
									c0.7-0.3,1.4-0.8,2.2-1.1l2.3-0.9l1.2-0.5l1.2-0.4l2.4-0.7c0.8-0.2,1.7-0.3,2.6-0.5s1.7-0.3,2.6-0.4
									c1.8-0.2,3.6-0.3,5.4-0.3c0.9,0,1.9,0,2.8,0.1L53.7,4c0.5,0.1,0.9,0.1,1.4,0.2l1.4,0.3c0.9,0.2,1.9,0.4,2.8,0.6
									c1.9,0.6,3.8,1.2,5.6,2l1.4,0.6C66.5,7.8,66.8,7.9,67,8l0.7,0.4l2.7,1.5c0.9,0.5,1.7,1.2,2.6,1.8c0.4,0.3,0.9,0.6,1.3,0.9
									l1.2,1c1.6,1.4,3.1,2.8,4.6,4.4l2,2.5l0.5,0.6l0.4,0.7l0.9,1.4l0.9,1.4l0.8,1.5l0.8,1.5l0.4,0.7l0.3,0.8
									c0.4,1,0.8,2.1,1.3,3.1l0.9,3.2c1.1,4.4,1.6,9,1.3,13.6c-0.4,4.6-1.4,9-3.1,13.3l-1.4,3.1l-1.6,2.9
									c-0.1,0.2-0.3,0.5-0.4,0.7l-0.5,0.7l-0.9,1.4l-1,1.3l-1.1,1.2l-1.1,1.2L79,75.4L78.4,76l-2.3,2.2c-1.6,1.4-3.3,2.6-5.1,3.8
									l-1.3,0.9c-0.4,0.3-0.9,0.5-1.4,0.7c-0.9,0.5-1.8,1-2.8,1.4l-2.8,1.1L62,86.4c-0.2,0.1-0.5,0.1-0.7,0.2L59.9,87
									c-1.9,0.6-3.8,1-5.8,1.3c-1,0.1-1.9,0.2-2.9,0.3l-1.4,0.1h-4.2c-0.9,0-1.9-0.2-2.8-0.3c-1.8-0.2-3.6-0.5-5.3-1
									c-0.9-0.2-1.7-0.5-2.5-0.8s-1.7-0.5-2.5-0.8l-2.3-1l-1.1-0.5L28,83.7l-2.1-1.2c-0.7-0.4-1.3-0.9-2-1.3
									c-0.6-0.5-1.3-0.9-1.9-1.4l-1.7-1.5c-4.1-3.6-7.5-7.9-10-12.8c-1.9-3.7-3.2-7.6-3.9-11.6c-0.2-0.8-0.3-1.6-0.4-2.4
									c-0.1-0.7-0.1-1.4-0.2-2.1c0-0.6-0.1-1.2-0.1-1.8v-1.5c0-0.9,0-1.6,0.1-2C5.2,43.9,5.2,43.6,5.2,43.6"/>
								<path id="Caminho_1617" class="st4" d="M67.1,47.3c-0.5,0.1-1,0.1-1.5,0.1l-4.1,0.1c-3.5,0-8.4,0.1-13.9,0.1h-0.3v-3.1
									c0-6.2,0-11.7,0.1-15.7c0-1.9,0.1-3.6,0.1-4.8c0-0.6,0-1.2,0.1-1.8c0.1,0.6,0.1,1.2,0.1,1.8c0,1.2,0.1,2.8,0.1,4.8
									c0.1,4,0.1,9.6,0.1,15.7v2.8L47.6,47c5.5,0,10.4,0,13.9,0.1l4.1,0.1C66.1,47.2,66.6,47.3,67.1,47.3"/>
								<path id="Caminho_1618" class="st4" d="M47.7,10.5c0.3,1.2,0.4,2.4,0.3,3.6c0.1,1.2,0,2.4-0.3,3.6c-0.3-1.2-0.4-2.4-0.3-3.6
									C47.3,12.9,47.4,11.7,47.7,10.5"/>
								<path id="Caminho_1619" class="st4" d="M67,16.3c-0.6,1-1.4,1.9-2.3,2.7c-0.8,0.9-1.7,1.7-2.7,2.3c0.6-1,1.4-1.9,2.3-2.7
									C65.1,17.7,66,16.9,67,16.3"/>
								<path id="Caminho_1620" class="st4" d="M78.3,28.6c-0.9,0.8-1.9,1.4-2.9,2c-1,0.7-2,1.3-3.1,1.7c0.8-0.9,1.7-1.6,2.8-2.2
									C76.1,29.4,77.2,28.9,78.3,28.6"/>
								<path id="Caminho_1621" class="st4" d="M85,47c-1.6,0.3-3.2,0.4-4.9,0.3c-1.6,0.1-3.3,0-4.9-0.3c1.6-0.3,3.2-0.4,4.9-0.3
									C81.7,46.6,83.4,46.7,85,47"/>
								<path id="Caminho_1622" class="st4" d="M17.5,46.3c-1.5,0.3-3.1,0.4-4.6,0.3c-1.5,0.1-3.1,0-4.6-0.3
									c1.5-0.3,3.1-0.4,4.6-0.3C14.5,46,16,46,17.5,46.3"/>
								<path id="Caminho_1623" class="st4" d="M22.3,60c-1,1.2-2.2,2.2-3.5,3.2c-1.2,1.1-2.4,2-3.8,2.7c1-1.2,2.2-2.2,3.5-3.2
									C19.6,61.6,20.9,60.7,22.3,60"/>
								<path id="Caminho_1624" class="st4" d="M34,70.5c-0.7,1.4-1.5,2.8-2.4,4.1c-0.7,1.4-1.6,2.7-2.5,4c0.5-1.5,1.1-3,2-4.3
									C32,72.9,32.9,71.7,34,70.5"/>
								<path id="Caminho_1625" class="st4" d="M47.7,84.2c-0.3-1.6-0.4-3.2-0.3-4.9c-0.1-1.6,0-3.3,0.3-4.9
									c0.3,1.6,0.4,3.2,0.3,4.9C48,80.9,47.9,82.5,47.7,84.2"/>
								<path id="Caminho_1626" class="st4" d="M68.6,77.7c-1.5-0.7-2.8-1.6-4-2.7c-1.3-1-2.4-2.2-3.3-3.6c1.3,1,2.5,2.1,3.6,3.2
									C66.3,75.5,67.5,76.6,68.6,77.7"/>
								<path id="Caminho_1627" class="st4" d="M78.5,67.1c-1.2-0.8-2.3-1.8-3.2-2.8c-1.1-0.9-2-2-2.8-3.2c1.2,0.8,2.3,1.8,3.2,2.8
									C76.7,64.8,77.7,65.9,78.5,67.1"/>
								<path id="Caminho_1628" class="st4" d="M21.8,33.2c-1.1-0.7-2-1.5-2.8-2.5c-1-0.8-1.8-1.8-2.5-2.8c1.1,0.7,2,1.5,2.8,2.5
									C20.3,31.2,21.2,32.2,21.8,33.2"/>
								<path id="Caminho_1629" class="st4" d="M34,20.4c-1-0.7-2-1.5-2.8-2.4c-0.9-0.8-1.7-1.7-2.4-2.8c1,0.7,2,1.5,2.8,2.4
									C32.5,18.5,33.3,19.4,34,20.4"/>
								<path id="Caminho_1630" class="st5" d="M10,46.6C10,24.3,27.4,5.8,49.7,4.5c-0.8,0-1.7-0.1-2.5-0.1C23.9,4.4,5,23.3,5,46.6
									s18.9,42.2,42.2,42.2c0.8,0,1.7,0,2.5-0.1C27.4,87.4,10,68.9,10,46.6"/>
								<path id="Caminho_1631" class="st6" d="M234.5,76.8c4.5,2.1,8.2,5.6,10.6,10c-4.7,0.6-11.1,0.2-15.3-2
									c-4.1-2.1-7.5-5.4-9.7-9.5C225,74.2,230,74.7,234.5,76.8"/>
								<path id="Caminho_1632" class="st7" d="M238.6,83.4c-0.2-0.2-0.4-0.3-0.6-0.5c-0.4-0.3-1-0.7-1.8-1.2
									c-4.1-2.5-8.5-4.4-13.1-5.8c-0.9-0.3-1.6-0.4-2.1-0.6c-0.3-0.1-0.5-0.1-0.8-0.2c0.2,0.1,0.5,0.2,0.8,0.3
									c0.5,0.1,1.2,0.4,2.1,0.6c4.5,1.5,8.9,3.4,13.1,5.7c0.8,0.5,1.4,0.8,1.9,1.1C238.1,83.1,238.4,83.3,238.6,83.4"/>
								<path id="Caminho_1633" class="st6" d="M252,63.9c4.5,2.1,8.2,5.6,10.6,10c-4.7,0.6-11.1,0.2-15.3-2s-7.6-5.6-9.8-9.8
									C242.4,61.2,247.5,61.8,252,63.9"/>
								<path id="Caminho_1634" class="st7" d="M256.1,70.5c-0.2-0.2-0.4-0.3-0.6-0.5c-0.4-0.3-1-0.7-1.8-1.2
									c-4.1-2.5-8.5-4.4-13.1-5.8c-0.9-0.3-1.6-0.4-2.1-0.6c-0.3-0.1-0.5-0.1-0.8-0.2c0.2,0.1,0.5,0.2,0.8,0.3
									c0.5,0.1,1.2,0.4,2.1,0.6c4.5,1.5,8.9,3.4,13.1,5.7c0.8,0.5,1.4,0.8,1.9,1.1C255.6,70.3,255.9,70.4,256.1,70.5"/>
								<path id="Caminho_1635" class="st6" d="M250,45c0.3-5-0.9-10-3.6-14.2c-2.8,3.9-5.5,9.8-5.6,14.5s1.2,9.4,3.8,13.4
									C247.8,54.8,249.7,50,250,45"/>
								<path id="Caminho_1636" class="st7" d="M246.2,38.2c0.1,0.3,0.1,0.5,0.1,0.8c0.1,0.5,0.1,1.3,0.1,2.2
									c0.2,4.8-0.3,9.7-1.3,14.4c-0.2,0.9-0.4,1.6-0.5,2.1c-0.1,0.3-0.1,0.5-0.2,0.8c0-0.3,0.1-0.5,0.1-0.8
									c0.1-0.5,0.3-1.2,0.4-2.2c0.4-1.8,0.8-4.3,1-7.2s0.3-5.4,0.3-7.2L246.2,38.2"/>
								<path id="Caminho_1637" class="st6" d="M232,56.4c0.3-5-0.9-10-3.6-14.2c-2.8,3.9-5.5,9.8-5.6,14.5s1.2,9.4,3.8,13.4
									C229.7,66.2,231.6,61.4,232,56.4"/>
								<path id="Caminho_1638" class="st7" d="M228.2,49.5c0.1,0.3,0.1,0.5,0.1,0.8c0.1,0.5,0.1,1.3,0.1,2.2
									c0.2,4.8-0.3,9.7-1.3,14.4c-0.2,0.9-0.4,1.6-0.5,2.1c-0.1,0.3-0.1,0.5-0.2,0.8c0-0.3,0.1-0.5,0.1-0.8
									c0.1-0.5,0.3-1.2,0.4-2.2c0.4-1.8,0.8-4.3,1-7.2s0.3-5.4,0.3-7.2L228.2,49.5"/>
								<path id="Caminho_1639" class="st7" d="M210.7,86.8c0.1-0.2,0.2-0.4,0.3-0.5l1-1.4l0.7-1l0.9-1.2c0.7-0.8,1.4-1.8,2.3-2.8
									l1.4-1.6c0.5-0.6,1-1.1,1.6-1.7c1.1-1.2,2.3-2.3,3.6-3.6c5.7-5.3,12.2-9.8,19.2-13.2c1.6-0.8,3.2-1.5,4.6-2.1l2.1-0.9l2-0.7
									c1.3-0.5,2.4-0.8,3.5-1.2c0.5-0.2,1-0.3,1.4-0.4l1.2-0.3l1.7-0.4c0.2-0.1,0.4-0.1,0.6-0.1c-0.2,0.1-0.4,0.1-0.6,0.2
									l-1.7,0.5l-1.2,0.3c-0.4,0.1-0.9,0.3-1.4,0.5c-1,0.3-2.2,0.7-3.4,1.2l-2,0.8l-2.1,0.9c-1.5,0.6-3,1.4-4.6,2.1
									c-7,3.5-13.4,7.9-19.1,13.2c-1.3,1.2-2.6,2.4-3.7,3.6c-0.6,0.6-1.1,1.1-1.6,1.7l-1.4,1.6c-0.9,1-1.7,2-2.4,2.8
									c-0.3,0.4-0.7,0.8-0.9,1.2l-0.8,1l-1.1,1.4C210.9,86.5,210.8,86.7,210.7,86.8"/>
								<path id="Caminho_1640" class="st6" d="M264.7,47.4c4.8-1.2,9.9-0.9,14.6,1c-3.3,3.4-8.6,7.2-13.2,8.2s-9.4,0.5-13.8-1.3
									C255.4,51.4,259.8,48.6,264.7,47.4"/>
								<path id="Caminho_1641" class="st7" d="M272,49.9h-0.8c-0.5,0-1.3,0.1-2.2,0.3c-4.8,0.7-9.4,2-13.9,3.9
									c-0.9,0.4-1.5,0.7-2,0.9c-0.2,0.1-0.5,0.2-0.7,0.4c0.3-0.1,0.5-0.2,0.8-0.3c0.5-0.2,1.2-0.5,2-0.8c1.7-0.7,4.1-1.5,6.8-2.3
									s5.2-1.3,7-1.6c0.9-0.2,1.6-0.3,2.2-0.4C271.5,50,271.8,49.9,272,49.9"/>
								<path id="Caminho_1642" class="st6" d="M194.5,37.9c3.5-4.4,8.2-7.7,13.6-9.3c-0.5,5.2-2.7,12.2-6.1,16.3
									c-3.4,4.1-8,7-13.1,8.5C189.1,47.7,191.1,42.3,194.5,37.9"/>
								<path id="Caminho_1643" class="st7" d="M202.7,34.9c-0.2,0.2-0.5,0.4-0.7,0.6l-1.7,1.7c-3.7,3.9-7,8.3-9.6,13
									c-0.5,0.9-0.9,1.6-1.2,2.2c-0.1,0.3-0.3,0.5-0.4,0.8c0.2-0.2,0.3-0.5,0.5-0.8c0.3-0.5,0.7-1.2,1.2-2.1
									c1.1-1.8,2.6-4.2,4.5-6.7s3.7-4.7,5.1-6.3c0.7-0.8,1.3-1.4,1.7-1.8C202.4,35.4,202.6,35.2,202.7,34.9"/>
								<path id="Caminho_1644" class="st6" d="M200.1,59.5c3.9-2.9,8.7-4.6,13.5-4.7c-1.7,4.3-5.1,9.7-8.9,12.3
									c-3.8,2.6-8.3,4.1-13,4.1C193.3,66.6,196.2,62.5,200.1,59.5"/>
								<path id="Caminho_1645" class="st7" d="M207.7,58.9c-0.2,0.1-0.5,0.2-0.7,0.3c-0.4,0.2-1.1,0.6-1.9,1.1
									c-4,2.5-7.8,5.4-11.1,8.8c-0.6,0.6-1.1,1.2-1.5,1.6c-0.2,0.2-0.4,0.4-0.5,0.6c0.2-0.2,0.4-0.3,0.6-0.5l1.5-1.5
									c1.3-1.3,3.1-2.9,5.3-4.7s4.2-3.1,5.8-4.1c0.8-0.5,1.4-0.9,1.8-1.1C207.3,59.2,207.5,59.1,207.7,58.9"/>
								<path id="Caminho_1646" class="st6" d="M183.7,53.9c-3.7-3.1-8.4-4.9-13.2-5.2c1.4,4.4,4.4,9.9,8.1,12.7
									c3.7,2.8,8.1,4.4,12.7,4.6C190.1,61.2,187.4,57,183.7,53.9"/>
								<path id="Caminho_1647" class="st7" d="M176.1,53c0.2,0.1,0.5,0.2,0.7,0.4c0.4,0.3,1,0.6,1.8,1.1c3.9,2.6,7.4,5.7,10.5,9.2
									c0.6,0.7,1.1,1.2,1.4,1.6c0.2,0.2,0.3,0.4,0.5,0.6c-0.2-0.2-0.4-0.4-0.5-0.6c-0.3-0.4-0.8-0.9-1.4-1.6
									c-3.2-3.4-6.7-6.5-10.5-9.2c-0.7-0.5-1.3-0.9-1.7-1.2C176.5,53.3,176.3,53.2,176.1,53"/>
								<path id="Caminho_1648" class="st6" d="M177.1,34.6c-4.3-2-9.2-2.5-13.8-1.5c2.4,3.8,6.7,8.2,10.8,9.9
									c4.2,1.7,8.8,2.1,13.2,1.1C184.9,39.9,181.4,36.6,177.1,34.6"/>
								<path id="Caminho_1649" class="st7" d="M169.7,35.7c0.3,0,0.5,0.1,0.7,0.2c0.5,0.1,1.2,0.3,2,0.6c4.3,1.5,8.5,3.5,12.3,6
									c0.7,0.5,1.3,0.9,1.7,1.2c0.2,0.1,0.4,0.3,0.6,0.5c-0.2-0.1-0.4-0.2-0.7-0.4c-0.4-0.3-1-0.6-1.7-1.1c-3.9-2.4-8-4.4-12.2-6
									c-0.8-0.3-1.5-0.5-2-0.7C170.1,35.9,169.9,35.8,169.7,35.7"/>
								<path id="Caminho_1650" class="st7" d="M189.7,112.4v-0.2l0.1-0.6c0.1-0.6,0.2-1.4,0.4-2.5c0.1-0.5,0.2-1.1,0.3-1.8l0.3-2.1
									c0.2-1.5,0.5-3.3,0.6-5.2l0.3-3c0.1-1.1,0.1-2.2,0.2-3.3c0.2-2.3,0.2-4.7,0.3-7.3c0.1-5.6-0.2-11.1-0.7-16.7
									c-0.6-5.5-1.4-11-2.6-16.4c-0.6-2.5-1.1-4.9-1.8-7c-0.3-1.1-0.6-2.2-0.9-3.2s-0.6-2-0.9-2.9c-0.6-1.8-1.2-3.5-1.7-4.9
									c-0.3-0.7-0.5-1.4-0.8-2s-0.5-1.2-0.7-1.7l-1-2.3l-0.2-0.6c0-0.1-0.1-0.1-0.1-0.2c0,0.1,0.1,0.1,0.1,0.2l0.3,0.6l1,2.3
									c0.2,0.5,0.5,1,0.7,1.6s0.5,1.3,0.8,2c0.5,1.4,1.2,3.1,1.8,4.9c0.3,0.9,0.6,1.9,1,2.9c0.3,1,0.6,2.1,0.9,3.2
									c0.7,2.2,1.2,4.6,1.8,7c1.2,5.4,2,10.9,2.6,16.5c0.5,5.5,0.7,11.1,0.6,16.7c-0.1,2.6-0.1,5-0.3,7.3
									c-0.1,1.1-0.1,2.2-0.2,3.3s-0.2,2.1-0.3,3c-0.2,1.9-0.5,3.7-0.7,5.2c-0.1,0.8-0.2,1.5-0.3,2.1c-0.1,0.7-0.2,1.2-0.3,1.8
									l-0.5,2.5c-0.1,0.3-0.1,0.5-0.1,0.6C189.8,112.2,189.8,112.3,189.7,112.4"/>
								<path id="Caminho_1651" class="st6" d="M140.5,70.8c-4.9,1-9.3,3.5-12.6,7.2c4.4,1.7,10.8,2.8,15.3,1.7
									c4.5-1.1,8.6-3.5,11.7-7C150.4,70.6,145.4,69.9,140.5,70.8"/>
								<path id="Caminho_1652" class="st7" d="M135,76.3c0.2-0.1,0.5-0.2,0.7-0.3c0.5-0.2,1.2-0.4,2.1-0.7
									c4.6-1.4,9.3-2.3,14.1-2.5c0.9,0,1.7-0.1,2.2-0.1h0.8c-0.3,0-0.5,0.1-0.8,0.1c-0.5,0-1.3,0.1-2.2,0.1
									c-4.8,0.3-9.5,1.2-14.1,2.5c-0.9,0.3-1.6,0.5-2.1,0.6C135.5,76.2,135.2,76.3,135,76.3"/>
								<path id="Caminho_1653" class="st6" d="M126.6,54.2c-4.9,1-9.3,3.5-12.6,7.2c4.4,1.7,10.8,2.8,15.3,1.7
									c4.6-1.1,8.7-3.6,11.8-7.2C136.5,53.8,131.4,53.2,126.6,54.2"/>
								<path id="Caminho_1654" class="st7" d="M121,59.6c0.2-0.1,0.5-0.2,0.7-0.3c0.5-0.2,1.2-0.4,2.1-0.7
									c4.6-1.4,9.3-2.3,14.1-2.5c0.9,0,1.7-0.1,2.2-0.1h0.8c-0.3,0-0.5,0.1-0.8,0.1c-0.5,0-1.3,0.1-2.2,0.1
									c-4.8,0.3-9.5,1.2-14.1,2.5c-0.9,0.3-1.6,0.5-2.1,0.6C121.5,59.5,121.3,59.6,121,59.6"/>
								<path id="Caminho_1655" class="st6" d="M133,36.3c0.9-4.9,3.3-9.5,6.9-12.9c1.8,4.4,3,10.8,2,15.4s-3.4,8.8-6.8,12.1
									C132.8,46.4,132.1,41.3,133,36.3"/>
								<path id="Caminho_1656" class="st7" d="M138.2,30.6c-0.1,0.2-0.2,0.5-0.3,0.8c-0.2,0.5-0.4,1.2-0.6,2.1
									c-1.3,4.7-2,9.5-2.2,14.3V50c0,0.3,0,0.5,0.1,0.8c0-0.3,0.1-0.5,0.1-0.8c0-0.5,0-1.3,0.1-2.2c0.1-1.8,0.3-4.4,0.7-7.2
									s1-5.3,1.4-7.1c0.2-0.9,0.4-1.6,0.6-2.1C138.1,31.1,138.2,30.8,138.2,30.6"/>
								<path id="Caminho_1657" class="st6" d="M147.8,51.6c0.9-4.9,3.3-9.5,6.9-12.9c1.8,4.4,3,10.8,2,15.4s-3.4,8.8-6.8,12.1
									C147.7,61.7,147,56.6,147.8,51.6"/>
								<path id="Caminho_1658" class="st7" d="M153.1,45.9c-0.1,0.2-0.2,0.5-0.3,0.8c-0.2,0.5-0.4,1.2-0.6,2.1
									c-1.3,4.7-2,9.5-2.2,14.3v2.2c0,0.3,0,0.5,0.1,0.8c0-0.3,0.1-0.5,0.1-0.8c0-0.5,0-1.3,0.1-2.2c0.1-1.8,0.3-4.4,0.7-7.2
									s1-5.3,1.4-7.1c0.2-0.9,0.4-1.6,0.6-2.1C153,46.4,153,46.1,153.1,45.9"/>
								<path id="Caminho_1659" class="st7" d="M161.3,86.2c-0.1-0.2-0.1-0.4-0.2-0.6c-0.2-0.4-0.4-0.9-0.6-1.6l-0.5-1.2
									c-0.2-0.4-0.4-0.9-0.6-1.4c-0.5-1-0.9-2.1-1.6-3.3l-1-1.9c-0.3-0.7-0.8-1.3-1.1-2c-0.8-1.4-1.7-2.8-2.7-4.3
									c-4.3-6.5-9.6-12.4-15.5-17.4c-1.4-1.1-2.7-2.2-4-3.2c-0.6-0.5-1.3-0.9-1.9-1.4l-1.8-1.2c-1.1-0.8-2.2-1.4-3.1-1.9
									c-0.5-0.3-0.9-0.5-1.3-0.8l-1.1-0.6l-1.5-0.8c-0.2-0.1-0.4-0.2-0.5-0.3c0.2,0.1,0.3,0.2,0.5,0.3l1.5,0.9l1.1,0.6
									c0.4,0.2,0.8,0.5,1.3,0.8c0.9,0.6,2,1.2,3.1,2l1.8,1.2c0.6,0.4,1.2,0.9,1.8,1.4c1.3,0.9,2.6,2,4,3.2
									c5.9,5,11.1,10.9,15.5,17.3c1,1.5,1.9,2.9,2.7,4.3c0.4,0.7,0.8,1.3,1.2,2l1,1.9c0.7,1.2,1.2,2.3,1.6,3.3
									c0.2,0.5,0.5,0.9,0.6,1.4l0.5,1.2l0.7,1.6C161.1,85.9,161.2,86.1,161.3,86.2"/>
								<path id="Caminho_1660" class="st6" d="M118.2,35.2c-4.4-2.3-9.4-3.2-14.4-2.5c2.4,4.1,6.7,9,10.9,11.1c4.3,2,9,2.7,13.7,2
									C126.2,41.2,122.6,37.5,118.2,35.2"/>
								<path id="Caminho_1661" class="st7" d="M110.4,35.8c0.3,0.1,0.5,0.1,0.8,0.2c0.5,0.2,1.2,0.4,2,0.8
									c4.5,1.8,8.7,4.2,12.6,7.1c0.7,0.6,1.3,1,1.7,1.3c0.2,0.2,0.4,0.3,0.6,0.5c-0.2-0.1-0.5-0.3-0.7-0.5c-0.4-0.3-1-0.7-1.8-1.3
									c-1.5-1.1-3.6-2.5-6.1-3.9c-2.1-1.2-4.2-2.2-6.4-3.2c-0.8-0.4-1.5-0.7-2-0.9C110.9,36.1,110.7,36,110.4,35.8"/>
								<rect id="Retângulo_1066" x="57" y="62.5" class="st8" width="282.1" height="191.7"/>
								<rect id="Retângulo_1067" x="66.9" y="71.2" class="st6" width="262.2" height="175.6"/>
								<path id="Caminho_1662" class="st7" d="M339.2,62.5l-0.6,0.6c-0.4,0.4-1.1,1-1.9,1.8l-7.5,6.8l0,0l-131,0.1L67,71.7l0,0
									l-7.3-6.8l-1.9-1.8l-0.6-0.6c0,0,0.2,0.2,0.7,0.6l1.9,1.7l7.3,6.7H67l131.2-0.1l131,0.1h-0.1l7.5-6.7l1.9-1.7
									C338.9,62.7,339.2,62.5,339.2,62.5"/>
								<path id="Caminho_1663" class="st7" d="M339.2,254.2c0,0-0.2-0.2-0.7-0.5l-1.9-1.4c-1.7-1.3-4.2-3.1-7.5-5.5h0.1l-131,0.1
									L67,246.8h0.1l-7.3,5.5l-1.9,1.4c-0.4,0.3-0.7,0.5-0.7,0.5s0.2-0.2,0.6-0.5l1.9-1.4l7.3-5.6l0,0l131.2-0.1l131,0.1l0,0
									l7.5,5.6l1.9,1.4C338.9,254.1,339.2,254.2,339.2,254.2"/>
								<path id="Caminho_1664" class="st7" d="M329.1,71.5c0.1,0,0.2,39.2,0.2,87.6s-0.1,87.6-0.2,87.6s-0.2-39.2-0.2-87.6
									S329,71.5,329.1,71.5"/>
								<rect id="Retângulo_1068" x="46.8" y="254.2" class="st8" width="306.8" height="6.3"/>
								<path id="Caminho_1665" class="st7" d="M354.4,254.6c0,0.1-68.8,0.2-153.6,0.2s-153.6-0.1-153.6-0.2s68.8-0.2,153.6-0.2
									C285.6,254.3,354.4,254.4,354.4,254.6"/>
								<path id="Caminho_1666" class="st7" d="M66.9,71.2c0.1,0,0.2,39.7,0.2,88.7s-0.1,88.7-0.2,88.7s-0.2-39.7-0.2-88.7
									S66.8,71.2,66.9,71.2"/>
							</g>
						</g>
					</g>
				</g>
			</g>
		</g>
	</g>
	<g id="Grupo_1880_00000012446476495848961340000006771695627327722649_">
		<g id="Grupo_1873_00000040564024659180029950000003618277301844018572_" transform="translate(117.88 187.709)" class="st9">
			<g id="Grupo_1872_00000132057129722974647880000013384940788479634085_">
				<g>
					<g>
						<defs>
							<rect id="SVGID_00000140701635568807243520000013592367617255392182_" x="-2.9" y="-24.7" width="169" height="3.8"/>
						</defs>
						<clipPath id="SVGID_00000010306677218533968630000015600377537330120364_">
							<use xlink:href="#SVGID_00000140701635568807243520000013592367617255392182_"  style="overflow:visible;"/>
						</clipPath>
						
							<g id="Grupo_1871_00000061444437753668437080000017258366272847050401_" style="clip-path:url(#SVGID_00000010306677218533968630000015600377537330120364_);">
							<path id="Caminho_1667_00000116950523979968872720000008794202016321246855_" class="st3" d="M166.1-23.7l-0.2-0.3l-0.9,0.3
								H166.1z"/>
							<path id="Caminho_1668_00000039852672942390511900000014076781220127694258_" class="st3" d="M157.4-24
								c-0.8,0.3-2.3,0.5-2.3,1l1.4-0.5c0.2,0.4,1.1,0.4,2,0.3h-0.9c0.2-0.1,0.1-0.3,0.3-0.4c1.4,0.2,1.8-0.4,3.1,0.1h-0.1l1-0.3
								c0.3,0.1,0.2,0.3,0.1,0.3c0.9-0.3,1.9-0.4,2.9-0.4c-1-0.8-2.8,0.6-3.7-0.2h0.1C160-23.7,158.6-24.2,157.4-24"/>
							<path id="Caminho_1669_00000134971228001826612320000017910464534645328305_" class="st3" d="M162-23.3L162-23.3
								C161.9-23.3,162-23.3,162-23.3"/>
							<path id="Caminho_1670_00000072278663498585902310000008412660380203948208_" class="st3" d="M111.5-24.4l-0.1,0.1
								C111.5-24.3,111.5-24.4,111.5-24.4"/>
							<path id="Caminho_1671_00000012434828483119443450000017968925729893922952_" class="st3" d="M126.9-22.9L126.9-22.9
								C126.7-22.8,126.8-22.8,126.9-22.9"/>
							<path id="Caminho_1672_00000015330623316508868270000017295124754740642490_" class="st3" d="M27.5-24.2l-0.3-0.2
								C27.2-24.3,27.4-24.2,27.5-24.2"/>
							<path id="Caminho_1673_00000124127341761507037500000016386783334012344483_" class="st3" d="M6.8-24.4L6.8-24.4L6.8-24.4"/>
							<path id="Caminho_1674_00000049918823500454317590000001823994793679141513_" class="st3" d="M16.2-22v0.2
								C16.3-22,16.3-22,16.2-22"/>
							<path id="Caminho_1675_00000179604190702499112240000003164937197684113086_" class="st3" d="M9.5-21.7
								c-0.2,0-0.4-0.1-0.6-0.1C9.1-21.7,9.3-21.7,9.5-21.7"/>
							<path id="Caminho_1676_00000116921255096980491730000000306431288825912746_" class="st3" d="M7-24.4c-0.1,0-0.1,0-0.2,0.1
								C6.8-24.4,6.9-24.4,7-24.4"/>
							<path id="Caminho_1677_00000172418730720594067740000003139308743697297303_" class="st3" d="M26.3-21.8l0.3,0.4
								C26.5-21.5,26.4-21.6,26.3-21.8"/>
							<path id="Caminho_1678_00000137129090770826040180000014749698097408473020_" class="st3" d="M7.8-21.4
								c-0.1-0.1-0.2-0.1-0.4-0.1C7.6-21.5,7.7-21.4,7.8-21.4"/>
							<path id="Caminho_1679_00000154399627311785189130000016917239265307681713_" class="st3" d="M156-23.9c0.2,0,0.4,0,0.7-0.1
								C156.4-24,156.2-24,156-23.9"/>
							<path id="Caminho_1680_00000041268191784230880030000009855974760463806863_" class="st3" d="M64-21.4
								c-0.1,0-0.1,0.1-0.1,0.2C64.1-21.3,64.1-21.3,64-21.4"/>
							<path id="Caminho_1681_00000167393858291804662040000001164382187533124509_" class="st3" d="M41.9-21.5L41.9-21.5
								C41.9-21.4,41.9-21.4,41.9-21.5L41.9-21.5z"/>
							<path id="Caminho_1682_00000136409464557730716450000002840999875764534691_" class="st3" d="M48.4-21.5
								C48.3-21.5,48.3-21.5,48.4-21.5L48.4-21.5"/>
							<path id="Caminho_1683_00000090260669713243025850000001892123863165484416_" class="st3" d="M37-21c-0.1,0-0.2,0.1-0.2,0.1
								L37-21z"/>
							<path id="Caminho_1684_00000042731874215454764670000008838204538050382989_" class="st3" d="M32.4-21.5
								c0.2,0.1,0,0.3-0.2,0.4c1.2,0.2,1.6-0.3,2.8,0l-0.6-0.2c1-0.3,2-0.3,2.9,0l-0.2,0.1c0.7-0.3,1.9,0.3,2.2,0
								c-0.3-0.2,0-0.3-0.5-0.4l1.9-0.3l0.1,0.5l1-0.2c-0.2-0.2,1.3,0.2,1.4-0.3c0.6,0.2-0.2,0.4-0.4,0.6c0.6-0.2,0.6,0.1,1.1-0.2
								l0.6,0.5l1.5-0.3c-0.1,0,0,0.1-0.1,0.1c0.7-0.4,1.7,0.2,2.5-0.5c0,0,0,0,0,0.1c0.5-0.4,1.6-0.1,2,0c0.8-0.1,0.3-0.5,0.3-0.7
								c2.2,0.1,1.5,0.1,3.3-0.5c1.1,0.6-1.3,1,0.1,1.4c0.7-0.4,1.5-0.6,2.2-0.6c1.2,0.2,2.5,0.4,3.6,0.8l-0.1-0.4l1.4-0.2l-0.8,0.6
								c0.2-0.1,0.9-0.4,1.4-0.6c1.5-0.3,0.8,0.8,2,0.3l0.1,0.1c0.4-0.3,1.3-0.2,2.4-0.3l-0.4,0.5l-0.7-0.1c0.4,0.5,1.2-0.1,1.9-0.1
								c0.7-0.2,0.4-0.6,0.8-0.7c0.3,0,0.7-0.1,0.9,0c0.6,0.2,0.1,0.6-0.1,0.8c0.6-0.5,0.7-0.4,2-0.6c0.1,0.2,0,0.3-0.2,0.4
								c0.2,0,0.5-0.2,0.6-0.4l0.4,0.3c1.4,0.4,1.4-0.9,3.1-0.8c-0.4,0.3,1.4-0.1,2,0.3c-0.6,0.1,0.3,0.7-0.1,1
								c1.3,0.2,0.5-0.6,1.6-0.7l-0.4,0.6c1-0.3,0.3-0.3,1.3-0.5c-0.3,0.2,0.5,0.2-0.2,0.4c1.4,0.1,1,0,2.3,0.1l0.1-0.6
								c0.3,0,0.5,0.1,0.7,0.3c-0.2,0-0.4,0-0.4,0.1c0.5,0.5,0.8-0.3,1.3,0.2c-0.1-0.2-0.3-0.5,0.2-0.5c-0.2,0.4,0.8,0.3,0.8,0.5
								c-0.3-0.3,1.1-0.1,1.2-0.5c0.6,0.3-0.2,0.3-0.2,0.5c0.5-0.5,2.1-0.1,2.5-0.3v0.1c0.6-0.3,1.6-0.4,2.9-0.8l-0.4,0.3
								c1.2,0.1,0.8-0.7,1.8-0.7c-0.2,0.5,1.7,0,1.2,0.5c0.6-0.2,1.2-0.5,1.7-0.8c0.6,0.3-1.1,0.7-0.3,0.8l0.9-0.3l0.2,0.3
								c0-0.2,0.8-0.2,0.8-0.4c0.1,0.3,0.5,0.5,0.5,0.8c0.6-0.1,1.3,0.2,1.8-0.1v0.2c0.5-0.6,1.7-0.1,2-0.7l0.3,0.3
								c0.8-0.1,0.7-0.7,1.1-0.8c0.4-0.1,0.7-0.1,1.1,0c-1.1,0.4,0.6,0.5,0.8,0.7c0.7,0,1.4-0.1,2.1-0.3c-0.5,0.3-0.2,0.6-1.1,0.6
								c0.5,0.6,1.4-0.1,2.5-0.1v0.3c1.5-0.2,1.5-0.7,2.2-1.1c0.2,0.3,0,0.4-0.4,0.8c1.2,0.1,2.5,0.1,3.7,0c0.4,0.2,0.1,0.4-0.3,0.5
								c1.2-0.3,2.6,0.1,3.3-0.5c-0.3,0.2,0.5,0.2,0.9,0.3c0-0.1,0.1-0.3,0.1-0.3c1-0.3,2.1-0.4,3.1-0.3l-0.3,0.2
								c1.9,0.1,2.8-0.9,4.9-0.5c0.4,0.1-0.4,0.5,0.4,0.5c0.4-0.2,0.3-0.7,1.2-0.6l-0.1,0.4l0.7-0.4c-0.3-0.3-1.4-0.2-0.7-0.6
								c0.9,0.4,0.8-0.4,1.8,0.1c-0.3,0.1-0.5,0.3-0.7,0.5c2.2,0.5,3.1-0.4,5.4,0.1c1.1-0.3,2.6-0.4,3.3-0.7c0,0.4-0.2,0.8-0.6,1.1
								c1,0.1,1.4-0.8,2.1-0.3c0.5-0.5,2.7-0.3,2.9-1.1c0,0.2,1,0,0,0.4c1.3-0.2,1.7,0.7,2.3,0.7c0.3,0-0.4-0.5,0.4-0.5
								c0.1,0,0.1,0.1,0.2,0.1l0.3-0.2c0.3,0.2-0.3,0.4-0.4,0.6c1.1,0.2,1.8-0.4,3.1-0.5l-0.2,0.1h1.3H147l1-0.3v0.2
								c0.2-0.1,0.3-0.2,0.6-0.2l-0.1,0.2c0.7-0.4,1.4-0.6,2.2-0.6l0.1,0.1l1.4-0.5c0.8,0.3-1,0.6,0.5,0.4l-0.4,0.5
								c1.1-0.2,1.2,0.1,2-0.1c-0.3-0.3-0.8-0.2-0.5-0.4c0.8,0.6,1.3-0.1,2.1-0.4c-0.3-0.1-0.7,0.1-1,0.3c-0.4,0-0.2-0.3-0.4-0.3
								l-0.6,0.3l-0.2-0.3l-1,0.3c0.1-0.4-1-0.1-0.6-0.5c-0.7,0.2-1.2-0.1-1.8,0.3c-0.5-0.2,0.8-0.3,0.3-0.3c-3,0.3-6,0.3-9,0.1
								l0.3-0.2c-0.3,0.2-0.7,0.3-0.9,0.5c-0.5-0.3-2.5-0.7-3.2-0.1c-0.1,0,0.1-0.1,0.1-0.2c-1,0.1-2.8-0.3-4.3-0.3
								c-0.6,0.6-2.2-0.4-2.7,0.5l0.3-0.2c0.5,0.2-0.7,0.6-0.9,0.8c-0.4-0.6,0-0.4-0.5-0.9l0.6,0.2l-0.1-0.5
								c-1.8,1.2-3.4-0.5-4.6,0.3c0.1,0,0.1-0.1,0.1-0.2c-0.8-0.3-1.3,0.3-1.9,0.5c-0.1-0.2,0.3-0.4,0.6-0.6
								c-1.3-0.2-3.6,0.4-5.1,0.1c-0.5,0.3,0.2,0.4-0.3,0.7c-0.5-0.1-0.8-0.3-0.2-0.5c-1.3-0.6-4.2,0.4-6.2-0.2
								c-1,0.3-0.4,0.5-2,0.7c0.4-0.2-0.4-0.8,0.6-0.8l0.1-0.2c-1.6,0-3.7-0.1-4.5,0.6c0-0.5-0.3-0.1-0.9-0.4
								c-0.2,0.1,0,0.1,0.1,0.1c-0.6,0.4-0.9,0-1.3,0.1l0.1-0.1l-1.1,0.3c-0.2-0.1-0.5-0.2-0.5-0.3v0.4c-0.6,0-0.3-0.4-1-0.4
								l0.2,0.3c-0.5-0.2-1.2,0.2-1.3-0.2c0-0.1,0.1,0,0.2-0.1c-0.7-0.5-1.9,0.2-2.9-0.1l0.2,0.6c-0.9,0.2-0.5-0.1-0.5-0.3
								c-0.6,0-0.7-0.2-1.5-0.2c-0.4,0.1-0.2,0.2-0.3,0.4L95.6-24l0.5-0.3c-1.2,0.8-3.1-0.1-4,0.7c-0.5-0.2,0.4-0.3,0.1-0.4
								c-1.5-0.4-3.3,0.5-4.5,0.1c-2-0.4-4.3,0-6.5-0.3v0.2l-1.6-0.1c-0.4,0.3-1.5,0.2-2.2,0.6c0.1-0.1-0.1-0.3,0.1-0.4
								c-0.6,0.1-1.2,0.1-1.8,0l0.2-0.1c-1.4-0.1-2.9-0.1-4.3,0.2c-0.5,0-0.5-0.2-0.6-0.4c-0.7,0-1.5,0.1-2.1,0.4
								c-0.2-0.1-0.4-0.2-0.6-0.3L68-23.7c-0.4-0.1-0.1-0.3-0.4-0.4c-1.3,0.4-2.9,0-3.9,0.1l0.1,0.2c-0.4,0.1-1.1-0.1-0.7-0.3
								c-1.9-0.2-2.8,0.6-5.3,0.5c-0.4-0.7-2.3,0.2-2.6-0.6c-1.1,0.2-1.8-0.1-2.5,0.3c0-0.1-0.1-0.1,0.1-0.1
								c-0.4-0.3-1.8-0.1-2.9,0.1l-0.1-0.2c-0.4,0.5-2.2,0.4-2.6,0.8c-0.1-0.1,0.2-0.2,0.4-0.3c-0.6-0.5-1,0.2-1.7,0.1
								c0.1-0.1-0.2-0.3,0-0.4c-2.4-0.5-5.8,0.4-9,0c-0.9,0,0.3,0.5-0.8,0.5c-0.3-0.3,0.6-0.5-0.2-0.6c-0.5,0.3-0.7,0.2-1.4,0.2
								c0.1-0.2,0-0.3,0.5-0.4c-0.4-0.2-1.7,0.4-2.5,0c0,0.2-0.1,0.2-0.3,0.3c-1.2,0.4-2.7-0.4-2.8-0.2c0,0-0.4,0.1-0.1,0.1
								c-0.4,0-1.1-0.1-0.9-0.3c-0.2,0.2-0.5,0.3-0.8,0.4l0.2-0.3c-0.2,0.1-0.4,0.2-0.6,0.3l0.3,0.2c-0.5-0.2-1.5,0.3-1.4-0.2h0.2
								l-0.9-0.2c-0.4,0.3-0.9,0.4-1.4,0.4c-0.2-0.6-1.6-0.1-2.4-0.2v-0.2c-0.6,0.3-2.2,0.2-1.9,0.3c-0.6,0-1.4-0.1-1.1-0.3
								c-0.5,0.1-1.5,0.1-1.8,0.4l-1-0.5c-0.6,0.7-2-0.3-2,0.5c-0.5-0.1-0.4-0.3-0.8-0.4c-0.7,0.3-1.6,0.4-2.3,0.2V-24
								c-0.8-0.1-1.7,0.3-2.8,0.4l-0.2-0.6c-0.6,0.1-0.7,0.5-1.3,0.4c-0.1-0.1,0-0.1,0.1-0.1c-0.6,0.1-1.1,0-1.7-0.2
								c-0.8,0.4-1.5,0.3-2.2,0.7c-0.7-0.5,1-0.2,0.4-0.7c-1.2-0.2-2.5-0.1-3.7,0.3c-0.1-0.1,0-0.2,0.1-0.3c0,0-2.7,1.4-2.2,1.9
								c-0.3,0.4-0.7,0.6,0.4,0.9c0.4-0.2,1.4-0.5,1.6-0.1l0.1-0.4C0.8-22-0.6-21,1.2-21l-0.4-0.1c0.3,0,0.6-0.3,1-0.1
								c0.1,0.1-0.1,0.2-0.3,0.3L3-21.4c0.1,0.2,0,0.4-0.3,0.5c1.4,0-0.3-0.7,1.4-0.6c0.3,0.2-0.1,0.2-0.3,0.4
								c0.8,0.3,1.3,0,2.1-0.2c0,0.4-0.5,0.3,0.1,0.5c-0.1-0.2-0.2-0.5,0.3-0.5c-0.2,0.4,0.4,0.2,0.9,0.3c-0.1-0.1-0.1-0.2,0-0.3
								c0,0,0.1,0,0.1-0.1c0.2-0.1,0.5,0.1,0.8,0.1l-0.6-0.3c0.9-0.3,1.3,0.2,2,0.3c-0.1,0.1-0.2,0.1-0.3,0.1
								c0.7,0.3,1.5,0.3,2.3,0.1h-0.1c1.6-0.3-0.5-0.6,1.4-0.9c0.6,0.1-0.3,1.2,1.1,0.7c-0.7-0.3,0.9-0.7,1.8-0.9l-0.8,0.7
								c0.4-0.1,0.7-0.1,1.1-0.1v-0.2c-0.1-0.6,1.1,0.1,1.7-0.3c-0.7,0.8-0.8,0.6-0.9,1.4c0.6-0.5,1.5-0.8,2.3-0.7l-0.9,0.6
								c1.4,0.1,3.1-0.8,4.2-1.3c-0.3,0.5,0.2,0.6-0.3,1l1.4-0.1l-0.4,0.5c0.6-0.5,1.2-0.2,1.1-0.8c-0.1,0.1-0.1,0.2-0.4,0.1
								c0-0.2,0.3-0.6,1-0.6c0.5,0.2-0.3,0.3-0.1,0.4c0.4-0.3,0.5,0.2,0.9,0l-0.4-0.3c0.3-0.4,0.8,0,1.2-0.2
								c-0.6,0.2-0.4,0.4-0.2,0.6l0,0c0.3,0,0.8-0.3,1-0.1l-0.3,0.5l0.5-0.4c0.2,0.1,0.3,0.3,0,0.4c1.5,0.3,0-1.1,2-0.6
								c0,0.2-0.3,0.3-0.8,0.2c-0.1,0.3,0,0.5,0.6,0.6c0,0,0,0,0,0.1C30.4-21,31.4-21.2,32.4-21.5"/>
							<path id="Caminho_1685_00000169528820242672239420000008459493987657923251_" class="st3" d="M29.2-21.1
								c-0.4,0-0.8,0-1.3,0.1C28.1-21,29.3-20.8,29.2-21.1"/>
							<path id="Caminho_1686_00000135667689855110792360000003968036674527925427_" class="st3" d="M112.2-21.7
								c-0.1,0-0.1,0-0.2,0.1C112.1-21.7,112.2-21.7,112.2-21.7"/>
							<path id="Caminho_1687_00000123420804108362510730000000679908851575939725_" class="st3" d="M116.7-21.9
								c-0.1-0.1-0.1-0.1-0.2-0.1C116.5-21.9,116.5-21.8,116.7-21.9"/>
							<path id="Caminho_1688_00000175323680852001881210000011016672541194420611_" class="st3" d="M70.5-21.5L70.5-21.5L70.5-21.5
								"/>
							<path id="Caminho_1689_00000181797021996642074550000000869316240286217658_" class="st3" d="M95.9-21.4
								c0.4-0.2,0.5-0.3,0.6-0.4C96.2-21.8,96-21.6,95.9-21.4"/>
							<path id="Caminho_1690_00000047749678013502668170000007522497835027375782_" class="st3" d="M87.3-21.6
								c-0.1,0-0.1,0.1-0.2,0.1C87.3-21.5,87.3-21.6,87.3-21.6"/>
							<path id="Caminho_1691_00000024691741491981282680000010188572696485686413_" class="st3" d="M69.2-21.3
								c0.4-0.1,0.9-0.2,1.3-0.3C70.1-21.4,69.4-21.6,69.2-21.3"/>
							<path id="Caminho_1692_00000077311368878955319660000003575529762680518309_" class="st3" d="M122.1-22.4l-0.4,0.3
								L122.1-22.4L122.1-22.4z"/>
							<path id="Caminho_1693_00000054227830827372865120000004505215412405519488_" class="st3" d="M118-22.3
								c-0.2-0.1-0.9,0.1-0.7,0.2C117.5-22.1,117.7-22.2,118-22.3"/>
							<path id="Caminho_1694_00000000902588351956217780000015301147272851324307_" class="st3" d="M102-22.5l-0.2,0.3l0.4-0.2
								L102-22.5z"/>
						</g>
					</g>
				</g>
			</g>
		</g>
		<g id="Grupo_1876_00000008150742936441242410000017711949480914658966_" transform="translate(119.723 192.075)" class="st9">
			<g id="Grupo_1875_00000172439504619288861810000018224932608598222498_">
				<g>
					<g>
						<defs>
							<rect id="SVGID_00000021089659343195737660000013308175942300255921_" x="-2.9" y="-24.7" width="50.4" height="3.8"/>
						</defs>
						<clipPath id="SVGID_00000084519610607486431400000008112240203819007147_">
							<use xlink:href="#SVGID_00000021089659343195737660000013308175942300255921_"  style="overflow:visible;"/>
						</clipPath>
						
							<g id="Grupo_1874_00000094579964165658521720000001985125185854832825_" style="clip-path:url(#SVGID_00000084519610607486431400000008112240203819007147_);">
							<path id="Caminho_1695_00000042727999151508308000000016464138410299811254_" class="st3" d="M47.5-23.7V-24l-0.3,0.3H47.5z"
								/>
							<path id="Caminho_1696_00000109011094193699778220000006062489050473726607_" class="st3" d="M44.9-24
								c-0.2,0.3-0.7,0.5-0.7,1l0.4-0.5c0.1,0.4,0.3,0.4,0.6,0.3h-0.3c0.1-0.1,0-0.3,0.1-0.4c0.4,0.2,0.5-0.4,0.9,0.1l0,0l0.3-0.3
								c0.1,0.1,0.1,0.3,0,0.3c0.3-0.2,0.5-0.4,0.9-0.4c-0.3-0.8-0.8,0.6-1.1-0.2l0,0C45.7-23.7,45.3-24.2,44.9-24"/>
							<path id="Caminho_1697_00000172429966438828223560000015237531480603420840_" class="st3" d="M46.3-23.3L46.3-23.3L46.3-23.3
								"/>
							<path id="Caminho_1698_00000021093855249030961290000002473959200883789749_" class="st3" d="M31.2-24.4v0.1V-24.4"/>
							<path id="Caminho_1699_00000140698423385327902720000008889612900977977018_" class="st3" d="M35.8-22.9L35.8-22.9
								C35.8-22.8,35.8-22.8,35.8-22.9"/>
							<path id="Caminho_1700_00000080183645985529906230000007484405885836215942_" class="st3" d="M6.2-24.2l-0.1-0.2
								C6.1-24.3,6.1-24.2,6.2-24.2"/>
							<path id="Caminho_1701_00000166656171731407052470000009394827542113319562_" class="st3" d="M0-24.4L0-24.4L0-24.4"/>
							<path id="Caminho_1702_00000165913530685094673850000006267753559919350966_" class="st3" d="M2.8-22v0.2
								C2.8-22,2.8-22,2.8-22"/>
							<path id="Caminho_1703_00000149341772934021358300000002299978528351065782_" class="st3" d="M0.8-21.7c0,0-0.1-0.1-0.2-0.1
								C0.7-21.7,0.7-21.7,0.8-21.7"/>
							<path id="Caminho_1704_00000146488216173166895720000014685621910749820043_" class="st3" d="M0-24.4L0-24.4L0-24.4"/>
							<path id="Caminho_1705_00000065035728378706291970000010158317178561051568_" class="st3" d="M5.8-21.8l0.1,0.4
								C5.9-21.5,5.8-21.6,5.8-21.8"/>
							<path id="Caminho_1706_00000070802843002196710090000014715697964609477279_" class="st3" d="M0.3-21.4
								c0-0.1-0.1-0.1-0.1-0.1L0.3-21.4"/>
							<path id="Caminho_1707_00000008149846516983105530000008867242265395799229_" class="st3" d="M44.5-23.9c0.1,0,0.1,0,0.2-0.1
								C44.6-24,44.5-24,44.5-23.9"/>
							<path id="Caminho_1708_00000131353796378276482360000012099819626480962996_" class="st3" d="M17.1-21.4c0,0,0,0.1,0,0.2
								C17.1-21.3,17.1-21.3,17.1-21.4"/>
							<path id="Caminho_1709_00000137128699458938636080000006669554885773971600_" class="st3" d="M10.5-21.5L10.5-21.5
								C10.5-21.4,10.5-21.4,10.5-21.5L10.5-21.5z"/>
							<path id="Caminho_1710_00000040570884805814234050000008930189606248056961_" class="st3" d="M12.4-21.5L12.4-21.5L12.4-21.5
								"/>
							<path id="Caminho_1711_00000143580278276191207480000017256242747283526832_" class="st3" d="M9-21l-0.1,0.1L9-21z"/>
							<path id="Caminho_1712_00000160900046825649528800000017864370268735562425_" class="st3" d="M7.6-21.5c0,0.1,0,0.3-0.1,0.4
								c0.3,0.2,0.5-0.3,0.8,0l-0.2-0.2c0.1-0.2,0.5-0.3,0.7-0.2c0.1,0,0.1,0.1,0.2,0.2l-0.1,0.1c0.2-0.3,0.6,0.3,0.7,0
								c-0.1-0.2,0-0.3-0.1-0.4l0.6-0.3v0.5l0.3-0.2c-0.1-0.2,0.4,0.2,0.4-0.3c0.2,0.2-0.1,0.4-0.1,0.6c0.2-0.2,0.2,0.1,0.3-0.2
								l0.2,0.5l0.4-0.3v0.1c0.2-0.4,0.5,0.2,0.8-0.5v0.1c0.1-0.4,0.5-0.1,0.6,0c0.2-0.1,0.1-0.5,0.1-0.7c0.7,0.1,0.4,0.1,1-0.5
								c0.3,0.6-0.4,1,0,1.4c0.1-0.3,0.4-0.5,0.7-0.6c0.4,0.2,0.8,0.4,1.1,0.8v-0.4l0.4-0.2l-0.2,0.6c0.1-0.2,0.3-0.4,0.4-0.6
								c0.4-0.3,0.2,0.8,0.6,0.3v0.1c0.1-0.3,0.4-0.2,0.7-0.3l-0.1,0.5l-0.2-0.1c0.1,0.5,0.4-0.1,0.6-0.1c0.2-0.2,0.1-0.6,0.2-0.7
								c0.1,0,0.2-0.1,0.3,0c0.2,0.2,0,0.6,0,0.8c0.2-0.5,0.2-0.4,0.6-0.6c0,0.2,0,0.3-0.1,0.4c0.1-0.1,0.2-0.2,0.2-0.4l0.1,0.3
								c0.4,0.4,0.4-0.9,0.9-0.8c-0.1,0.3,0.4-0.1,0.6,0.3c-0.2,0.1,0.1,0.7,0,1c0.4,0.2,0.2-0.6,0.5-0.7l-0.1,0.6
								c0.3-0.3,0.1-0.3,0.4-0.5c-0.1,0.2,0.1,0.2,0,0.4c0.4,0.1,0.3,0,0.7,0.1v-0.6c0.1-0.1,0.2,0.2,0.2,0.3c-0.1,0-0.1,0-0.1,0.1
								c0.1,0.5,0.2-0.3,0.4,0.2c0-0.2-0.1-0.5,0.1-0.5c0,0.4,0.2,0.3,0.2,0.5c-0.1-0.3,0.3-0.1,0.3-0.5c0.2,0.3-0.1,0.3-0.1,0.5
								c0.1-0.5,0.6-0.1,0.7-0.3v0.1c0.2-0.3,0.5-0.4,0.9-0.8l-0.1,0.3c0.4,0.1,0.2-0.7,0.5-0.7c-0.1,0.5,0.5,0,0.4,0.5
								c0.2-0.2,0.4-0.5,0.5-0.8c0.2,0.3-0.3,0.7-0.1,0.8l0.3-0.3v0.3c0-0.2,0.2-0.2,0.2-0.4c0.1,0.3,0.1,0.5,0.1,0.8
								c0.2-0.1,0.4,0.2,0.5-0.1v0.2c0.2-0.6,0.5-0.1,0.6-0.7L28-22c0.3-0.1,0.2-0.7,0.3-0.8c0.1,0,0.2-0.1,0.3,0
								c-0.3,0.4,0.2,0.5,0.2,0.7c0.3,0,0.5-0.1,0.6-0.3c-0.2,0.3-0.1,0.6-0.3,0.6c0.1,0.6,0.4-0.1,0.7-0.1v0.3
								c0.4-0.2,0.5-0.7,0.7-1.1c0,0.3,0,0.5-0.1,0.8c0.3,0.2,0.8,0,1.1,0c0.1,0.2,0.1,0.4-0.1,0.5c0.3-0.3,0.8,0.1,1-0.5
								c-0.1,0.2,0.1,0.2,0.3,0.3c0-0.1,0-0.3,0-0.3c0.2-0.2,0.7-0.5,0.9-0.3L33.5-22c0.6,0.1,0.8-0.9,1.5-0.5
								c0.1,0.1-0.1,0.5,0.1,0.5c0.1-0.2,0.1-0.7,0.4-0.6v0.4l0.2-0.4c-0.1-0.3-0.4-0.2-0.2-0.6c0.3,0.4,0.2-0.4,0.5,0.1
								c-0.1,0.2-0.2,0.3-0.2,0.5c0.7,0.5,0.9-0.4,1.6,0.1c0.3-0.3,0.8-0.4,1-0.7c0,0.4,0,0.7-0.2,1.1c0.3,0.1,0.4-0.8,0.6-0.3
								c0.1-0.5,0.8-0.3,0.9-1.1c0,0.2,0.3,0,0,0.4c0.4-0.2,0.5,0.7,0.7,0.7c0.1,0-0.1-0.5,0.1-0.5c0,0,0,0.1,0.1,0.1l0.1-0.2
								c0.1,0.2-0.1,0.4-0.1,0.6c0.3,0.2,0.5-0.4,0.9-0.5l-0.1,0.1h0.4l0,0l0.3-0.3v0.2c0.1-0.1,0.1-0.2,0.2-0.2v0.2
								c0.1-0.3,0.3-0.5,0.6-0.6v0.1l0.4-0.5c0.2,0.3-0.3,0.6,0.2,0.4L43.4-23c0.3-0.2,0.4,0.1,0.6-0.1c-0.1-0.3-0.2-0.2-0.1-0.4
								c0.3,0.6,0.4-0.1,0.6-0.4c-0.1,0-0.2,0-0.3,0.3c-0.1,0,0-0.3-0.1-0.3l-0.2,0.3l-0.1-0.3l-0.3,0.3c0-0.4-0.3-0.1-0.2-0.5
								c-0.2,0.2-0.3-0.1-0.5,0.3c-0.1-0.2,0.2-0.3,0.1-0.3c-0.9,0.3-1.8,0.3-2.7,0.1l0.1-0.2c-0.1,0.2-0.2,0.3-0.3,0.5
								c-0.2-0.3-0.8-0.7-1-0.1c0,0,0-0.1,0-0.2c-0.3,0.1-0.8-0.3-1.3-0.3c-0.2,0.6-0.6-0.4-0.8,0.5L37-24c0.1,0.2-0.2,0.6-0.3,0.8
								c-0.1-0.6,0-0.4-0.2-0.9l0.2,0.2v-0.5c-0.5,1.2-1-0.5-1.4,0.3c0,0,0-0.1,0-0.2c-0.2-0.3-0.4,0.3-0.6,0.5
								c0-0.2,0.1-0.4,0.2-0.6c-0.4-0.2-1.1,0.4-1.5,0.1c-0.2,0.3,0.1,0.4-0.1,0.7c-0.2-0.1-0.2-0.3-0.1-0.5l0,0
								c-0.4-0.6-1.3,0.4-1.8-0.2c-0.3,0.3-0.1,0.5-0.6,0.7c0.1-0.2-0.1-0.8,0.2-0.8v-0.2c-0.5,0-1.1-0.1-1.3,0.6
								c0-0.5-0.1-0.1-0.3-0.4c-0.1,0.1,0,0.1,0,0.1c-0.2,0.4-0.3,0-0.4,0.1v-0.1L28.7-24c-0.1-0.1-0.1-0.2-0.2-0.3v0.4
								c-0.2,0-0.1-0.4-0.3-0.4v0.3c-0.1-0.2-0.4,0.2-0.4-0.2c0-0.1,0,0,0.1-0.1c-0.2-0.5-0.6,0.2-0.9-0.1l0.1,0.6
								c-0.3,0.2-0.2-0.1-0.2-0.3c-0.2,0-0.2-0.2-0.5-0.2c-0.1,0.1-0.1,0.2-0.1,0.4L26.1-24l0.2-0.3c-0.4,0.8-0.9-0.1-1.2,0.7
								c-0.1-0.2,0.1-0.3,0-0.4c-0.4-0.4-1,0.5-1.4,0.1c-0.6-0.4-1.3,0-1.9-0.3v0.2l-0.5-0.1c-0.1,0.3-0.4,0.2-0.6,0.6
								c0-0.1,0-0.3,0-0.4c-0.2,0-0.4,0.2-0.5,0l0.1-0.1c-0.4-0.1-1.1-0.1-1.3,0.2c-0.2,0-0.1-0.2-0.2-0.4c-0.3,0-0.4,0.1-0.6,0.4
								c-0.1-0.1-0.1-0.2-0.2-0.3l-0.1,0.4c-0.1-0.1,0-0.3-0.1-0.4c-0.4,0.4-0.9,0-1.1,0.1v0.2c-0.1,0.1-0.3-0.1-0.2-0.3
								c-0.6-0.2-0.8,0.6-1.6,0.5c-0.1-0.7-0.7,0.2-0.8-0.6c-0.3,0.2-0.5-0.1-0.7,0.3c0-0.1,0-0.1,0-0.1c-0.1-0.3-0.5-0.1-0.9,0.1
								v-0.2c-0.1,0.5-0.7,0.4-0.8,0.8c0-0.1,0.1-0.2,0.1-0.3c-0.2-0.5-0.3,0.2-0.5,0.1c0-0.1,0-0.3,0-0.4c-0.7-0.5-1.7,0.4-2.7,0
								c-0.3,0,0.1,0.5-0.2,0.5c-0.1-0.3,0.2-0.5,0-0.6c-0.2,0.3-0.2,0.2-0.4,0.2c0-0.2,0-0.3,0.1-0.4c-0.1-0.2-0.5,0.4-0.7,0
								c0,0.1,0,0.2-0.1,0.3c-0.4,0.4-0.8-0.4-0.8-0.2c0,0-0.1,0.1,0,0.1c-0.2,0-0.3-0.1-0.3-0.3c0,0,0,0,0-0.1
								C6.1-24.3,6.1-24.1,6-24l0.1-0.3C6-24.2,6-24.1,5.9-24L6-23.8C5.9-24,5.6-23.5,5.6-24h0.1l-0.3-0.2C5.3-24,5.2-23.8,5-23.8
								c-0.1-0.6-0.5-0.1-0.7-0.2v-0.2c-0.2,0.3-0.7,0.2-0.6,0.3c-0.2,0-0.4-0.1-0.3-0.3c-0.1,0.1-0.5,0.1-0.5,0.4l-0.3-0.5
								C2.4-23.6,2-24.6,2-23.8c-0.2-0.1-0.1-0.3-0.2-0.4c-0.1,0.3-0.4,0.4-0.7,0.2l0,0v-0.1c-0.2-0.1-0.5,0.3-0.8,0.4l-0.1-0.6
								C0-24.2,0-23.8-0.2-23.9V-24l0,0c-0.2,0.1-0.4,0-0.5-0.2c-0.2,0.4-0.4,0.3-0.7,0.7c-0.2-0.5,0.3-0.2,0.1-0.7
								c-0.4-0.3-0.7,0-1.1,0.3c0-0.1,0-0.2,0-0.3c0,0-0.8,1.4-0.6,1.9c-0.1,0.4-0.2,0.6,0.1,0.9c0.1-0.2,0.4-0.5,0.5-0.1v-0.4
								c0.4-0.2,0,0.8,0.6,0.8l-0.1-0.1c0.1,0,0.2-0.3,0.3-0.1c0,0.1,0,0.2-0.1,0.3l0.4-0.5c0,0.2,0,0.4-0.1,0.5
								c0.4,0-0.1-0.7,0.4-0.6c0.1,0.2,0,0.2-0.1,0.4c0.2,0.3,0.4,0,0.6-0.2c0,0.4-0.2,0.3,0,0.5c0-0.2-0.1-0.5,0.1-0.5
								c-0.1,0.4,0.1,0.2,0.3,0.3c0-0.1,0-0.2,0-0.4C0-21.6,0-21.4,0.1-21.4l-0.2-0.3c0.3-0.3,0.4,0.2,0.6,0.3c0,0.1,0,0.1-0.1,0.1
								c0.2,0.1,0.4,0.4,0.7,0.1l0,0c0.5-0.3-0.1-0.6,0.4-0.9c0.2,0.1-0.1,1.2,0.3,0.7c-0.2-0.3,0.3-0.7,0.5-0.9L2-21.6
								c0.1,0,0.3-0.2,0.3-0.1v-0.2c0-0.6,0.3,0.1,0.5-0.3c-0.2,0.5-0.3,0.9-0.3,1.4c0.2-0.4,0.4-0.8,0.7-0.7l-0.3,0.6
								c0.4,0.1,0.9-0.8,1.3-1.3c-0.1,0.5,0,0.6-0.1,1l0.4-0.1l-0.1,0.5c0.2-0.5,0.3-0.2,0.3-0.8c0,0.1,0,0.2-0.1,0.1
								c0-0.2,0.1-0.6,0.3-0.6c0.1,0.2-0.1,0.3,0,0.4C5-22,5-21.5,5.2-21.7L5.1-22c0.1-0.4,0.2,0,0.4-0.2c-0.2,0.2-0.1,0.4,0,0.6
								l0,0c0.1,0,0.2-0.3,0.3-0.1l-0.1,0.5l0.1-0.4c0.1,0.1,0.1,0.2,0,0.4c0.5,0.3,0-1.1,0.6-0.6c0,0.2-0.1,0.3-0.2,0.2
								c0,0.3,0,0.5,0.2,0.6c0,0,0,0,0,0.1C7-21.1,7.4-21.1,7.6-21.5"/>
							<path id="Caminho_1713_00000030488104474551360370000018103216213164221838_" class="st3" d="M6.7-21.1c-0.2,0-0.3,0-0.4,0.1
								C6.3-21,6.7-20.8,6.7-21.1"/>
							<path id="Caminho_1714_00000036933718584132363050000004375891578382579853_" class="st3" d="M31.4-21.7L31.4-21.7L31.4-21.7
								"/>
							<path id="Caminho_1715_00000080182632704947125360000013298814699902869170_" class="st3" d="M32.8-21.9c0,0,0-0.1-0.1-0.1
								C32.7-21.9,32.7-21.8,32.8-21.9"/>
							<path id="Caminho_1716_00000034060759700957392720000006117560053525222825_" class="st3" d="M19-21.5L19-21.5L19-21.5"/>
							<path id="Caminho_1717_00000183226276321355646040000016614013580002383770_" class="st3" d="M26.6-21.4
								c0.1-0.1,0.2-0.3,0.2-0.4C26.7-21.8,26.6-21.7,26.6-21.4"/>
							<path id="Caminho_1718_00000055707055368654387460000009244532901526450612_" class="st3" d="M24-21.6
								C24-21.6,24-21.5,24-21.6C24-21.5,24-21.6,24-21.6"/>
							<path id="Caminho_1719_00000051360160143417740270000006306375893990261404_" class="st3" d="M18.6-21.3
								c0.1-0.2,0.3-0.2,0.4-0.3C18.9-21.4,18.7-21.6,18.6-21.3"/>
							<path id="Caminho_1720_00000010303441647470912720000013774727878599599278_" class="st3" d="M34.4-22.4l-0.1,0.3L34.4-22.4
								L34.4-22.4z"/>
							<path id="Caminho_1721_00000102537249042704084440000009398445627854665381_" class="st3" d="M33.1-22.3
								c-0.1-0.1-0.3,0.1-0.2,0.2C33-22.1,33.1-22.2,33.1-22.3"/>
							<path id="Caminho_1722_00000057130102396500482330000004047934412985635249_" class="st3" d="M28.4-22.5l-0.1,0.3L28.4-22.5
								L28.4-22.5z"/>
						</g>
					</g>
				</g>
			</g>
		</g>
		<g id="Grupo_1879_00000008827166702076933780000008866530090251655056_" transform="translate(226.773 192.075)" class="st9">
			<g id="Grupo_1878_00000029742812013598073040000013412626107879150522_">
				<g>
					<g>
						<defs>
							<rect id="SVGID_00000047018150164102425840000001122602187380067242_" x="-2.9" y="-24.7" width="56.1" height="3.8"/>
						</defs>
						<clipPath id="SVGID_00000099628030355940404800000002082054913651274892_">
							<use xlink:href="#SVGID_00000047018150164102425840000001122602187380067242_"  style="overflow:visible;"/>
						</clipPath>
						
							<g id="Grupo_1877_00000058577383574436520150000009257641931528990340_" style="clip-path:url(#SVGID_00000099628030355940404800000002082054913651274892_);">
							<path id="Caminho_1723_00000084530776311675218040000001942529337187115924_" class="st3" d="M53.2-23.7L53.1-24l-0.3,0.3
								H53.2z"/>
							<path id="Caminho_1724_00000169518827583700905110000004875238778206196919_" class="st3" d="M50.3-24
								c-0.3,0.3-0.8,0.5-0.8,1l0.5-0.5c0.1,0.4,0.4,0.4,0.6,0.3h-0.3c0.1-0.1,0-0.3,0.1-0.4c0.5,0.2,0.6-0.4,1,0.1l0,0l0.3-0.3
								c0.1,0.1,0.1,0.3,0,0.3c0.3-0.3,0.6-0.4,1-0.4c-0.3-0.8-0.9,0.6-1.2-0.2l0,0C51.2-23.7,50.7-24.2,50.3-24"/>
							<path id="Caminho_1725_00000116235396349389330590000002364679187508216474_" class="st3" d="M51.8-23.3L51.8-23.3L51.8-23.3
								"/>
							<path id="Caminho_1726_00000062881201463493064660000006379221085723848583_" class="st3" d="M35-24.4v0.1
								C35-24.3,35.1-24.4,35-24.4"/>
							<path id="Caminho_1727_00000011754222953725454490000012005054267703826857_" class="st3" d="M40.2-22.9L40.2-22.9
								C40.1-22.8,40.1-22.8,40.2-22.9"/>
							<path id="Caminho_1728_00000122707571710841052850000008837009238949843880_" class="st3" d="M7.2-24.2l-0.1-0.2
								C7.1-24.3,7.1-24.2,7.2-24.2"/>
							<path id="Caminho_1729_00000020362519287336064270000016914659164669713062_" class="st3" d="M0.3-24.4L0.3-24.4L0.3-24.4"/>
							<path id="Caminho_1730_00000062881381010897789980000013272345781534957444_" class="st3" d="M3.4-22v0.2
								C3.5-22,3.5-22,3.4-22"/>
							<path id="Caminho_1731_00000026148272735479101560000012050105186788495500_" class="st3" d="M1.2-21.7
								c-0.1,0-0.1-0.1-0.2-0.1C1.1-21.7,1.1-21.7,1.2-21.7L1.2-21.7"/>
							<path id="Caminho_1732_00000031200949441844288170000012066049982469081501_" class="st3" d="M0.4-24.4
								C0.4-24.4,0.3-24.4,0.4-24.4C0.3-24.4,0.4-24.4,0.4-24.4"/>
							<path id="Caminho_1733_00000155120372411137784870000013513628988435300028_" class="st3" d="M6.8-21.8l0.1,0.4
								C6.9-21.5,6.8-21.6,6.8-21.8"/>
							<path id="Caminho_1734_00000057150246538670523600000013924148860872796321_" class="st3" d="M0.7-21.4
								c0-0.1-0.1-0.1-0.1-0.1S0.6-21.4,0.7-21.4"/>
							<path id="Caminho_1735_00000064342539057817176320000008483758321480233139_" class="st3" d="M49.8-23.9c0.1,0,0.2,0,0.2-0.1
								C50-24,49.9-24,49.8-23.9"/>
							<path id="Caminho_1736_00000019666548614879722580000017021379532697243310_" class="st3" d="M19.3-21.4c0,0,0,0.1,0,0.2
								C19.3-21.3,19.3-21.3,19.3-21.4"/>
							<path id="Caminho_1737_00000173123853123034483580000016100908870868951191_" class="st3" d="M12-21.5L12-21.5
								C12-21.4,12-21.4,12-21.5L12-21.5z"/>
							<path id="Caminho_1738_00000048490969199299527540000012736361864748009605_" class="st3" d="M14.1-21.5L14.1-21.5L14.1-21.5
								"/>
							<path id="Caminho_1739_00000157986643034835603070000013744803706039098780_" class="st3" d="M10.4-21l-0.1,0.1L10.4-21z"/>
							<path id="Caminho_1740_00000102507096502184462370000004617140511816698540_" class="st3" d="M8.8-21.5
								c0.1,0.1,0,0.3-0.1,0.4c0.4,0.2,0.5-0.3,0.9,0l-0.2-0.2c0.2-0.3,0.6-0.3,0.8-0.1c0.1,0,0.1,0.1,0.1,0.1l-0.1,0.1
								c0.2-0.3,0.6,0.3,0.7,0c-0.1-0.2,0-0.3-0.2-0.4l0.6-0.3v0.5l0.3-0.2c-0.1-0.2,0.4,0.2,0.5-0.3c0.2,0.2-0.1,0.4-0.1,0.6
								c0.2-0.2,0.2,0.1,0.4-0.2l0.2,0.5l0.5-0.3v0.1c0.2-0.4,0.6,0.2,0.8-0.5v0.1c0.2-0.4,0.5-0.1,0.7,0c0.3-0.1,0.1-0.5,0.1-0.7
								c0.7,0.1,0.5,0.1,1.1-0.5c0.4,0.6-0.4,1,0,1.4c0.1-0.3,0.4-0.6,0.7-0.6c0.4,0.2,0.9,0.4,1.2,0.8v-0.4l0.5-0.2l-0.3,0.6
								c0.1-0.2,0.3-0.4,0.5-0.6c0.5-0.3,0.3,0.8,0.7,0.3v0.1c0.1-0.3,0.4-0.2,0.8-0.3l-0.1,0.5l-0.2-0.1c0.1,0.5,0.4-0.1,0.6-0.1
								c0.2-0.2,0.1-0.6,0.3-0.7c0.1,0,0.2-0.1,0.3,0c0.2,0.2,0,0.6,0,0.8c0.2-0.5,0.2-0.4,0.7-0.6c0,0.2,0,0.3-0.1,0.4
								c0.1-0.1,0.2-0.2,0.2-0.4l0.1,0.3c0.5,0.4,0.5-0.9,1-0.8c-0.1,0.3,0.5-0.1,0.7,0.3c-0.2,0.1,0.1,0.7,0,1
								c0.4,0.2,0.2-0.6,0.5-0.7l-0.1,0.6c0.3-0.3,0.1-0.3,0.4-0.5c-0.1,0.2,0.2,0.2-0.1,0.4c0.5,0.1,0.3,0,0.7,0.1v-0.6
								c0.1-0.1,0.2,0.2,0.2,0.3c-0.1,0-0.1,0-0.1,0.1c0.2,0.5,0.3-0.3,0.4,0.2c0-0.2-0.1-0.5,0.1-0.5c-0.1,0.4,0.3,0.3,0.3,0.5
								c-0.1-0.3,0.4-0.1,0.4-0.5c0.2,0.3-0.1,0.3-0.1,0.5c0.2-0.5,0.7-0.1,0.8-0.3v0.1c0.2-0.3,0.5-0.4,1-0.8l-0.1,0.3
								c0.4,0.1,0.3-0.7,0.6-0.7c-0.1,0.5,0.6,0,0.4,0.5c0.2-0.2,0.4-0.5,0.6-0.8c0.2,0.3-0.4,0.7-0.1,0.8l0.3-0.3l0.1,0.3
								c0-0.2,0.3-0.2,0.3-0.4C30-22.2,30-22,30-21.7c0.2-0.1,0.4,0.2,0.6-0.1v0.2c0.2-0.6,0.6-0.1,0.6-0.7l0.1,0.3
								c0.3-0.1,0.2-0.7,0.4-0.8c0.1,0,0.2-0.1,0.4,0c-0.4,0.4,0.2,0.5,0.3,0.7c0.1,0,0.6,0,0.7-0.3c-0.2,0.3-0.1,0.6-0.4,0.6
								c0.2,0.6,0.5-0.1,0.8-0.1v0.3c0.5-0.2,0.5-0.7,0.7-1.1c0.1,0.3,0,0.5-0.1,0.8c0.3,0.2,0.9,0,1.2,0c0.1,0.2,0.1,0.4-0.1,0.5
								c0.4-0.3,0.9,0.1,1.1-0.5c-0.1,0.2,0.2,0.2,0.3,0.3c0-0.1,0-0.3,0-0.3c0.2-0.2,0.8-0.5,1-0.3L37.5-22
								c0.6,0.1,0.9-0.9,1.6-0.5c0.1,0.1-0.1,0.5,0.1,0.5c0.1-0.2,0.1-0.7,0.4-0.6v0.4l0.2-0.4c-0.1-0.3-0.5-0.2-0.2-0.6
								c0.3,0.4,0.3-0.4,0.6,0.1c-0.1,0-0.2,0.3-0.2,0.5c0.7,0.5,1-0.4,1.8,0.1c0.4-0.3,0.9-0.4,1.1-0.7c0,0.4,0,0.7-0.2,1.1
								c0.3,0.1,0.5-0.8,0.7-0.3c0.2-0.5,0.9-0.3,1-1.1c0,0.2,0.3,0,0,0.4c0.4-0.2,0.6,0.7,0.8,0.7c0.1,0-0.1-0.5,0.1-0.5
								c0,0,0,0.1,0.1,0.1l0.1-0.2c0.1,0.2-0.1,0.4-0.1,0.6c0.4,0.2,0.6-0.4,1-0.5l-0.1,0.1h0.4l0,0l0.3-0.3v0.2
								c0.1-0.1,0.1-0.2,0.2-0.2v0.2c0.1-0.3,0.4-0.5,0.7-0.6v0.1l0.5-0.5c0.3,0.3-0.3,0.6,0.2,0.4L48.5-23c0.4-0.2,0.4,0.1,0.6-0.1
								c-0.1-0.3-0.3-0.2-0.2-0.4c0.3,0.6,0.4-0.1,0.7-0.4c-0.1,0-0.2,0-0.3,0.3c-0.1,0-0.1-0.3-0.1-0.3L49-23.6l-0.1-0.3l-0.3,0.3
								c0-0.4-0.3-0.1-0.2-0.5c-0.2,0.2-0.4-0.1-0.6,0.3c-0.2-0.2,0.3-0.3,0.1-0.3c-1,0.3-2,0.3-3,0.1l0.1-0.2
								c-0.1,0.2-0.2,0.3-0.3,0.5c-0.2-0.3-0.8-0.7-1.1-0.1c0,0,0-0.1,0-0.2c-0.3,0.1-0.9-0.3-1.4-0.3c-0.2,0.6-0.7-0.4-0.9,0.5
								l0.1-0.2c0.2,0.2-0.2,0.6-0.3,0.8c0-0.3-0.1-0.6-0.2-0.9l0.2,0.2v-0.5c-0.6,1.2-1.1-0.5-1.5,0.3c0,0,0-0.1,0-0.2
								c-0.3-0.3-0.4,0.3-0.6,0.5c0-0.2,0.1-0.4,0.2-0.6c-0.4-0.2-1.2,0.4-1.7,0.1c-0.2,0.3,0.1,0.4-0.1,0.7
								c-0.2-0.1-0.2-0.3-0.1-0.4c0,0,0-0.1,0.1-0.1c-0.4-0.6-1.4,0.4-2-0.2c-0.3,0.3-0.1,0.5-0.6,0.7c0.1-0.2-0.1-0.8,0.2-0.8v-0.2
								c-0.5,0-1.2-0.1-1.5,0.6c0-0.5-0.1-0.1-0.3-0.4c-0.1,0.1,0,0.1,0,0.1c-0.2,0.4-0.3,0-0.4,0.1v-0.1L32.4-24
								c-0.1-0.1-0.2-0.2-0.2-0.3v0.4c-0.2,0-0.1-0.4-0.3-0.4L32-24c-0.2-0.2-0.4,0.2-0.4-0.2c0-0.1,0,0,0.1-0.1
								c-0.2-0.5-0.6,0.2-0.9-0.1l0.1,0.6c-0.3,0.2-0.2-0.1-0.2-0.3c-0.2,0-0.2-0.2-0.5-0.2c-0.1,0.1-0.1,0.2-0.1,0.4L29.8-24
								l0.2-0.3c-0.4,0.8-1-0.1-1.3,0.7c-0.2-0.2,0.1-0.3,0-0.4c-0.5-0.4-1.1,0.5-1.5,0.1c-0.7-0.4-1.4,0-2.2-0.3v0.2l-0.5-0.1
								c-0.1,0.3-0.5,0.2-0.7,0.6c0-0.1,0-0.3,0-0.4c-0.2,0-0.5,0.2-0.6,0l0.1-0.1c-0.5-0.1-1.2-0.1-1.4,0.2c-0.2,0-0.2-0.2-0.2-0.4
								c-0.3,0-0.5,0.1-0.7,0.4c-0.1-0.1-0.2-0.2-0.2-0.3l-0.1,0.4c-0.1-0.1,0-0.3-0.1-0.4c-0.4,0.4-1,0-1.3,0.1v0.2
								c-0.1,0.1-0.4-0.1-0.2-0.3c-0.6-0.2-0.9,0.6-1.8,0.5c-0.1-0.7-0.8,0.2-0.9-0.6c-0.4,0.2-0.6-0.1-0.8,0.3c0-0.1,0-0.1,0-0.1
								c-0.1-0.3-0.6-0.1-1,0.1v-0.2c-0.1,0.5-0.7,0.4-0.9,0.8c0-0.1,0.1-0.2,0.1-0.3c-0.2-0.5-0.3,0.2-0.6,0.1c0-0.1-0.1-0.3,0-0.4
								c-0.8-0.5-1.9,0.4-3,0c-0.3,0,0.1,0.5-0.3,0.5c-0.1-0.3,0.2-0.5-0.1-0.6c-0.2,0.3-0.2,0.2-0.5,0.2c0-0.2,0-0.3,0.2-0.4
								c-0.1-0.2-0.6,0.4-0.8,0c0,0.1,0,0.2-0.1,0.3c-0.4,0.4-0.9-0.4-0.9-0.2c0,0-0.1,0.1,0,0.1c-0.1,0-0.3-0.1-0.3-0.3
								c-0.1,0.1-0.1,0.3-0.3,0.4l0.1-0.3C7.1-24.1,7.1-24,7-23.9l0.1,0.2c-0.2-0.2-0.5,0.3-0.5-0.2h0.1l-0.3-0.2
								c-0.1,0.2-0.2,0.4-0.5,0.4c-0.1-0.6-0.5-0.1-0.8-0.2v-0.2c-0.2,0.3-0.7,0.2-0.6,0.3c-0.2,0-0.5-0.1-0.4-0.3
								C3.9-24,3.6-24,3.5-23.7l-0.3-0.5c-0.2,0.7-0.7-0.3-0.7,0.5c-0.2-0.1-0.1-0.3-0.3-0.4c-0.2,0.3-0.5,0.4-0.8,0.2V-24
								c-0.3-0.1-0.6,0.3-0.9,0.4l-0.1-0.6c-0.2,0.1-0.2,0.5-0.4,0.4c0-0.1,0-0.1,0-0.1c-0.2,0.1-0.4,0-0.6-0.2
								c-0.3,0.4-0.5,0.3-0.7,0.7c-0.2-0.5,0.3-0.2,0.1-0.7c-0.4-0.3-0.8,0-1.2,0.3c0-0.1,0-0.2,0-0.3c0,0-0.9,1.4-0.7,1.9
								c-0.1,0.4-0.2,0.6,0.1,0.9c0.1-0.2,0.5-0.5,0.5-0.1v-0.4C-2-22-2.5-21-1.9-21L-2-21.1c0.1,0,0.2-0.3,0.3-0.1
								c0,0.1,0,0.2-0.1,0.3l0.5-0.5c0,0.2,0,0.4-0.1,0.5c0.5,0-0.1-0.7,0.5-0.6c0.1,0.2,0,0.2-0.1,0.4c0.3,0.3,0.4,0,0.7-0.2
								c0,0.4-0.2,0.3,0,0.5c0-0.2-0.1-0.5,0.1-0.5c-0.1,0.4,0.1,0.2,0.3,0.3c0-0.1,0-0.2,0-0.4c0.1-0.1,0.1,0.1,0.3,0.1l-0.2-0.3
								c0.3-0.3,0.4,0.2,0.7,0.3c0,0.1,0,0.1-0.1,0.1c0.2,0.1,0.5,0.4,0.7,0.1l0,0C2-21.4,1.3-21.7,2-22c0.2,0.1-0.1,1.2,0.4,0.7
								C2.2-21.6,2.7-22,3-22.2l-0.3,0.7c0.1,0,0.3-0.2,0.4-0.1v-0.2c0-0.6,0.4,0.1,0.5-0.3c-0.2,0.5-0.3,0.9-0.3,1.4
								c0.2-0.4,0.4-0.8,0.8-0.7l-0.3,0.6c0.5,0.1,1-0.8,1.4-1.3c-0.1,0.5,0.1,0.6-0.1,1l0.4-0.1l-0.1,0.5c0.2-0.5,0.4-0.2,0.4-0.8
								c0,0.1,0,0.2-0.1,0.1C5.7-21.6,5.8-22,6-22c0.2,0.2-0.1,0.3,0,0.4c0.1-0.3,0.2,0.2,0.3,0l-0.1-0.3c0.1-0.4,0.3,0,0.4-0.2
								c-0.2,0.2-0.1,0.4-0.1,0.6l0,0c0.1,0,0.3-0.3,0.3-0.1l-0.1,0.5l0.2-0.4c0.1,0.1,0.1,0.2,0,0.4c0.5,0.3,0-1.1,0.7-0.6
								c0,0.2-0.1,0.3-0.3,0.2c0,0.3,0,0.5,0.2,0.6c0,0,0,0,0,0.1C8.1-21.1,8.6-21.1,8.8-21.5"/>
							<path id="Caminho_1741_00000041288898563797430940000001478266748126214323_" class="st3" d="M7.8-21.1c-0.1,0-0.3,0-0.4,0.1
								C7.4-21,7.8-20.8,7.8-21.1"/>
							<path id="Caminho_1742_00000039114651222494412100000012137621627524129979_" class="st3" d="M35.3-21.7L35.3-21.7L35.3-21.7
								"/>
							<path id="Caminho_1743_00000039823553525284504760000004222701619650979221_" class="st3" d="M36.8-21.9c0,0,0-0.1-0.1-0.1
								C36.7-21.9,36.7-21.8,36.8-21.9"/>
							<path id="Caminho_1744_00000065047552511559690780000002105302577875329468_" class="st3" d="M21.5-21.5L21.5-21.5L21.5-21.5
								"/>
							<path id="Caminho_1745_00000060735216285151277510000006251863673421227693_" class="st3" d="M29.9-21.4
								c0.1-0.1,0.2-0.3,0.2-0.4C30-21.8,29.9-21.7,29.9-21.4"/>
							<path id="Caminho_1746_00000083778080859748953750000011606987424452588463_" class="st3" d="M27-21.6
								C27-21.6,27-21.5,27-21.6C27-21.5,27-21.6,27-21.6"/>
							<path id="Caminho_1747_00000080204872116216952210000007775675200299402121_" class="st3" d="M21-21.3
								c0.1-0.2,0.3-0.2,0.4-0.3C21.3-21.4,21.1-21.6,21-21.3"/>
							<path id="Caminho_1748_00000116924183346592343410000000084957629880071819_" class="st3" d="M38.6-22.4l-0.1,0.3L38.6-22.4
								L38.6-22.4z"/>
							<path id="Caminho_1749_00000027592581791137642210000007331327066021736345_" class="st3" d="M37.2-22.3
								c-0.1-0.1-0.3,0.1-0.2,0.2C37-22.1,37.1-22.2,37.2-22.3"/>
							<path id="Caminho_1750_00000117655686654319284030000009572286562478252213_" class="st3" d="M31.9-22.5l-0.1,0.3L31.9-22.5
								L31.9-22.5z"/>
						</g>
					</g>
				</g>
			</g>
		</g>
	</g>
	<g class="st13">
		<path class="st3" d="M77.3,152.9l0.1-0.2v-0.3l0.3-0.5l-0.1,0.6l-0.1,0.1l0.1,0.3l-0.2,0.1L77.3,152.9z M77.6,151.3l-0.1-0.5h0.1
			l0.1-0.1l0.2,0.1v-0.3H78l-0.1,0.5l-0.1,0.2l0.1,0.4l-0.1,0.2l-0.2,0.1l-0.1-0.4L77.6,151.3z M83.5,152.7l0.1,0.1l-0.1,0.1
			l-0.2,0.4v0.4l-0.2-0.2v-0.3l-0.1,0.1l0,0.4l-0.1-0.4l-0.1,0.1l0,0.2l-0.1-0.3l-0.1,0.1v0.4l-0.1,0.1l-0.1-0.1l-0.1,0.2h-0.1
			l-0.1-0.1l-0.1,0.1l-1.1-5.8l-0.1,0.3l-0.2,0.2l-0.2,0.2l-0.3,0.2l-0.5,0.5l-0.2,0.5l-0.2,0.8v0.1l-0.2,0.4h0.2v0.4l-0.1-0.1
			l-0.2,0.1v0.5l-0.1,0.2v0.4h-0.1v0.3l-0.1,0.5v0.4l-0.2,0.3l-0.1-0.4l-0.1,0.3l-0.1-0.3h-0.2l0.1-0.3l0.1-0.1V153h-0.1l0-0.2
			l-0.1,0.3l0.1,0.2h-0.1l-0.1,0.6l-0.1-0.1l-0.1-0.3l-0.1,0.1v-0.2l-0.1,0.1l-0.1-0.2l0.1-0.1V153h0.1l0.1-0.1l0.1,0.2l0.1-0.4
			l-0.2-0.2v-0.2l-0.2-0.1V152l0.1-0.2v-0.2l0.1-0.1v-0.7l0.1,0.1l0.1-0.1l0.1-0.5l0-0.1l0.1-0.4l-0.1-0.1l-0.2,0.3l0.1-0.2
			l-0.1-0.2H78l-0.1-0.5v-0.7l0.1-0.2h-0.1l0.1-0.1l0.1-0.2l0.1-0.1v-0.6l0.2-0.2l-0.1-0.1l0.1-0.8l0.1-0.1l0-0.5l0.1-0.2l-0.1-0.2
			l0.2-0.2l0.1,0.3l0.2-0.3H79l0.1-0.2L79,144l-0.1-0.1l0,0.2v0.5h-0.1l0.1-0.1v-0.2l-0.1-0.1V144h-0.1v-1.1l0.1-0.3l0.1-0.2v-0.5
			l-0.1-0.4l0.1-0.1l0.1-0.3l-0.1-1.1H79v-0.6l0.1-0.7v-0.4l0.2-0.4v-1.4l0.1-0.1v-0.1l-0.1,0.1l0.1-0.5v-0.3l0.1-0.3H80l0.1-0.1
			l0.1,0.1h0.1l0.1,0.1l0.5,0.1l0.1,0.2h0.3l0.2,0.2v0.3l0.2,1v0.5l0.2,1.8v0.5l0.1,0.2v0.7l0.1-0.1l-0.1,0.1v0.4h0.1l-0.1,0.2
			l0.1,0.2v0.2l0.1,0.3l0,0.4h0.1l0,0.6l0.1,0.2v0.5l0.1,0.3l0.1,0.4l-0.1,0.1l0.1,0.2v0.2l0.1,0.1l-0.1,0.8l0.2,0.3l-0.1,0.5
			l0.1,0.1l-0.1,0.3v0.5l0.1,0.2l0.1,0.2l0,0.4l0.1,0.1v0.2l-0.1,0.2l0.1,1.1l0.1-0.1v0.7l0.1-0.1l-0.1,0.5l0.2,0.2l0.1,0.2
			l-0.1,0.6l-0.1,0.2v0.2h-0.1l0.1,0.1l0.2-0.3l0.1,0.3l0.1-0.1l-0.1,0.4l-0.1,0.1v-0.2L83.5,152.7z M77.8,150.1v-0.5l0.3,0.1v0.5
			l-0.3,0.2l0-0.1L77.8,150.1z M77.9,153.8l-0.1,0.3h-0.1V154L77.9,153.8z M78,154.2l-0.1,0.4h-0.1l0.1-0.4H78z M78.3,151l0.1-0.2
			v-0.1l-0.1,0.2l-0.1-0.1l-0.1,0.4L78.3,151L78.3,151z M78.3,147.1l0.1,0.1v-0.2L78.3,147.1z M78.5,152.7L78.5,152.7v-0.2V152.7z
			 M78.6,144.4l-0.1,0.1l0.1-0.3V144.4z M78.7,151v-0.3l-0.1,0.3H78.7z M81,147.5l-0.6-4.1l-0.1,0.3l-0.2,1.2l0,0.1l-0.1,0.5v0.4
			l-0.1,0.3l-0.1,0.7l-0.1,0.5v0.1l0.6,0.1l0.5-0.1L81,147.5z M83.2,153l0.1-0.1l-0.1-0.2V153z"/>
		<path class="st3" d="M87,153.5l0.1-0.1l-0.2,0.1l-0.1-0.3l-0.1,0.3l-0.1-0.1l-0.2,0.5l-0.4-0.2v-5.5l-0.1-0.9v-1.2l0.1-0.3
			l-0.1-0.4l-0.1-3.2l-0.1-0.2v-4.5l0.1-0.7l-0.1-0.7H85l-0.1-0.1l-0.4-0.1l-0.1-0.1l-0.2-0.1l-0.5-0.3l-0.3-0.3l-0.1-0.1l0.3-0.7
			h0.2l0.1,0.1h2.9l0.1,0.1l0.4-0.1l0.1,0.1h0.2l0.5,0.2l0.1,0.2l0.2,0.1h0.1v0.3l0.1-0.1l0.1,0.2l-0.1,0.1h-0.1l-0.3,0.1l-0.1,0.2
			h-0.1l-0.2-0.1l-0.1,0.1l0.1,0.8l-0.1,0.5l0.1,0.6v4.3l-0.1,0.3l0.1,0.3l0.1,0.9l-0.1-0.1v0.5l0.1,0.2l0.1,1v2.1l-0.1,0.2l0.1,0.2
			l-0.1,0.4l0.1,0.3v0.3l0.1,0.2v0.4l-0.1,0.2l0.1,0.1v1.8l-0.1,0.1v0.2l-0.1,0.1h-0.1l-0.1,0.4l0.1,0.1l-0.2,0.8l-0.1-0.1l-0.1,0.4
			l-0.1-0.1l-0.1,0.9l-0.1-0.7L87,153.5z M87.8,152.7h-0.1l0.1-0.1L87.8,152.7z"/>
		<path class="st3" d="M90.9,153.7v0.1l-0.1,0.2l-0.1,0.1l-0.2-0.2l-0.1,0l-0.1-0.9l-0.2-2.6l0-1.6l-0.4-5.5l0.2-3.3l-0.2-4.2
			l0.2-0.1v-0.1l0.2-0.2v-0.1l0.2-0.3l0.7-0.2h0.3l0.5-0.1l0.6,0.2h0.4l0.9,0.4l0.5,0.3l0.4,0.2l0.3,0.2l0.8,0.4l0.3,0.3l0.4,0.6
			v0.2l0.1,0.1l0,0.4l0.1-0.1l-0.1,0.5l0.1,0.1l-0.2,0.2l-0.1,0.2v0.4l-0.2,0.4l0,0.6l-0.2,0.4l-0.2,0.2h-0.1l-0.4,0.6v0.1l-0.1,0.2
			l-0.5,0.3l0,0.2l-0.4,0.3l-0.1,0.3l-0.2-0.1l-0.3,0.2v0.2l-0.3,0.3l-0.1-0.1l-0.1,0.1l0.1,0.1l0.2-0.1l-0.1,0.2l0.5,0.7l0.6,1.2
			l0.5,1.2l0.1,0.1l0.1,0.7h0.1l0,0.4l0.1,0.1l0,0.4l0.1,0.1v0.3l0.2,0.2l0,0.3l0.1,0.1l0.4,0.9l0.2,0.7l0.1-0.1l0.1,0.2l0.1,0.5
			l0.1,0.1l0,0.2l0.1,0.2l0.2,0.1l0,0.4l0.1,0.1v0.2l0.1,0.1l0.1-0.1l0,0.2l0.2,0.4v0.1l0.1,0.1l-0.1,0.1h-0.3l-0.3-0.2h-0.6
			l-0.9-0.9l-0.5-0.9l-0.3-0.7l-0.5-1.2l-0.3-0.2l-1.2-4.1l-0.1-0.2l-0.3-0.8l-0.4-0.7l0,0.2l-0.1,0.1l-0.2-0.3l0,0.4l-0.2,0.1h0.1
			l-0.1,0.3l0,0.4l0.1,0.1l0.1-0.1l0.1,0.3l-0.1,0.4v0.9l-0.2,0.2l0,0.3l0.2,0.2l0-0.1l0,0.4l0.2,0.2l-0.1,0.5l-0.1,0.1l0.2,0.2
			l-0.1,0.1v0.2l0,0.1v0.2l-0.1,0.2l0.1,0.3l0,0.2l-0.2-0.1l0,0.4l0.1,0.1l-0.1,0.2l0.1,0.1l0.1-0.1l-0.1,0.3h0.1l0,0.2l0.1,1
			l-0.2-0.1l-0.1,0.1v0.1h0.3l0,0.1l-0.1,0.2l0.2-0.1l-0.1,0.4l0,0.4l-0.1,0.1l0,0.3l-0.1-0.8l-0.1,0.2l0,0.1l0.1-0.1l-0.2,0.5
			l-0.2,0.2l0-0.2l-0.1-0.2l-0.1,0.9l-0.1-0.2l-0.2,0.2l-0.2-0.7L90.9,153.7z M90.9,152.9l0.1-0.1l0-0.4l-0.1,0.3V152.9z
			 M91.8,142.4l0.1-0.1l1.1-1.1v-0.1l0.4-0.5l0.7-1.2l0.4-0.8l0.1-1l-0.1-0.7l-0.2-0.6l-0.7-0.5l-1.3,0.1l-0.6,0.3l0,0.3l0.1,0.2
			l0,0.4l-0.1,0.1l0.1,0.3l-0.1,1l0.2,0.1l-0.1,0.1l0,0.6l0.1,0.1l0,0.4l-0.1,0.1l0.1,0.1l-0.1,0.2l0.1,0.2h-0.2l0.1,1.5l-0.1,0.4
			L91.8,142.4z M91.8,147l0.1-0.1l0.1,0.2l-0.1,0.1L91.8,147L91.8,147z M92,154.1l0,0.1L92,154.1L92,154.1z M93.4,143.1l0.1-0.1
			h-0.1L93.4,143.1z M94,142.7l0,0.1h-0.1l0-0.1H94z"/>
		<path class="st3" d="M97.9,136.2l0.1-0.3v-0.6l-0.1-0.1l0.1-0.2l0.2-0.2l0.9,0.4l0.2,0.1h0.1l0.4,0.2l0.1,0.2h0.1l0.1,0.6v2.4
			l0.1,0.1l-0.1,1.1l0.1,0.4v0.9l0.1,0.2l-0.1,0.3v0.2l0.1-0.2l0.1,0.7l-0.1,0.3l0.1,0.1l-0.1,0.4l0.1,0.5v0.6l0.1,0.1l-0.1,0.1
			l0.1,3.1l-0.1,0v0.4l0.2,0.1l-0.1,0.1l0.1,0.1h-0.2l-0.1,0.4l0.1,0.1l-0.1,0.1v0.5l-0.1-0.2l-0.1,0.2l0.2,0.2v0.1l0.1,0.1h0.1
			l-0.1,0.2h-0.2l-0.1,0.6l-0.1,0.1v0.2l-0.1-0.1l-0.2,0.1v0.5l0.1,0.1l0.1-0.1l0.1,0.2l0.1,0.3l0.1-0.1v0.4l-0.2,0.3l-0.1-0.1
			l-0.1,0.1l-0.1,0.5l-0.1,0.4l-0.1-0.7L99,153l-0.1-0.1l-0.1-0.1v-0.2l-0.2,0.2v0.1l-0.2,0.3l-0.1,0.1l-0.1-0.1l-0.1,0.1l-0.1-0.1
			L97.9,136.2z M99,153.1l0.1-0.1l0.1,0.2l0.1,0.1l-0.1,0.2l-0.1-0.1l-0.1,0.1l-0.1-0.1L99,153.1z M99.5,152.1v-0.5l-0.1,0.4
			L99.5,152.1z M100,151.1L100,151.1L100,151.1L100,151.1z M100.3,150.2l-0.1,0.1l-0.2-0.1L100.3,150.2z"/>
		<path class="st3" d="M104.7,154l-0.1-0.1l-0.2-0.1l0.1-0.1l-0.1-0.1l-0.1-0.1l-0.2,0.1v0.2L104,154l0.1,0.1v0.1l-0.1-0.1l-0.1,0.2
			l-0.2-0.1h0.1V154l0.1-0.1h-0.1l-0.1-0.4l-0.1,0.6l0.1,0.2l-0.1,0.3h-0.1v-0.6l-0.2-0.1l-0.1,0.3v0.5l-0.2,0.2l-0.2-0.1l-0.1-0.2
			l-0.1,0.1h-0.1l0.1-1.2l-0.4-6.2v-3l-0.1-0.6v-3.9l-0.1-0.3v-0.9l-0.1-0.1v-0.9l-0.1-0.3l0.1-0.3l-0.1-0.3v-0.6l0.2-0.2h0.1
			l0.9-0.5h0.3l0.6-0.1l0.9,0.2l0.2,0.1l0.3,0.1l0.9,0.3l0.6,0.2l0.4,0.4h0.2l0.3,0.3v0.2h0.1l0.1,0.1l-0.1,0.1l0.2,0.5l0.2-0.1
			l-0.1,0.2l-0.1,0.1l0.1,0.1l-0.2,0.2v0.4l-0.2,0.4v0.6l-0.2,0.5v0.3l-0.1,0.1l-0.1-0.1l-0.2,0.1l-0.1,0.2l-0.2-0.2l0-0.2l-0.2,0.3
			l-0.1,0.8l-1.1,1l0.2,0.2h0.3l1,0.4l0.1,0.1l0.8,0.5l0.2,0.2l0.2,0.5h0.2l0.2,0.3v0.2l0.4,0.1v0.2l0.1,0.1l0,0.5l-0.1,0.1l0.2,0.1
			l0.1,0.2l-0.1,0.3l-0.1,0.1l0.1,0.1l0.1-0.1l0.2,0.2v1.3l-0.1,0.1l-0.1-0.2l-0.1,0.3l0.2,0.1v0.4l-0.3,0.2l-0.1,0.2l0.2-0.2
			l-0.1,0.2v0.3l-0.1-0.1l-0.1,0.3v0.2l-0.2,0.1v-0.4h-0.1v0.4l0.1,0.3l0.1-0.1l-0.1,0.3h-0.2l-0.2,0.4l0.1-0.1h0.2l0.1-0.1
			l-0.6,0.4l-0.1,0.2l-0.3,0.3l-0.1,0.2l0.1,0.2l-0.1,0.1h-0.2l-0.2,0.3l-0.1-0.3l-0.2,0.1l0.1,0.4l-0.4,0.3l-0.1-0.4v0.2l-0.2,0.1
			L107,153l-0.2,0.2l-0.1-0.3l-0.6,0.6v-0.2l-0.3,0.3h-0.2l-0.2,0.1h-0.4L104.7,154z M103.3,153.2L103.3,153.2V153V153.2z
			 M103.3,153.6L103.3,153.6v-0.1V153.6z M103.9,152.3l0.1,0.1l0.1-0.3h-0.1l-0.1,0.1h-0.1v0.1L103.9,152.3z M104.3,141.9l0.1-0.2
			l0.4-0.3l0.1-0.2l0.6-0.9l0.6-1.1l0.2-0.8v-0.6l-0.1-0.3l-0.2-0.4l-0.5-0.5h-0.9l-0.6,0.2l-0.1,0.1l0.1,0.4l-0.1,0.2v0.5l0.2,0.9
			l-0.1,0.4l0.1,0.4v0.6l0.1,0.2l-0.2,0.6l0.1,0.2v0.2l-0.1,0.1v0.3L104.3,141.9z M104.3,153l1.3-0.6l1-1l0.9-1.5l0.5-1.4l0.1-1.2
			l-0.1-0.8l-0.1-0.2V146l-0.6-1.1l-0.3-0.3l-0.5-0.7l-0.7-0.4h-0.4l-0.1-0.1h-0.4l-0.4-0.2l-0.1-0.1l-0.1,0.1l0.1,0.4v0.6l-0.1,0.6
			l0.1,0.1l0.1,0.6l-0.1,0.1l0.1,0.3l-0.1,0.3l0.1,0.4l-0.1,0.1v0.1l0.1,0.1l0.1-0.1l0.1-0.2h0.1l-0.2,0.7v0.6l0.1-0.1l0.1,0.6
			l-0.1,0.3l0.1,0.1v0.1h-0.1l0.1,0.4l-0.1,0.1l0.1-0.1l0.1,0.4l-0.1,1.2l0.2,0.1l0,0.8l-0.2,0.1l-0.1-0.3l-0.1,0.3l-0.2,0.4v0.2
			l0.2-0.4v0.2L104.3,153z M104.2,148.6l0.2-0.2l-0.1-0.1l-0.1,0.1V148.6z M104.4,151.5v-0.2V151.5L104.4,151.5z M105.1,142.3h0.1
			v-0.1L105.1,142.3z M105.7,142.2l0.2-0.2h-0.2V142.2z M106.1,141.8l0.1-0.1H106L106.1,141.8z"/>
		<path class="st3" d="M116.6,148.3l0.2-0.2l0.1-0.3l0.1,0.1v0.5l0.1,0.1v-0.3l0.1-0.3v-0.4l-0.1-0.1l0.1-0.1V147l-0.1-0.1l0.2-0.2
			v-0.2l-0.2,0.2l0.1-0.1l-0.1-0.1l0.1-0.1l0.1-0.6l-0.2-0.4l-0.1,0.6v1.2l-0.2-0.1l-0.1-0.1l0.1-0.5l-0.1-0.1l0.1-0.5l-0.1-0.1
			l0.1-0.1v-0.4l0.1,0.2l0.2-0.3V145l-0.1,0.1l-0.1-0.2l-0.1,0.1l0.1-0.2v-0.1l0.1-0.3l-0.1-0.2h-0.1v-0.7l-0.1-0.5l-0.1,0.1
			l0.1-0.2l-0.1-0.1l0.2-0.5l0.2,0.1v0.2l0.1,0.2l-0.1-0.7h-0.2v-0.2l-0.1-0.1v-0.1h-0.1v-0.1l0.1-0.1v-0.1l-0.1-0.1l0.1-0.7
			l0.2-0.2h-0.1l-0.1-0.2v-0.5l0.2-0.2l-0.1,0l0.2-0.2l0.1,0.4l0.1,0.1v-0.2l-0.1-0.2l0.1-0.3l0.1,0.3l0.1-0.2v-0.2l-0.1-0.1
			l-0.3,0.1v-0.2l0.2-0.1l-0.2-0.2v-0.5l0.2-0.3l-0.2,0.1l-0.1-0.2l-0.1-0.2v-0.3l0.1-0.1l-0.1-0.3v-0.6h0.1l0.1-0.4l0.2,0.2v-0.3
			H117l-0.1,0.1l0.1-0.2l0.2-0.2l0.1-0.2l0.1,0.1l0,0.2l0.2,0.2l0.2-0.6h0.1l-0.1,0.1l0.1,0.2l0.1-0.4l0.5,0.5v0.1h0.1v0.6l0.1,0.2
			l-0.1,0.1l0.1,0.1l-0.1,0.1l0.1,0.8l-0.1,0.5l-0.1-0.1v0.1l0.1,0.2v1.1l-0.1,0.9l0.1,0.1l-0.1,0.1l0.1,0.1l-0.1,0.1v0.2l0.1,0.1
			l-0.2,0.2v0.2l0.1-0.2v0.4l-0.1,0.1l-0.1,0.7l0.1,0.1l-0.1,0.2h0.1v0.4l-0.1,0.2v1.2l-0.1,0.2l0.1,0.2l-0.1,0.6l-0.1,0.2h0.1v0.9
			l-0.1,0.1v1.2l-0.3,0.5l0.2-0.2v0.4l-0.1,0.1l0,0.3l-0.1,0.6l-0.1-0.1l-0.1,0.2v0.4l-0.1,0.2l-0.1,0.7l-0.1-0.3l-0.1,0.3v0.4
			l-0.3,0.3l-0.2,0.6l-0.1,0.1l-0.1,0.2l-0.1-0.1v0.3h-0.1l-0.3,0.2l-0.5,0.4l-0.5,0.1l0-0.1h-0.6l-0.4-0.2l-0.2-0.3l-0.4-0.1
			l-0.3-0.3h-0.1l-0.3-0.2l0.1-0.1l-0.3-0.2V152h-0.3v-0.1l-0.2-0.2l-0.2-0.3v-0.1l-0.2-0.2l-0.1-0.2v-0.3l0.1-0.1V150l-0.1,0.2
			l-0.1-0.1l-0.1,0.2v-0.3l-0.1,0.1v-0.5l-0.1-0.7l0.1-0.1h0.2l-0.1-0.3l0.1-0.4l-0.2,0.4l-0.1,0.2l-0.1-0.2l0.1-0.2l-0.1-0.3
			l0.1-0.3l-0.1-0.2v-0.3l-0.1,0.1l0.1-0.2l0.1-0.1l-0.1-0.2l-0.1,0.2v-0.4l-0.1-0.1l-0.1,0.1l0.1-0.7h0.1l0.1-1.5l-0.1-0.1v-0.4
			h-0.1l0.1-0.4l-0.1-0.3h0.1v-0.4l0.1-0.1v-0.3l-0.1-0.1v-0.3l-0.2-1l0.7-5.7l0.4-0.7h0.2l0.1,0.1l0.1-0.2l0.1,0.2l0.1-0.1
			l-0.1,0.1h0.2l0.1,0.2l0.2,0l0.1-0.1l0.1,0.2l0.2,0.1h0.2v0.4l-0.2,0.3l-0.1,1.8l-0.5,2.4l0.1,0.2l-0.1,0.2l0.1,0.4l-0.1,0.4v1.7
			l-0.1,0.3l0.1,0.1l-0.1,0.8v2l-0.1,0.2v0.9l0.1-0.1l-0.1,0.4v1l0.1,0.1l0.1,0.9l0.4,1.5l0.5,1l0.4,0.6h0.2l0.3-0.1l-0.1,0.1h0.4
			l0.1-0.2l0.1,0.1l0.2-0.4h0.1l0.2-0.6l0.1-0.2v0.2l-0.1,0.1l0.1,0.1l0.1-0.1l0.1-0.5h-0.1l0.2-0.1l0.2-0.4l-0.1-0.1l-0.1,0.1
			l-0.1,0.2l-0.1-0.4l0.1-0.1h0.2l0.1-0.3l-0.1-0.1l0.2-1.2l-0.1-0.3H116.6z M111.9,149.4l0.1-0.2L112,149l-0.1,0.2L111.9,149.4z
			 M112,150l0.1-0.3l-0.1-0.3V150z M113,139.7l0.1-0.2l-0.1-0.1V139.7L113,139.7z M113,141l0.1-0.3l-0.1,0.1V141z M116.6,149.6
			l-0.2,0.4v-0.4H116.6z M116.7,147.7l-0.2-0.1l0.2-0.3l-0.1,0.7l-0.1,0.4v-0.5L116.7,147.7z M116.8,140.9l0.1-0.1v-0.1l-0.1,0.1
			V140.9z M117.2,137.4l0.1-0.5l-0.1-0.1v-0.3H117l-0.1,0.2l-0.1-0.1v0.3l0.2,0.2L117.2,137.4z M117.1,138.3l0.1-0.5l-0.1,0.2
			l-0.1,0.1L117.1,138.3z M117,144.2l0.1-0.2l-0.1-0.6l-0.1,0.3V144.2z M117.3,136.1L117.3,136.1l0.1-0.2L117.3,136.1z M117.4,138.7
			L117.4,138.7v-0.2V138.7z M117.5,138.2l0.1-0.2v-0.2l-0.1,0.1V138.2z M117.5,146.1l0.1-0.3h-0.1V146.1z M117.8,139.1l0.1-0.3
			l-0.2,0.2L117.8,139.1z"/>
		<path class="st3" d="M120.3,136.2l0.1-0.3v-0.6l-0.1-0.1l0.1-0.2l0.2-0.2l0.9,0.4l0.2,0.1h0.1l0.4,0.2l0.1,0.2h0.1l0.1,0.6v2.4
			l0.1,0.1l-0.1,1.1l0.1,0.4v0.9l0.1,0.2l-0.1,0.3v0.2l0.1-0.2l0.1,0.7l-0.1,0.3l0.1,0.1l-0.1,0.4l0.1,0.5v0.6l0.1,0.1l-0.1,0.1
			l0.1,3.1l-0.1,0v0.4l0.2,0.1l-0.1,0.1l0.1,0.1h-0.2l-0.1,0.4l0.1,0.1l-0.1,0.1v0.5l-0.1-0.2l-0.1,0.2l0.2,0.2v0.1l0.1,0.1h0.1
			l-0.1,0.2h-0.2l-0.1,0.6l-0.1,0.1v0.2l-0.1-0.1l-0.2,0.1v0.5l0.1,0.1l0.1-0.1l0.1,0.2l0.1,0.3l0.1-0.1v0.4l-0.2,0.3l-0.1-0.1
			l-0.1,0.1l-0.1,0.5l-0.1,0.4l-0.1-0.7l-0.1,0.5l-0.1-0.1l-0.1-0.1v-0.2l-0.2,0.2v0.1l-0.2,0.3l-0.1,0.1l-0.1-0.1l-0.1,0.1
			l-0.1-0.1L120.3,136.2z M121.4,153.1l0.1-0.1l0.1,0.2l0.1,0.1l-0.1,0.2l-0.1-0.1l-0.1,0.1l-0.1-0.1L121.4,153.1z M121.9,152.1
			v-0.5l-0.1,0.4L121.9,152.1z M122.4,151.1L122.4,151.1L122.4,151.1L122.4,151.1z M122.7,150.2l-0.1,0.1l-0.2-0.1L122.7,150.2z"/>
		<path class="st3" d="M129.4,159.9l-0.3-0.1l-0.2-0.2l-0.4-0.1l-0.4-0.2l-0.2-0.1l-0.4-0.4l-0.3-0.6l-0.1-0.3h0.1l0.1-0.2l0.2,0.1
			l0.1,0.1l0.2-0.1l0.5,0.2h0.1l0.2,0.8l0.1,0.2l0.2,0h0.1v-0.2l0.2-0.1l0.1,0.1l0.2-0.2l0.1,0.1l0.1-0.3l-0.1,0.1h-0.1l0.2-0.3
			l0.1-0.4l0.3-0.2l0.1-0.3l0.1,0.1V156l-0.2-0.1h-0.8l-0.4,0.2H129l-0.3,0.2h-0.2l-0.2-0.2h-0.5l-0.3,0.1l-0.2-1.5v-1.1H127
			l-0.9-0.6v-0.4h-0.2v-0.1l-0.3-0.3h-0.1l-0.3-0.7v-0.1l-0.2-0.2l-0.4-1v-0.3l-0.2-1.2v-2.3l-0.1-0.1v-4l1-4.2l0.5-1.1l1-1l1.1-0.2
			l0.7,0.1l0.7,0.2h0.2l0.4,0.4l0.3,0.1l0.8,0.6l0.7,0.8h0.2l0.1,0.2v0.1l0.1,0.2l0.1,0v0.3l0.2,0.3l-0.1,0.1l-0.1-0.2l-0.1,0.3
			l0.1,0.1h0.1l0.1,0.1v0.1h-0.1l-0.2,0.3l0.2,0.1l0.1,0.3l0.1-0.3l0.4,0.5v0.6l-0.2,0.1v0.2l-0.1,0.1v0.4l0.1,0.1v0.3l-0.1,0.1
			l0.1,0.1l0.1-0.1v0.3l0.1,0.1v0.6l-0.1,0.4v0.4l-0.1-0.1l-0.1,0.2L132,144l-0.1-0.2l-0.1-0.1l0-0.2l-0.2,0.3l-0.2-0.3l-0.1,0.1
			l-0.1-0.1V143l-0.4-0.1h-0.4l-0.1-0.4l0.2-1.7v-1.2l-0.1-0.4v-0.3l-0.1-0.2v-0.2l-0.4-1.2H130l-0.2-0.3l-0.3-0.3l-0.3-0.1h-0.5
			l-0.3-0.1l-0.4,0.4v0.1l-0.2,0.3l-0.1,0l-0.1,0v0.1l-0.3,0.3v0.1h0.1v0.2l-0.2,0.4l-0.1,0.3v0.1l-0.1,0.1v0.6l-0.3,0.8v0.2
			l-0.1-0.1l-0.1,0.1v0.4l-0.1,0l-0.1,0.3v0.1l-0.1,0.4v0.6l-0.1,0.5v0.2l-0.1,1l-0.1,0.3l0.1,0.4l-0.1,0.7l0.1,0.6l-0.1,0.3
			l0.2,0.7l-0.1,0.3h-0.2v0.8l0.1,0.1l0.2-0.3l0.1,0.1v0.4l0.1,0.2l-0.1,0.1l-0.1-0.1l-0.1,0.1l0.2,0.1l0.1-0.1l-0.1,0.3l0.1,0.1
			l0.1,0.3l-0.1,0.1l0.1,0.1l-0.1,0.1v0.2l0.1-0.2v0.2l0.2,0.1l0.5,1.7l0.5,0.7l0.5-0.3l0.8-0.8l0.8-1.6l0.3-0.7l0.1-0.1v-0.2
			l0.2-0.2v-0.4l0.1-0.4l0.1,0.1l0.1-0.5l-0.1-0.1l-0.1,0.2v-0.3l0.1-0.1l-0.2-0.8l0.2-0.4l0.4,0.2l0.2,0.1l0.2,0.1l0.3,0.2h0.1
			l0.6,0.5l0.1-0.1l0.1,0.4l0.2,0.3v1.1l-0.2,0.1v0.4l-0.2,0.4l-0.1-0.2l-0.1,0.3h0.1v0.3l-0.8,1.6l-0.1,0.1l-0.1,0.1l-0.4,0.3
			l-0.1,0.4l-0.1,0.2h-0.1l-0.5,0.5l-0.6,0.5l-0.5,0.1l-0.3-0.1v0.4h0.3l0.2,0.1h0.2l0.4,0.2h0.1l0.8,0.5l0.1,0l0.7,0.5l0.2,0.3
			l0.1,0.6l-0.2,0.4v0.2l-0.2,0.6l-0.1,0.1l-0.1,0.2l-0.2,0.4L131,159l-0.1,0.2l-0.1,0.1l-0.1,0.1l-0.2,0.2l0.1-0.2l-0.3,0.4
			l-0.2,0.2h-0.3l-0.1,0.1l-0.2-0.1l-0.1-0.1H129.4z M126.4,148.7v-0.2V148.7L126.4,148.7z M126.5,149.5v-0.1V149.5L126.5,149.5z
			 M127.3,138.1h0.1l-0.1-0.1L127.3,138.1z M127.7,137.7h-0.1l0.4-0.4L127.7,137.7z M130.1,157.7h0.1l0-0.2l-0.1,0.1L130.1,157.7z
			 M131.4,152.6l-0.2,0.1v-0.1H131.4z"/>
		<path class="st3" d="M137.5,153.8l-0.2-0.2H137l-0.1-0.1l-1.1-0.7l-0.4-0.6l-0.1-0.1L135,152l-0.1-0.4l-0.1-0.3l0-0.1l-0.1-0.1
			v-0.2l-0.1-0.1l0.1-0.1l-0.1-0.1l-0.1-0.2l-0.1-0.1l0.1-0.1v-0.1l-0.1-0.1l0.1-0.1l-0.2-0.2l-0.1-0.7l-0.1,0.3l0-0.2l-0.1-0.1
			l-0.1-1.2h0.1v-0.2l-0.3,0.2l0-4l-0.1-0.1l0.1-0.6l0.1,0.4l0.1-0.6H134l0-0.5l0.1-0.3l0-0.3l0.5-2.6l1.2-2.4l0.9-1.2l0.7-0.4
			l0.1,0.1l-0.2,0.1h0.2l0.2-0.1l-0.1-0.1l0.5-0.1l0.3,0.1l0.1,0.2l0.1,0.1v0.4h0.5l0,0.1l0.4-0.2l-0.1,0.2l-0.2,0.1l0.1,0.1
			l0.3,0.3l0,0.2l0.4,0.3l0.2-0.2l0.1,0.2h0.2l0.3,0.4v0.1l0.2,0.2l0,0.5l0.1-0.2l0.3-0.1l-0.1,0.2l0.1-0.1l0.1,0.1v0.2h0.1l0.1,0.5
			l0.1,0.1v0.2l-0.1-0.1l0.1,0.4l0.1-0.1v0.2l0.1,0.1v0.3l0.1,0.1l0,0.6l0.1,0.1l-0.1,0.2l0.1,0l0,0.4l0.1,0.2l0.1,1l-0.1,1.1
			l0.1,0.3l-0.2,0.5l0.1,0.3v0.4l-0.1,0.2v0.3l-0.1,0.1l0,0.2l-0.2,0.2l0.3,0.1l-0.1,0.2v0.1l0.1-0.1l-0.1,0.3h0.1l-0.2,0.4l0,0.6
			l-0.1,0.1l-0.1,0.8l-0.1,0.3v0.4l-0.2,0.4l-0.1,0.7l-0.1,0.1v-0.2l-0.1,0.2v0.2l-0.5,0.8v0.4l-0.2,0.1l0.1-0.1l-0.1,0.1l-0.1,0.5
			h-0.2l-0.1,0.1h-0.1l-0.2,0.4h-0.1l-0.2,0.3h-0.3l-0.1,0.1h-0.4l-0.1,0.3l-0.1-0.1l-0.2,0.1H138l-0.1-0.1L137.5,153.8z
			 M139.3,134.4l-0.5-0.2l-0.6-0.3l-0.6-0.6l-0.3-0.2l-0.3-0.4h-0.4l-0.1,0.1l-0.4,0.4l0.2-0.3l-0.2,0.2l-0.2,0l-0.1,0.2l-0.1-0.1
			l-0.2,0.2l-0.1,0.6l0.1,0.1v0.2l-0.1-0.1l-0.1-0.4l-0.2,0.2l-0.1,0.2l-0.2,0.1l-0.2-0.1h-0.1l-0.3-0.5v-0.5l0.2-0.8l0.5-0.8
			l0.4-0.2h0.7l1.5,0.9l0.6,0.8l0.2,0.1l0.4-0.2l0.5-0.5l0.8-1l0.3,0.1l0.6,0.1l0.2,0.2l0.3,0.1l0.1,0.7l-0.2,0.4l-0.1-0.1l-0.1,0.3
			l-0.8,0.9l-0.2,0.1l-0.2,0.2l-0.4,0.2h-0.2l-0.1-0.1H139.3z M137.7,152.7l0.2-0.2l0.4-0.3l0.6-0.5l0.8-1.7l0.2-0.7l0.2-0.4v-0.1
			l0.2-0.3v-0.2l0.1-0.1l-0.1-0.4h0.1l0-0.7l0.2-1.7l0-0.5l0.1-0.4l0.1-0.1l0.1-0.7l-0.1-0.2l0-0.4l0.2-0.1l0.1-0.3h0.1v-0.1
			l-0.2,0.1l-0.1,0.1l-0.1-0.1v-0.3l0.1-0.7l-0.1-0.1l0.1-0.1l-0.1,0.1l0-0.1l0-0.8l-0.1-0.3l0.1-0.2l-0.1,0.1l-0.1-0.2l0.1-0.2
			l-0.2-0.4l-0.1-0.5l-0.6-1.3l-0.4-0.5h-0.2l0.1-0.2l-0.4-0.3h-0.3v0.2h-0.2l-0.2,0.2l0.1,0.4l-0.4,0.4l0.1,0.1v0.1l-0.4,0.6v0.2
			l-0.5,0.6l0,0.3l0.1-0.1l-0.5,1l0.1-0.1l0,0.6l-0.1,0l-0.1,0.8l-0.1,0.1l0,0.7l-0.1,0.6l-0.1,0.2l0.1,0.2l-0.1,0.1l0.1,2.3
			l-0.1,0.6l0.1,0.8l0,0.7l0.2,1.9l0.5,1.5v0.1l0.5,0.8L137.7,152.7z M140.5,149.2L140.5,149.2V149V149.2z M140.7,140.4l0.1-0.1
			h-0.1V140.4z M140.8,143.1v-0.2l-0.1,0.4L140.8,143.1z M141,144.9l0.1,0.1l-0.1-0.4L141,144.9z M141.5,142.9l0-0.2l-0.1,0.1
			L141.5,142.9z"/>
		<path class="st3" d="M145.6,146.6h0.2l0,1.8l-0.2-0.1l0.1,0.2l0.1,0.1v0.2l-0.1,0.2l0.1,0.4l-0.2,0.2l-0.1-0.1l0,0.8l0.1-0.1
			l0.1-0.2l-0.1,0.4l-0.2,0.8l-0.1-0.1l-0.1,0.7v0.1l0.1,0.1v0.4h0.1l0.1-0.1l1.8-0.5h0.3l0.4-0.2l0.1,0.1l0.4-0.2l0.1,0.1l0.1-0.1
			l0.1,0.2l0.1-0.1v-0.1l0.5-0.1v0.2h0.6l0.3-0.1l0.1,0.1l0.2-0.2l0.2,0.2h0.1l-0.1,0.1l0.1,0.1h0.1l0.2,0.3l-0.2,0.2l-0.1,0.2
			l-0.5,0.1h-0.7l-0.1,0.1l-0.4,0.1l-0.2,0.1v0.2l-0.2-0.1l-0.4,0.1l-0.4,0.2l-0.5,0.1l-0.4,0.2l-0.2,0.2h-0.2l-0.2,0.2l-0.6,0.2
			h-0.4l-0.2,0.1l-0.3-0.2l-0.3-0.1l-0.8-0.2v-0.6l0.1-0.1l-0.1-0.1l0-1.2l0.2-2.5v-11.7l-0.1-0.2v-0.9h-0.1l-0.1-0.2l-0.2-0.2
			l-0.1-0.3l0.1-0.4h0.4l0.1,0.1l0.1-0.2l4-0.4v0.1h0.3l0.1-0.1h0.5l0.2,0.1h0.2l0.1-0.1l0.1,0.1l0.6,0.1l0.2,0.1l0.2,0.2l0.1-0.1
			l0.1,0.2l0.3,0.3l-0.3,0.1l-0.1,0.1l0.2,0.1l-0.2,0.2l-0.5,0.1l-0.1,0.2l-0.1,0.1l-0.2-0.1h-0.3l-0.2,0.1l-0.4-0.2l-0.4,0.1
			l-0.6,0.2l-0.2-0.1l-1.7,0.4l-0.3,0.2l0.1,0.6l0.1,0.2v0.6l-0.1,0.1l0.1,0.1v1.6l-0.1,0.2l0.1,0.1l-0.1,0.1l0.1,0.2l-0.2,0.5h0.2
			v0.3l-0.1,0.1l0,0.7l-0.1-0.1l-0.1,0.1v0.5l0.5-0.1h1l0.1,0.1l0.1-0.1h0.2l0.2,0.1l0.3-0.1h0.2l0.1,0.1l0.1-0.1l0.2,0.1h0.2
			l0.2,0.1l0.1,0.3l-0.2,0.4v0.1l-0.1,0.1l0.1,0.2h-0.1l-0.1,0.2h-0.2l-0.5,0.1l0,0.1h-0.2l-0.5,0.2l-0.1,0.1h-0.1l-0.1,0.1h-0.4
			l-0.5,0.3v0.2l-0.1,0.1l-0.1-0.1v0.3l0.1,0.2l0.1-0.4v0.2l-0.1,0.1l0.1,0.2v0.2h-0.1l-0.2,0.2l0,0.5l0.1-0.3l0.1,0.1L145.6,146.6
			L145.6,146.6z M144.4,151.9L144.4,151.9v-0.2V151.9z M151.3,152.4l0.2-0.1v0.2l-0.3,0.3v-0.3H151.3z"/>
		<path class="st3" d="M155.2,153.9l-0.2-0.2h-0.3l-1.2-1l-0.1-0.3l-0.7-0.7h-0.1l-0.1-0.3l-0.6-0.7l-0.3-0.5v-0.2l-0.2-0.1v-0.8
			l-0.1-0.1V149l0.1,0l0.1-0.8l0.1-0.1l0.1,0.2l0.2-0.2l0.2,0.1l0,0.2l0.2,0v0.2l0.1-0.1l0.1,0.1v0.5l0.2-0.5v-0.1l0.3-0.1v0.4
			l0.1,0.1v0.5l0.1,0.1v0.1l-0.1,0v0.4l0.1-0.2l0.1,0.3l0.1,0.1l-0.1,0.2l0.2,0.2l0.1,0.1v0.2l0.1,0.1l0.1,0.2v0.1l0.2,0.1l0,0.2
			l0.3,0.4v0.2l0.6,0.4l0.2,0.3h0.2l0.2-0.5l0.2-0.8l0.1-0.6v-1.3l-0.2-1.5l-0.1-0.1l-0.1-0.5L155,147v-0.2l-0.1-0.1l0.1-0.1
			l-0.1-0.1l-0.1-0.5l-0.1-0.1v-0.5l-0.1-0.1v-0.1l-0.2-0.4l-0.2-0.7l-0.3-0.4v-0.1l-0.4-0.8l-0.1,0l-0.2-0.4l-0.2-0.2l-0.6-1.5
			l-0.3-0.5l-0.3-0.6v-0.2l-0.2-0.5v-0.8l0.3-1.1l0.4-0.6l0.6-0.5l0.9-0.5h0.7l1.4,0.5l0.1,0.2h0.2l0.2,0.2h0.2l0.2,0.2l0.1,0.1
			l0.3,0.3l0.1,0.3l0.1,0.1h0.1v0.3l-0.1,0.1v0.3l-0.2,0.1l-0.3-0.1l-0.1-0.4l-0.1,0.2l-0.1-0.1h-0.2l-0.1-0.2l-0.1,0.1l-0.1-0.1
			l-0.1-0.2l-0.1,0.1h-0.2l-0.1-0.3l-0.1-0.5l-0.1-0.1l-0.6,0.3l-0.5,0.4v-0.1l-0.4,0.6l-0.1,0.4l-0.2,0.4v1.1l0.1,0.1v0.2l0.1,0.2
			v0.1l0.1,0.1l0,0.2l0.1,0.1l0.9,1.8h0.2l1.1,2.5l0.8,2.3l-0.1,0.1l0.1,0.2l0.1,0.1l0.3,1.1l0.1,0.8l0.1,0.1v0.4l0.1,0.2l-0.1,0.2
			v0.2l0.1,0.1l-0.1,0.1v0.4l-0.1,0.1v0.4l0.1,0.1l-0.1,0.2l-0.1,0.2l-0.1-0.1l0.1,0.5l0.1,0.1l-0.2,0.2v0.2l-0.4,0.5l-0.2,0.1h-0.2
			l-0.1,0.2l-0.1-0.1l-0.4,0.1h-0.3l-0.1-0.1l-0.1,0.1l-0.1-0.2L155.2,153.9z"/>
		<path class="st3" d="M168.6,154.2l-0.2,0.1l-0.2-0.2l-0.1,0.1l-0.1-0.2l-0.3-0.1l-0.2-0.2h-0.1l0-0.4l0.1-0.2l-0.1-0.1l-0.2,0.2
			v-0.3l0.1-0.2l-0.1-0.3l-0.1-1.2l0.1-0.1l0-0.4l0.1-0.4h-0.1l0-1.6l-0.1-1.5l0.1,0.6l0-0.6L167,147l0-0.4l0.1-0.1l0,0.4l0.2-0.2
			l-0.2-1.1l0.1-0.2l0.1,0.1l0.1-0.1l0-0.3h-0.1v-0.3h0.2l-0.2-1l-0.1,0.1l-0.1-0.4l0.1-0.8l0.1,0.5l-0.1-0.9l-0.1,0.3L167,142
			l0.1-0.6l0,0.5l0.1,0.2l0-0.3l0-0.9l0.2-0.1l0.1-0.1l-0.1-0.4h0.1l-0.1-1.1l0.1-0.1l0.1-0.2l-0.1,0.1l0-0.1l-0.1-0.1l0-0.7
			l-0.1-0.1l-0.1-0.5l0.1-0.1l0-0.4l-0.1-0.2L167,137l-0.1-0.1l0-0.3l0.3-0.1v-0.1l0.1-0.3h0.2l0.2-0.1l0.2,0.2l0.1-0.2l0.2,0.1
			l0.1,0.1l0.1-0.1l0.1,0.1v0.6l0.1,0.4l0.8,13.2l-0.1,0.4l0.1,1.7l0.3-0.2h0.5l0.1-0.2V152l0.4-0.4l0.8-0.9l0.6-1.1h0.2l0-0.3
			l0.1-0.1l-0.1-0.1l0.8-2.5l0-0.5l0.2-0.2l0-0.5l0.2-0.2l-0.1-0.1l-0.1-0.7l-0.1-1.4L173,143l-0.6-2.3l-1.1-2.1l-1.8-2.2l-0.5-0.5
			l-0.8-0.5l-0.4-0.1l-0.2-0.5l0.2,0.1l0.1-0.1l0.3,0.1l2.5,1.3l0.5,0.4l-0.1,0.1l0.1,0.1h0.1l0.1,0.1l-0.1,0.1l1,1l-0.1,0.1h0.1
			l0.1,0.5l0.3,0.5l0,0.2l0.1-0.1h0.2v0.2h0.1v0.2l0.5,0.8l0.2,0.1l0,0.4l0.1,0.1v0.4l0.4,0.4l-0.1,0.2l0.2,0.5l0,0.4l0.2-0.3
			l0.2,0.8v0.4l0.1,0.1v0.4l-0.1,0.5l0.2,0.2l0,0.5l0.1,0.4l-0.1,0.8l0.1,0.9l-0.1,0.4l-0.2,0.7l-0.1,0.4v0.3l-0.1,0.3l-0.2,0.2
			l-0.1,0.5l-0.2,0.4l0,0.3l-0.2,0.2l0,0.2l-0.3,0.3l-0.1,0.1l-0.3,0.3l-0.1,0.5l-0.4,0.4l-0.2-0.1l-0.2,0.2l0,0.1h-0.2l-0.5,0.5
			h-0.2l-0.2,0.2l-0.6,0.2l-0.1,0.1l-0.5,0.2l-0.3,0.2h-0.5l-0.2,0.2l-0.1-0.1l-0.1,0.1h-0.5L168.6,154.2z M167.3,139.9l0,0.3
			L167.3,139.9L167.3,139.9z M167.6,146.2l0.1-0.2l0-0.4l-0.2,0.1v0.1l0.1,0.2L167.6,146.2z M167.7,151.2l0.1-0.3l-0.1,0.1V151.2z
			 M173.2,149l0.1-0.1v-0.2l-0.2,0.1L173.2,149z M173.5,142.3V142l-0.1-0.1v0.1L173.5,142.3z"/>
		<path class="st3" d="M180,153.8l-0.2-0.2h-0.4l-0.1-0.1l-1.1-0.7l-0.4-0.6l-0.1-0.1l-0.2-0.2l-0.1-0.4l-0.1-0.3l0-0.1l-0.1-0.1
			v-0.2l-0.1-0.1l0.1-0.1l-0.1-0.1l-0.1-0.2l-0.1-0.1l0.1-0.1v-0.1l-0.1-0.1l0.1-0.1l-0.2-0.2l-0.1-0.7l-0.1,0.3l0-0.2l-0.1-0.1
			l-0.1-1.2h0.1v-0.2l-0.3,0.2l0-4l-0.1-0.1l0.1-0.6l0.1,0.4l0.1-0.6h-0.1l0-0.5l0.1-0.3l0-0.3l0.5-2.6l1.2-2.4l0.9-1.2l0.7-0.4
			l0.1,0.1l-0.2,0.1h0.2l0.2-0.1l-0.1-0.1l0.5-0.1l0.3,0.1l0.1,0.2l0.1,0.1v0.4h0.5l0,0.1l0.4-0.2l-0.1,0.2l-0.2,0.1l0.1,0.1
			l0.3,0.3l0,0.2l0.4,0.3l0.2-0.2l0.1,0.2h0.2l0.3,0.4v0.1l0.2,0.2l0,0.5l0.1-0.2l0.3-0.1l-0.1,0.2l0.1-0.1l0.1,0.1v0.2h0.1l0.1,0.5
			l0.1,0.1v0.2l-0.1-0.1l0.1,0.4l0.1-0.1v0.2l0.1,0.1v0.3l0.1,0.1l0,0.6l0.1,0.1l-0.1,0.2l0.1,0l0,0.4l0.1,0.2l0.1,1l-0.1,1.1
			l0.1,0.3l-0.2,0.5l0.1,0.3v0.4l-0.1,0.2v0.3l-0.1,0.1l0,0.2l-0.2,0.2l0.3,0.1l-0.1,0.2v0.1l0.1-0.1l-0.1,0.3h0.1l-0.2,0.4l0,0.6
			l-0.1,0.1l-0.1,0.8l-0.1,0.3v0.4l-0.2,0.4l-0.1,0.7l-0.1,0.1v-0.2l-0.1,0.2v0.2l-0.5,0.8v0.4l-0.2,0.1l0.1-0.1l-0.1,0.1l-0.1,0.5
			h-0.2l-0.1,0.1h-0.1l-0.2,0.4h-0.1l-0.2,0.3h-0.3l-0.1,0.1h-0.4l-0.1,0.3l-0.1-0.1l-0.2,0.1h-0.4l-0.1-0.1L180,153.8z
			 M180.1,152.7l0.2-0.2l0.4-0.3l0.6-0.5l0.8-1.7l0.2-0.7l0.2-0.4v-0.1l0.2-0.3v-0.2l0.1-0.1l-0.1-0.4h0.1l0-0.7l0.2-1.7l0-0.5
			l0.1-0.4l0.1-0.1l0.1-0.7l-0.1-0.2l0-0.4l0.2-0.1l0.1-0.3h0.1v-0.1l-0.2,0.1l-0.1,0.1l-0.1-0.1v-0.3l0.1-0.7l-0.1-0.1l0.1-0.1
			l-0.1,0.1l0-0.1l0-0.8l-0.1-0.3l0.1-0.2l-0.1,0.1l-0.1-0.2l0.1-0.2l-0.2-0.4l-0.1-0.5l-0.6-1.3l-0.4-0.5h-0.2l0.1-0.2l-0.4-0.3
			h-0.3v0.2h-0.2l-0.2,0.2l0.1,0.4l-0.4,0.4l0.1,0.1v0.1l-0.4,0.6v0.2l-0.5,0.6l0,0.3l0.1-0.1l-0.5,1l0.1-0.1l0,0.6l-0.1,0l-0.1,0.8
			l-0.1,0.1l0,0.7l-0.1,0.6l-0.1,0.2l0.1,0.2l-0.1,0.1l0.1,2.3l-0.1,0.6l0.1,0.8l0,0.7l0.2,1.9l0.5,1.5v0.1l0.5,0.8L180.1,152.7z
			 M183,149.2L183,149.2V149V149.2z M183.2,140.4l0.1-0.1h-0.1V140.4z M183.3,143.1v-0.2l-0.1,0.4L183.3,143.1z M183.5,144.9
			l0.1,0.1l-0.1-0.4L183.5,144.9z M184,142.9l0-0.2l-0.1,0.1L184,142.9z"/>
		<path class="st3" d="M195.4,153.8l-0.2-0.1l-0.1,0.1l-0.2,0.1l-0.2-0.2h-0.2l-0.2-0.1l2.2-14.2l0.1-0.1l0.1-0.4l0.2,0.2v-0.4
			l0.3-1.2l0.2-0.2l-0.1-0.1l0.1-0.6l0.1-0.1v0.2l0.1-0.1l0.1,0l0.1-0.1v0.9h-0.1v0.3l0.1-0.1l0.1-0.5h0.2v-0.2l-0.2-0.3l0.2-0.7
			l-0.1-0.3l-0.2-0.2v-0.2l0.2,0.1l0.1-0.1l0.4,0.1l0.1-0.1l0.2,0.1l0.3,0.2h0.1l0.1,0.1l0.4,0.1l0.1,0.2v0.2l0.3,0.5l0.2,0.8v0.3
			l0.2,0.4v0.3l0.2,0.7v0.4l0.1,0.4v0.8l0.2,0.2v0.4l-0.1,0.2v0.3l0.1-0.1v0.4l0.1,0.1v0.6l0.1,0.7l-0.1,0.8l0.1,0.1v0.6l0.1,0.4
			l-0.1,0.2l0.1,0.1v0.2l0.1,0.4v0.5L201,147h0.1l-0.1,0.3l0.1,0.1l-0.1,0.2l0.2-0.1l-0.1,0.1l0.1,0.1l-0.1,0.1l0.1,0.1l0.1,0.6
			l0.1,0.1v0.2l0.1,0.4v0.5l0.1-0.1l0.1,0.4v1.1l0.1,0.1l0,0.7l0.1,1l-0.1,0.1l-0.2-0.1l0.1,0.3l0.1,0.1v0.2h-0.2l-0.1-0.2l-0.1,0.2
			v-0.4l-0.2-0.1l-0.1,0.1L201,153v-0.2l-0.1-0.2l-0.1,0.5h-0.3l-0.2-0.4l-0.5-1.6l-0.1-0.6l-0.1-0.1v-0.5l-0.2-0.3l-0.2-1.3
			l-0.1,0.1l-0.1,0.3l-0.1-0.2l-0.2,0.2v0.2l-0.3,0.2h-0.1l-0.3,0.2h-0.3l-0.1,0.1l-0.9,0.4h-0.2l-0.1,0.2l0.1,0.1l-0.1,0.1v0.2
			l-0.1-0.1l0,0.2h-0.2v0.2l-0.1,0.2v0.4l-0.1,0.1l-0.2,0.6l-0.1,0.9v1.1h0.2l0.1,0.1l-0.4,0.1l-0.1-0.1l-0.1,0.1l-0.2-0.2V153.8z
			 M196.8,141.5l0.1-0.1l-0.1-0.1V141.5z M197.1,147.6L197.1,147.6l0.1-0.4l0.1,0.1v0.2l0.7-0.1h0.5l0.4-0.1v0.2l0.1-0.1l0.1,0.1
			l0.1-0.2l-0.2-1.6l-0.1-1.4l0.1-0.2V144l-0.1,0.1v-0.6h-0.1v-0.6l-0.1-0.2l0.1-0.2v-0.6l-0.2-1.1l0.1-1l-0.1-0.2v-0.3h-0.1v0.8
			l-0.1,0.1v0.6l-0.2,0.3l-0.1,0.4l-0.3,0.4l-0.1,0.6l-0.2,0.1v0.8l-0.1,0.5l-0.2-0.1l-0.1,0.2v0.5h0.1v0.1h-0.2v0.1h0.1l-0.1,0.1
			l0.1,0.1l-0.1,0.2h-0.1l0.1,0.3l0.1-0.1l0.1,0.3l-0.1-0.1v0.5l-0.2,0.6l-0.2,0.2v0.2l0.1-0.2L197.1,147.6L197.1,147.6z
			 M197.1,146.4v-0.5l-0.1,0.4L197.1,146.4z M197.2,138.7h0.1v-0.2l-0.1,0.1v-0.2l-0.1-0.1l-0.1,0.2v0.3L197.2,138.7z M197.2,147
			l-0.1,0.1v-0.2L197.2,147z M197.4,141.4L197.4,141.4v-0.2V141.4z M197.8,137.7v-0.1l-0.2,0.2l0,0.2L197.8,137.7z M197.8,139.3
			L197.8,139.3h-0.2H197.8z M197.9,138.5l-0.1-0.5l-0.1,0.5H197.9z M198.1,138.1L198,138l0.1-0.2l-0.2-0.5v0.8H198.1z M201.9,151.4
			v0.2l-0.1,0.1v-0.2L201.9,151.4z M201.9,153.1L201.9,153.1L201.9,153.1L201.9,153.1z M202,153.6l-0.1,0.1v-0.3L202,153.6z"/>
		<path class="st3" d="M204.2,154l-0.1,0.1h-0.3l-0.1-0.1h-0.1l-0.3,0.1l-0.1-0.1h-0.1l-0.1-0.1l0.1-4.1l-0.1-2.7l-0.1-0.8l-0.2-4.5
			l0.1-0.6l-0.1-2.9l0.1,0.1l0-0.5l0.1-0.2l-0.1-0.7h0.2l0.1-0.2l0.2-0.2v-0.1l0.2-0.3l0.2-0.1h0.2l0.4-0.2l0.2,0l-0.1-0.1l0.4-0.1
			l0.5-0.1h1.1l0.5,0.1l0.7,0.3l1.4,0.8l0.4,0.3l0.2,0.1l0.1,0.2l0.5,0.4v0.2h0.1l0.2,0.3l0.1,0.5l0.1,0.3l-0.1,0.1l0.2,0.3
			l-0.1,0.5l0.1,0.1l0,0.5l-0.4,0.5l-0.2,0.4l-0.4,0.4v0.2l0.1,0.1l-0.1,0.1l-0.1,0.3l-0.2,0.2v0.3l-0.5,0.4l0.1,0.1l-0.2,0.1
			l-0.1,0.4l-0.2,0.1l0,0.1l-0.4,0.3l-0.2,0.4l-0.3,0.1l0.1-0.2l-0.3,0.2l-0.1,0.4l-0.5,0.2H207l-0.1,0.3l0-0.4l0.1-0.2l-0.1-0.1
			v0.1l-0.2,0.2l-0.1-0.1l-0.5,0.3v0.2l-0.1,0.2h0.1l0,0.1l-0.7,0.4l0.2-0.3h0.2V146l-0.1,0.1h-0.2v0.2l-0.1,0.1l-0.1-0.1v-0.2
			l-0.1-0.1l-0.2,0.2l0.2,1.1l-0.1,0.3l0,0.5l0.1,0.3l0,0.7l-0.1,0.4h0.1l0,0.4l-0.1,0.3l0,0.2l0.1,0.1v0.2l-0.2,0.1l-0.1,0.5
			l-0.1-0.1l-0.1,0.1l0.1,0.2l0.2-0.1l-0.1,0.3v0.1l0.1-0.1l0,0.5l-0.1,0.3l-0.2,0.2l0,0.3l0.1,0.1v0.2l-0.1,0.2l-0.1-0.2l-0.2-0.3
			l0,0.9l-0.1-0.1l0.1-0.1h-0.1l-0.2,0.6l-0.1,0.1v-0.3L204.2,154z M204.9,144.8l1.2-1.2l1.4-1.9l0.7-1.4l0.4-1.1l-0.2-1.3l-0.2-0.6
			l-0.5-0.4l-0.5,0.1l-0.2-0.1l-0.8,0.1l-0.1,0.2l-0.9,0.3l-0.2,0.2l-0.4,0.1l0.2,2.1l-0.1,0.3l0.1,0.9l-0.1,0.2l0.1-0.1l0,0.7
			l-0.1,0.4l0.1,0.4l-0.1,0.3h0.1v0.3l-0.1,0.2l0.1-0.1l0.1,0.4l-0.2,0.2l0.2,0.2l-0.2,0.2l0.1,0.1L204.9,144.8z"/>
		<path class="st3" d="M214.9,153.8l-0.2-0.2h-0.4l-0.1-0.1l-1.1-0.7l-0.4-0.6l-0.1-0.1l-0.2-0.2l-0.1-0.4l-0.1-0.3l0-0.1l-0.1-0.1
			v-0.2l-0.1-0.1l0.1-0.1l-0.1-0.1l-0.1-0.2l-0.1-0.1l0.1-0.1v-0.1l-0.1-0.1l0.1-0.1l-0.2-0.2l-0.1-0.7l-0.1,0.3l0-0.2l-0.1-0.1
			l-0.1-1.2h0.1v-0.2l-0.3,0.2l0-4l-0.1-0.1l0.1-0.6l0.1,0.4l0.1-0.6h-0.1l0-0.5l0.1-0.3l0-0.3l0.5-2.6l1.2-2.4l0.9-1.2l0.7-0.4
			l0.1,0.1l-0.2,0.1h0.2l0.2-0.1l-0.1-0.1l0.5-0.1l0.3,0.1l0.1,0.2l0.1,0.1v0.4h0.5l0,0.1l0.4-0.2l-0.1,0.2l-0.2,0.1l0.1,0.1
			l0.3,0.3l0,0.2l0.4,0.3l0.2-0.2l0.1,0.2h0.2l0.3,0.4v0.1l0.2,0.2l0,0.5l0.1-0.2l0.3-0.1l-0.1,0.2l0.1-0.1l0.1,0.1v0.2h0.1l0.1,0.5
			l0.1,0.1v0.2l-0.1-0.1l0.1,0.4l0.1-0.1v0.2l0.1,0.1v0.3l0.1,0.1l0,0.6l0.1,0.1l-0.1,0.2l0.1,0l0,0.4l0.1,0.2l0.1,1l-0.1,1.1
			l0.1,0.3l-0.2,0.5l0.1,0.3v0.4l-0.1,0.2v0.3l-0.1,0.1l0,0.2l-0.2,0.2l0.3,0.1l-0.1,0.2v0.1l0.1-0.1l-0.1,0.3h0.1l-0.2,0.4l0,0.6
			l-0.1,0.1l-0.1,0.8l-0.1,0.3v0.4l-0.2,0.4l-0.1,0.7l-0.1,0.1v-0.2l-0.1,0.2v0.2l-0.5,0.8v0.4l-0.2,0.1l0.1-0.1l-0.1,0.1l-0.1,0.5
			h-0.2l-0.1,0.1h-0.1l-0.2,0.4h-0.1l-0.2,0.3h-0.3l-0.1,0.1h-0.4l-0.1,0.3l-0.1-0.1l-0.2,0.1h-0.4l-0.1-0.1L214.9,153.8z
			 M215.1,152.7l0.2-0.2l0.4-0.3l0.6-0.5l0.8-1.7l0.2-0.7l0.2-0.4v-0.1l0.2-0.3v-0.2l0.1-0.1l-0.1-0.4h0.1l0-0.7l0.2-1.7l0-0.5
			l0.1-0.4l0.1-0.1l0.1-0.7l-0.1-0.2l0-0.4l0.2-0.1l0.1-0.3h0.1v-0.1l-0.2,0.1l-0.1,0.1l-0.1-0.1v-0.3l0.1-0.7l-0.1-0.1l0.1-0.1
			l-0.1,0.1l0-0.1l0-0.8l-0.1-0.3l0.1-0.2l-0.1,0.1l-0.1-0.2l0.1-0.2l-0.2-0.4l-0.1-0.5l-0.6-1.3l-0.4-0.5h-0.2l0.1-0.2l-0.4-0.3
			h-0.3v0.2h-0.2l-0.2,0.2l0.1,0.4l-0.4,0.4l0.1,0.1v0.1l-0.4,0.6v0.2l-0.5,0.6l0,0.3l0.1-0.1l-0.5,1l0.1-0.1l0,0.6l-0.1,0l-0.1,0.8
			l-0.1,0.1l0,0.7l-0.1,0.6l-0.1,0.2l0.1,0.2l-0.1,0.1l0.1,2.3l-0.1,0.6l0.1,0.8l0,0.7l0.2,1.9l0.5,1.5v0.1l0.5,0.8L215.1,152.7z
			 M218,149.2L218,149.2V149V149.2z M218.2,140.4l0.1-0.1h-0.1V140.4z M218.3,143.1v-0.2l-0.1,0.4L218.3,143.1z M218.5,144.9
			l0.1,0.1l-0.1-0.4L218.5,144.9z M219,142.9l0-0.2l-0.1,0.1L219,142.9z"/>
		<path class="st3" d="M221.7,136.2l0.1-0.3v-0.6l-0.1-0.1l0.1-0.2l0.2-0.2l0.9,0.4l0.2,0.1h0.1l0.4,0.2l0.1,0.2h0.1l0.1,0.6v2.4
			l0.1,0.1l-0.1,1.1l0.1,0.4v0.9l0.1,0.2l-0.1,0.3v0.2l0.1-0.2l0.1,0.7l-0.1,0.3l0.1,0.1l-0.1,0.4l0.1,0.5v0.6l0.1,0.1l-0.1,0.1
			l0.1,3.1l-0.1,0v0.4l0.2,0.1l-0.1,0.1l0.1,0.1h-0.2l-0.1,0.4l0.1,0.1l-0.1,0.1v0.5l-0.1-0.2l-0.1,0.2l0.2,0.2v0.1l0.1,0.1h0.1
			l-0.1,0.2h-0.2l-0.1,0.6l-0.1,0.1v0.2l-0.1-0.1l-0.2,0.1v0.5l0.1,0.1l0.1-0.1l0.1,0.2l0.1,0.3l0.1-0.1v0.4l-0.2,0.3l-0.1-0.1
			l-0.1,0.1l-0.1,0.5l-0.1,0.4l-0.1-0.7l-0.1,0.5l-0.1-0.1l-0.1-0.1v-0.2l-0.2,0.2v0.1l-0.2,0.3l-0.1,0.1l-0.1-0.1l-0.1,0.1
			l-0.1-0.1L221.7,136.2z M222.8,153.1l0.1-0.1l0.1,0.2l0.1,0.1l-0.1,0.2l-0.1-0.1l-0.1,0.1l-0.1-0.1L222.8,153.1z M223.2,152.1
			v-0.5l-0.1,0.4L223.2,152.1z M223.8,151.1L223.8,151.1L223.8,151.1L223.8,151.1z M224,150.2l-0.1,0.1l-0.2-0.1L224,150.2z"/>
		<path class="st3" d="M226.2,153.8l-0.2-0.1l-0.1,0.1l-0.2,0.1l-0.2-0.2h-0.2l-0.2-0.1l2.2-14.2l0.1-0.1l0.1-0.4l0.2,0.2v-0.4
			l0.3-1.2l0.2-0.2l-0.1-0.1l0.1-0.6l0.1-0.1v0.2l0.1-0.1l0.1,0l0.1-0.1v0.9h-0.1v0.3l0.1-0.1l0.1-0.5h0.2v-0.2l-0.2-0.3l0.2-0.7
			l-0.1-0.3l-0.2-0.2v-0.2l0.2,0.1l0.1-0.1l0.4,0.1l0.1-0.1l0.2,0.1l0.3,0.2h0.1l0.1,0.1l0.4,0.1l0.1,0.2v0.2l0.3,0.5l0.2,0.8v0.3
			l0.2,0.4v0.3l0.2,0.7v0.4l0.1,0.4v0.8l0.2,0.2v0.4l-0.1,0.2v0.3l0.1-0.1v0.4l0.1,0.1v0.6l0.1,0.7l-0.1,0.8l0.1,0.1v0.6l0.1,0.4
			l-0.1,0.2l0.1,0.1v0.2l0.1,0.4v0.5l-0.1,0.2h0.1l-0.1,0.3l0.1,0.1l-0.1,0.2l0.2-0.1l-0.1,0.1l0.1,0.1l-0.1,0.1l0.1,0.1l0.1,0.6
			l0.1,0.1v0.2l0.1,0.4v0.5l0.1-0.1l0.1,0.4v1.1l0.1,0.1l0,0.7l0.1,1l-0.1,0.1l-0.2-0.1l0.1,0.3l0.1,0.1v0.2h-0.2l-0.1-0.2l-0.1,0.2
			v-0.4l-0.2-0.1l-0.1,0.1l-0.2-0.2v-0.2l-0.1-0.2l-0.1,0.5h-0.3l-0.2-0.4l-0.5-1.6l-0.1-0.6l-0.1-0.1v-0.5l-0.2-0.3l-0.2-1.3
			l-0.1,0.1l-0.1,0.3l-0.1-0.2l-0.2,0.2v0.2l-0.3,0.2h-0.1l-0.3,0.2h-0.3l-0.1,0.1l-0.9,0.4h-0.2l-0.1,0.2l0.1,0.1l-0.1,0.1v0.2
			l-0.1-0.1l0,0.2h-0.2v0.2l-0.1,0.2v0.4l-0.1,0.1l-0.2,0.6l-0.1,0.9v1.1h0.2l0.1,0.1l-0.4,0.1l-0.1-0.1l-0.1,0.1l-0.2-0.2V153.8z
			 M227.6,141.5l0.1-0.1l-0.1-0.1V141.5z M227.8,147.6L227.8,147.6l0.1-0.4l0.1,0.1v0.2l0.7-0.1h0.5l0.4-0.1v0.2l0.1-0.1l0.1,0.1
			l0.1-0.2l-0.2-1.6l-0.1-1.4l0.1-0.2V144l-0.1,0.1v-0.6h-0.1v-0.6l-0.1-0.2l0.1-0.2v-0.6l-0.2-1.1l0.1-1l-0.1-0.2v-0.3h-0.1v0.8
			l-0.1,0.1v0.6l-0.2,0.3l-0.1,0.4l-0.3,0.4l-0.1,0.6l-0.2,0.1v0.8l-0.1,0.5l-0.2-0.1L228,144v0.5h0.1v0.1h-0.2v0.1h0.1l-0.1,0.1
			l0.1,0.1l-0.1,0.2h-0.1l0.1,0.3l0.1-0.1l0.1,0.3l-0.1-0.1v0.5l-0.2,0.6l-0.2,0.2v0.2l0.1-0.2L227.8,147.6L227.8,147.6z
			 M227.9,146.4v-0.5l-0.1,0.4L227.9,146.4z M228,138.7h0.1v-0.2l-0.1,0.1v-0.2l-0.1-0.1l-0.1,0.2v0.3L228,138.7z M228,147l-0.1,0.1
			v-0.2L228,147z M228.1,141.4L228.1,141.4v-0.2V141.4z M228.6,137.7v-0.1l-0.2,0.2l0,0.2L228.6,137.7z M228.5,139.3L228.5,139.3
			h-0.2H228.5z M228.7,138.5l-0.1-0.5l-0.1,0.5H228.7z M228.9,138.1l-0.1-0.1l0.1-0.2l-0.2-0.5v0.8H228.9z M232.6,151.4v0.2
			l-0.1,0.1v-0.2L232.6,151.4z M232.7,153.1L232.7,153.1L232.7,153.1L232.7,153.1z M232.8,153.6l-0.1,0.1v-0.3L232.8,153.6z"/>
		<path class="st3" d="M235.6,154.2l-0.2,0.1l-0.2-0.2l-0.1,0.1l-0.1-0.2l-0.3-0.1l-0.2-0.2h-0.1l0-0.4l0.1-0.2l-0.1-0.1l-0.2,0.2
			v-0.3l0.1-0.2l-0.1-0.3l-0.1-1.2l0.1-0.1l0-0.4l0.1-0.4H234l0-1.6l-0.1-1.5l0.1,0.6l0-0.6L234,147l0-0.4l0.1-0.1l0,0.4l0.2-0.2
			l-0.2-1.1l0.1-0.2l0.1,0.1l0.1-0.1l0-0.3h-0.1v-0.3h0.2l-0.2-1l-0.1,0.1l-0.1-0.4l0.1-0.8l0.1,0.5l-0.1-0.9l-0.1,0.3l-0.1-0.5
			l0.1-0.6l0,0.5l0.1,0.2l0-0.3l0-0.9l0.2-0.1l0.1-0.1l-0.1-0.4h0.1l-0.1-1.1l0.1-0.1l0.1-0.2l-0.1,0.1l0-0.1l-0.1-0.1l0-0.7
			l-0.1-0.1l-0.1-0.5l0.1-0.1l0-0.4l-0.1-0.2l-0.1,0.2l-0.1-0.1l0-0.3l0.3-0.1v-0.1l0.1-0.3h0.2l0.2-0.1l0.2,0.2l0.1-0.2l0.2,0.1
			l0.1,0.1l0.1-0.1l0.1,0.1v0.6l0.1,0.4l0.8,13.2l-0.1,0.4l0.1,1.7l0.3-0.2h0.5l0.1-0.2V152l0.4-0.4l0.8-0.9l0.6-1.1h0.2l0-0.3
			l0.1-0.1l-0.1-0.1l0.8-2.5l0-0.5l0.2-0.2l0-0.5l0.2-0.2l-0.1-0.1l-0.1-0.7l-0.1-1.4L240,143l-0.6-2.3l-1.1-2.1l-1.8-2.2l-0.5-0.5
			l-0.8-0.5l-0.4-0.1l-0.2-0.5l0.2,0.1l0.1-0.1l0.3,0.1l2.5,1.3l0.5,0.4l-0.1,0.1l0.1,0.1h0.1l0.1,0.1l-0.1,0.1l1,1l-0.1,0.1h0.1
			l0.1,0.5l0.3,0.5l0,0.2l0.1-0.1h0.2v0.2h0.1v0.2l0.5,0.8l0.2,0.1l0,0.4l0.1,0.1v0.4l0.4,0.4l-0.1,0.2l0.2,0.5l0,0.4l0.2-0.3
			l0.2,0.8v0.4l0.1,0.1v0.4l-0.1,0.5l0.2,0.2l0,0.5l0.1,0.4l-0.1,0.8l0.1,0.9l-0.1,0.4l-0.2,0.7l-0.1,0.4v0.3l-0.1,0.3l-0.2,0.2
			l-0.1,0.5l-0.2,0.4l0,0.3l-0.2,0.2l0,0.2l-0.3,0.3l-0.1,0.1l-0.3,0.3l-0.1,0.5l-0.4,0.4l-0.2-0.1l-0.2,0.2l0,0.1h-0.2l-0.5,0.5
			h-0.2l-0.2,0.2l-0.6,0.2l-0.1,0.1l-0.5,0.2l-0.3,0.2h-0.5l-0.2,0.2l-0.1-0.1l-0.1,0.1h-0.5L235.6,154.2z M234.3,139.9l0,0.3
			L234.3,139.9L234.3,139.9z M234.6,146.2l0.1-0.2l0-0.4l-0.2,0.1v0.1l0.1,0.2L234.6,146.2z M234.7,151.2l0.1-0.3l-0.1,0.1V151.2z
			 M240.2,149l0.1-0.1v-0.2l-0.2,0.1L240.2,149z M240.5,142.3V142l-0.1-0.1v0.1L240.5,142.3z"/>
		<path class="st3" d="M247,153.8l-0.2-0.2h-0.4l-0.1-0.1l-1.1-0.7l-0.4-0.6l-0.1-0.1l-0.2-0.2l-0.1-0.4l-0.1-0.3l0-0.1l-0.1-0.1
			v-0.2l-0.1-0.1l0.1-0.1l-0.1-0.1l-0.1-0.2l-0.1-0.1l0.1-0.1v-0.1l-0.1-0.1l0.1-0.1l-0.2-0.2l-0.1-0.7l-0.1,0.3l0-0.2l-0.1-0.1
			l-0.1-1.2h0.1v-0.2l-0.3,0.2l0-4l-0.1-0.1l0.1-0.6l0.1,0.4l0.1-0.6h-0.1l0-0.5l0.1-0.3l0-0.3l0.5-2.6l1.2-2.4l0.9-1.2l0.7-0.4
			l0.1,0.1l-0.2,0.1h0.2l0.2-0.1l-0.1-0.1l0.5-0.1l0.3,0.1l0.1,0.2l0.1,0.1v0.4h0.5l0,0.1l0.4-0.2l-0.1,0.2l-0.2,0.1l0.1,0.1
			l0.3,0.3l0,0.2l0.4,0.3l0.2-0.2l0.1,0.2h0.2l0.3,0.4v0.1l0.2,0.2l0,0.5l0.1-0.2l0.3-0.1l-0.1,0.2l0.1-0.1l0.1,0.1v0.2h0.1l0.1,0.5
			l0.1,0.1v0.2l-0.1-0.1l0.1,0.4l0.1-0.1v0.2l0.1,0.1v0.3l0.1,0.1l0,0.6l0.1,0.1l-0.1,0.2l0.1,0l0,0.4l0.1,0.2l0.1,1l-0.1,1.1
			l0.1,0.3l-0.2,0.5l0.1,0.3v0.4l-0.1,0.2v0.3l-0.1,0.1l0,0.2l-0.2,0.2l0.3,0.1l-0.1,0.2v0.1l0.1-0.1l-0.1,0.3h0.1l-0.2,0.4l0,0.6
			l-0.1,0.1l-0.1,0.8l-0.1,0.3v0.4l-0.2,0.4l-0.1,0.7l-0.1,0.1v-0.2l-0.1,0.2v0.2l-0.5,0.8v0.4l-0.2,0.1l0.1-0.1l-0.1,0.1l-0.1,0.5
			h-0.2l-0.1,0.1h-0.1l-0.2,0.4h-0.1l-0.2,0.3h-0.3l-0.1,0.1h-0.4l-0.1,0.3l-0.1-0.1l-0.2,0.1h-0.4l-0.1-0.1L247,153.8z
			 M247.1,152.7l0.2-0.2l0.4-0.3l0.6-0.5l0.8-1.7l0.2-0.7l0.2-0.4v-0.1l0.2-0.3v-0.2l0.1-0.1l-0.1-0.4h0.1l0-0.7l0.2-1.7l0-0.5
			l0.1-0.4l0.1-0.1l0.1-0.7l-0.1-0.2l0-0.4l0.2-0.1l0.1-0.3h0.1v-0.1l-0.2,0.1l-0.1,0.1l-0.1-0.1v-0.3l0.1-0.7l-0.1-0.1l0.1-0.1
			l-0.1,0.1l0-0.1l0-0.8l-0.1-0.3l0.1-0.2l-0.1,0.1l-0.1-0.2l0.1-0.2l-0.2-0.4l-0.1-0.5l-0.6-1.3l-0.4-0.5h-0.2l0.1-0.2l-0.4-0.3
			h-0.3v0.2h-0.2l-0.2,0.2l0.1,0.4l-0.4,0.4l0.1,0.1v0.1l-0.4,0.6v0.2l-0.5,0.6l0,0.3l0.1-0.1l-0.5,1l0.1-0.1l0,0.6l-0.1,0l-0.1,0.8
			l-0.1,0.1l0,0.7l-0.1,0.6l-0.1,0.2l0.1,0.2l-0.1,0.1l0.1,2.3l-0.1,0.6l0.1,0.8l0,0.7l0.2,1.9l0.5,1.5v0.1l0.5,0.8L247.1,152.7z
			 M250,149.2L250,149.2V149V149.2z M250.2,140.4l0.1-0.1h-0.1V140.4z M250.3,143.1v-0.2l-0.1,0.4L250.3,143.1z M250.5,144.9
			l0.1,0.1l-0.1-0.4L250.5,144.9z M251,142.9l0-0.2l-0.1,0.1L251,142.9z"/>
		<path class="st3" d="M253.9,153.7v0.1l-0.1,0.2l-0.1,0.1l-0.2-0.2l-0.1,0l-0.1-0.9l-0.2-2.6l0-1.6l-0.4-5.5l0.2-3.3l-0.2-4.2
			l0.2-0.1v-0.1l0.2-0.2v-0.1l0.2-0.3l0.7-0.2h0.3l0.5-0.1l0.6,0.2h0.4l0.9,0.4l0.5,0.3l0.4,0.2l0.3,0.2l0.8,0.4l0.3,0.3l0.4,0.6
			v0.2l0.1,0.1l0,0.4l0.1-0.1l-0.1,0.5l0.1,0.1l-0.2,0.2l-0.1,0.2v0.4l-0.2,0.4l0,0.6l-0.2,0.4l-0.2,0.2h-0.1l-0.4,0.6v0.1l-0.1,0.2
			l-0.5,0.3l0,0.2l-0.4,0.3l-0.1,0.3l-0.2-0.1l-0.3,0.2v0.2l-0.3,0.3l-0.1-0.1l-0.1,0.1l0.1,0.1l0.2-0.1l-0.1,0.2l0.5,0.7l0.6,1.2
			l0.5,1.2l0.1,0.1l0.1,0.7h0.1l0,0.4l0.1,0.1l0,0.4l0.1,0.1v0.3l0.2,0.2l0,0.3l0.1,0.1l0.4,0.9l0.2,0.7l0.1-0.1l0.1,0.2l0.1,0.5
			l0.1,0.1l0,0.2l0.1,0.2l0.2,0.1l0,0.4l0.1,0.1v0.2l0.1,0.1l0.1-0.1l0,0.2l0.2,0.4v0.1l0.1,0.1l-0.1,0.1h-0.3l-0.3-0.2h-0.6
			l-0.9-0.9l-0.5-0.9l-0.3-0.7l-0.5-1.2l-0.3-0.2l-1.2-4.1l-0.1-0.2l-0.3-0.8l-0.4-0.7l0,0.2l-0.1,0.1l-0.2-0.3l0,0.4l-0.2,0.1h0.1
			l-0.1,0.3l0,0.4l0.1,0.1l0.1-0.1l0.1,0.3l-0.1,0.4v0.9l-0.2,0.2l0,0.3l0.2,0.2l0-0.1l0,0.4l0.2,0.2l-0.1,0.5l-0.1,0.1l0.2,0.2
			l-0.1,0.1v0.2l0,0.1v0.2l-0.1,0.2l0.1,0.3l0,0.2l-0.2-0.1l0,0.4l0.1,0.1l-0.1,0.2l0.1,0.1l0.1-0.1l-0.1,0.3h0.1l0,0.2l0.1,1
			l-0.2-0.1l-0.1,0.1v0.1h0.3l0,0.1l-0.1,0.2l0.2-0.1l-0.1,0.4l0,0.4l-0.1,0.1l0,0.3l-0.1-0.8l-0.1,0.2l0,0.1l0.1-0.1l-0.2,0.5
			l-0.2,0.2l0-0.2l-0.1-0.2l-0.1,0.9l-0.1-0.2l-0.2,0.2l-0.2-0.7L253.9,153.7z M253.9,152.9l0.1-0.1l0-0.4l-0.1,0.3V152.9z
			 M254.8,142.4l0.1-0.1l1.1-1.1v-0.1l0.4-0.5l0.7-1.2l0.4-0.8l0.1-1l-0.1-0.7l-0.2-0.6l-0.7-0.5l-1.3,0.1l-0.6,0.3l0,0.3l0.1,0.2
			l0,0.4l-0.1,0.1l0.1,0.3l-0.1,1l0.2,0.1l-0.1,0.1l0,0.6l0.1,0.1l0,0.4l-0.1,0.1l0.1,0.1l-0.1,0.2l0.1,0.2h-0.2l0.1,1.5l-0.1,0.4
			L254.8,142.4z M254.9,147l0.1-0.1l0.1,0.2l-0.1,0.1L254.9,147L254.9,147z M255.1,154.1l0,0.1L255.1,154.1L255.1,154.1z
			 M256.5,143.1l0.1-0.1h-0.1L256.5,143.1z M257.1,142.7l0,0.1H257l0-0.1H257.1z"/>
		<path class="st3" d="M271.7,154.2l-0.2,0.1l-0.2-0.2l-0.1,0.1l-0.1-0.2l-0.3-0.1l-0.2-0.2h-0.1l0-0.4l0.1-0.2l-0.1-0.1l-0.2,0.2
			v-0.3l0.1-0.2l-0.1-0.3l-0.1-1.2l0.1-0.1l0-0.4l0.1-0.4h-0.1l0-1.6l-0.1-1.5l0.1,0.6l0-0.6l-0.1-0.3l0-0.4l0.1-0.1l0,0.4l0.2-0.2
			l-0.2-1.1l0.1-0.2l0.1,0.1l0.1-0.1l0-0.3h-0.1v-0.3h0.2l-0.2-1l-0.1,0.1l-0.1-0.4l0.1-0.8l0.1,0.5l-0.1-0.9l-0.1,0.3l-0.1-0.5
			l0.1-0.6l0,0.5l0.1,0.2l0-0.3l0-0.9l0.2-0.1l0.1-0.1l-0.1-0.4h0.1l-0.1-1.1l0.1-0.1l0.1-0.2l-0.1,0.1l0-0.1l-0.1-0.1l0-0.7
			l-0.1-0.1l-0.1-0.5l0.1-0.1l0-0.4l-0.1-0.2l-0.1,0.2l-0.1-0.1l0-0.3l0.3-0.1v-0.1l0.1-0.3h0.2l0.2-0.1l0.2,0.2l0.1-0.2l0.2,0.1
			l0.1,0.1l0.1-0.1l0.1,0.1v0.6l0.1,0.4l0.8,13.2l-0.1,0.4l0.1,1.7l0.3-0.2h0.5l0.1-0.2V152l0.4-0.4l0.8-0.9l0.6-1.1h0.2l0-0.3
			l0.1-0.1l-0.1-0.1l0.8-2.5l0-0.5l0.2-0.2l0-0.5l0.2-0.2l-0.1-0.1l-0.1-0.7l-0.1-1.4l-0.1-0.1l-0.6-2.3l-1.1-2.1l-1.8-2.2l-0.5-0.5
			l-0.8-0.5l-0.4-0.1l-0.2-0.5l0.2,0.1l0.1-0.1l0.3,0.1l2.5,1.3l0.5,0.4l-0.1,0.1l0.1,0.1h0.1l0.1,0.1l-0.1,0.1l1,1l-0.1,0.1h0.1
			l0.1,0.5l0.3,0.5l0,0.2l0.1-0.1h0.2v0.2h0.1v0.2l0.5,0.8l0.2,0.1l0,0.4l0.1,0.1v0.4l0.4,0.4l-0.1,0.2l0.2,0.5l0,0.4l0.2-0.3
			l0.2,0.8v0.4l0.1,0.1v0.4l-0.1,0.5l0.2,0.2l0,0.5l0.1,0.4l-0.1,0.8l0.1,0.9l-0.1,0.4l-0.2,0.7l-0.1,0.4v0.3l-0.1,0.3l-0.2,0.2
			l-0.1,0.5l-0.2,0.4l0,0.3l-0.2,0.2l0,0.2l-0.3,0.3l-0.1,0.1l-0.3,0.3l-0.1,0.5l-0.4,0.4l-0.2-0.1l-0.2,0.2l0,0.1h-0.2l-0.5,0.5
			h-0.2l-0.2,0.2l-0.6,0.2l-0.1,0.1l-0.5,0.2l-0.3,0.2h-0.5l-0.2,0.2l-0.1-0.1l-0.1,0.1h-0.5L271.7,154.2z M270.4,139.9l0,0.3
			L270.4,139.9L270.4,139.9z M270.7,146.2l0.1-0.2l0-0.4l-0.2,0.1v0.1l0.1,0.2L270.7,146.2z M270.8,151.2l0.1-0.3l-0.1,0.1V151.2z
			 M276.3,149l0.1-0.1v-0.2l-0.2,0.1L276.3,149z M276.6,142.3V142l-0.1-0.1v0.1L276.6,142.3z"/>
		<path class="st3" d="M281.5,146.6h0.2l0,1.8l-0.2-0.1l0.1,0.2l0.1,0.1v0.2l-0.1,0.2l0.1,0.4l-0.2,0.2l-0.1-0.1l0,0.8l0.1-0.1
			l0.1-0.2l-0.1,0.4l-0.2,0.8l-0.1-0.1l-0.1,0.7v0.1l0.1,0.1v0.4h0.1l0.1-0.1l1.8-0.5h0.3l0.4-0.2l0.1,0.1l0.4-0.2l0.1,0.1l0.1-0.1
			l0.1,0.2l0.1-0.1v-0.1l0.5-0.1v0.2h0.6l0.3-0.1l0.1,0.1l0.2-0.2l0.2,0.2h0.1l-0.1,0.1l0.1,0.1h0.1l0.2,0.3l-0.2,0.2l-0.1,0.2
			l-0.5,0.1h-0.7l-0.1,0.1l-0.4,0.1l-0.2,0.1v0.2l-0.2-0.1l-0.4,0.1l-0.4,0.2l-0.5,0.1l-0.4,0.2l-0.2,0.2h-0.2l-0.2,0.2l-0.6,0.2
			h-0.4l-0.2,0.1l-0.3-0.2l-0.3-0.1l-0.8-0.2v-0.6l0.1-0.1l-0.1-0.1l0-1.2l0.2-2.5v-11.7l-0.1-0.2v-0.9h-0.1l-0.1-0.2l-0.2-0.2
			l-0.1-0.3l0.1-0.4h0.4l0.1,0.1l0.1-0.2l4-0.4v0.1h0.3l0.1-0.1h0.5l0.2,0.1h0.2l0.1-0.1l0.1,0.1l0.6,0.1l0.2,0.1l0.2,0.2l0.1-0.1
			l0.1,0.2l0.3,0.3l-0.3,0.1l-0.1,0.1l0.2,0.1l-0.2,0.2l-0.5,0.1l-0.1,0.2l-0.1,0.1l-0.2-0.1h-0.3l-0.2,0.1l-0.4-0.2l-0.4,0.1
			l-0.6,0.2l-0.2-0.1l-1.7,0.4l-0.3,0.2l0.1,0.6l0.1,0.2v0.6l-0.1,0.1l0.1,0.1v1.6l-0.1,0.2l0.1,0.1l-0.1,0.1l0.1,0.2l-0.2,0.5h0.2
			v0.3l-0.1,0.1l0,0.7l-0.1-0.1l-0.1,0.1v0.5l0.5-0.1h1l0.1,0.1l0.1-0.1h0.2l0.2,0.1l0.3-0.1h0.2l0.1,0.1l0.1-0.1l0.2,0.1h0.2
			l0.2,0.1l0.1,0.3l-0.2,0.4v0.1l-0.1,0.1l0.1,0.2h-0.1l-0.1,0.2h-0.2l-0.5,0.1l0,0.1h-0.2L283,145l-0.1,0.1h-0.1l-0.1,0.1h-0.4
			l-0.5,0.3v0.2l-0.1,0.1l-0.1-0.1v0.3l0.1,0.2l0.1-0.4v0.2l-0.1,0.1l0.1,0.2v0.2h-0.1l-0.2,0.2l0,0.5l0.1-0.3l0.1,0.1L281.5,146.6
			L281.5,146.6z M280.3,151.9L280.3,151.9v-0.2V151.9z M287.3,152.4l0.2-0.1v0.2l-0.3,0.3v-0.3H287.3z"/>
		<path class="st3" d="M302.9,141.4l0.1,0.1l-0.3,0.5l-0.2,0.1v0.2l-0.4,0.6H302l-0.1,0.2l-0.3,0.3l-0.3,0.4l-0.2-0.1l-0.2,0.2
			l0.1,0.1l-0.3,0.3l-0.2,0.3l-0.1-0.1l-0.8,0.4v-0.1h-0.2v-0.4l-0.4,0.1v-0.5l-0.2-0.1l0.1,0.4l-0.1,0.1l0.1,0.2l-0.1,0.1v0.2
			l0.1,0.2v1.4l-0.2,0.3l0.2,0.9v0.7l-0.1,0.2l-0.1,0.3l0.2,0.2v0.5l-0.1,0.2l0-0.1l-0.1,0.5l0.1,0.1l0-0.1l0.1,0v0.3h-0.1l0.1,0.5
			l0.2-0.1l-0.2,0.3l0,0.3l0.2,0.1l-0.1,0.1l-0.1-0.1l-0.2,0.1l0.1,0.2l0.2-0.2l0.1,0.1v0.5l-0.2,0.2l0.2,0.2v0.4l-0.3,0.1v-0.3
			l-0.1,0.2h-0.1V153l-0.1,0.1l0.1,0.3l-0.2,0.1h-0.1v0.3L298,154l-0.1-0.1l-0.2,0.1v-0.5l-0.1-0.3l-0.1,0.6h-0.2v0.1h-0.1l-0.1-0.2
			h-0.2v-0.8l-0.1-1.7v-0.9l-0.1-0.9v-0.9l-0.1-0.4v-2.7l-0.1-0.5V143l0.1-0.1l-0.1-0.1l0.1-0.2l-0.1-0.2v-0.7l0.1-0.2l-0.1-0.1
			l-0.1-2.4l0.1-0.4l-0.1-0.5l0.1-1.5l0.1,0.1l0.1-0.3v-0.5l0.1,0.1l0.1,0.2l0.1-0.2l-0.1-0.1l0.2-0.2l0.3-0.4l0.1-0.4l0.5-0.1v-0.1
			h1.6l0.8,0.2l1.2,0.6h0.2l0.9,0.6l0.2,0.3h0.2l0.4,0.5l0.2,0.5l0.1,0.3v0.7l0.1,0.1l-0.1,0.6l-0.2,0.5v0.5l-0.4,0.4l-0.1,0.3
			l0.1,0.1L302.9,141.4z M297.3,146.9l0.1,0.3v-0.5L297.3,146.9z M297.4,146.2L297.4,146.2V146V146.2z M297.8,153.1v-0.3l-0.1,0.1
			L297.8,153.1z M298.4,153.8l-0.1-0.1h0.1l0.1-0.2l0.1,0.2l-0.1,0.1l0.1,0.1l-0.1,0.3h-0.1l-0.1,0.4l-0.1-0.4L298.4,153.8z
			 M298.5,152.8l0.2,0l-0.1-0.1l0.1-0.2h-0.1v0.1L298.5,152.8z M298.6,152.4l0.1-0.1l-0.1-0.1v-0.1l-0.1,0.1L298.6,152.4z
			 M298.7,143.6l0.2-0.1h0.1l0.4-0.2V143l0.2-0.3l0.1-0.2l0.5-0.5l0.4-0.6l0.2-0.2l0.8-1.5l0.2-0.1l0.1-0.5h0.2l0.1-0.9l0-0.9
			l-0.3-0.6l-0.2-0.1l-0.3-0.3H301l-0.5-0.1l-0.1,0.1h-0.9l-0.7,0.3l-0.1,1.7l0.1,0.8l-0.1,0.8l0.1,0.1l-0.1,0.7l0.1,0.1v1.7
			l-0.1,0.1l0.1,0.2l-0.1,0.2l0.1,0.2V143.6z M298.7,153.8v0.2l-0.1,0.1L298.7,153.8L298.7,153.8z M299,152.4v0.2l-0.1-0.1
			L299,152.4z M299.6,144l0.3-0.1h-0.1L299.6,144z"/>
		<path class="st3" d="M307.1,153.3l-0.1,0.4l-0.1-0.4l-0.2-0.1l-0.1,0.1h-0.1l0.1-0.1l-0.1-0.1l0.2-0.2l-0.1-0.1l0-0.3l-0.1-0.1
			v-0.9l0.1-0.3l-0.1-0.5l-0.2,0.1l0.1-0.1l-0.1,0.1l0.1,1.5l-0.1-0.1l-0.1,0.5l-0.1-0.1l-0.1-0.3l-0.3-0.4v-0.5l-0.1-0.2l0.1-0.4
			v-1l-0.1-0.3v-0.5l0.1-0.1l-0.1-0.3v-3.3l0.1-0.1l-0.2-0.3l0.1-0.9v-2.5l0.1-0.1l-0.1-0.1l0.2-0.5v-0.2l-0.1,0.1l-0.1-0.3v-1.9
			l0.1-0.5v-0.4l-0.1,0.2l-0.1-1.1h0.3l0.3-0.6l-0.2-0.1l0.2-0.1l0.1-0.2l0.2,0.1l0.2-0.1l0.1,0.2l0.4-0.2l0.1,0.1h0.3l0.2,0.6
			l0.1,3.4l-0.1,0.1l0.1,0.1v2.6l-0.1,0.3l0.1,0.2v2.6l0.1,0.1l-0.1,0.3l0.2,0.4l-0.1,0.1l0.1,0.3l-0.1,0.3v1.4l0.1,0.1l-0.1,0.1
			v1.5l-0.1,0.3v0.2l-0.1,0.2l0.2-0.1l-0.1,0.9l0.1,0.1l-0.1,0.3v1.1l-0.1,0.1v0.2l-0.1,0.1l-0.1-0.1v-0.2h-0.1l-0.2,0.3l0-0.3
			L307.1,153.3z M305.7,152.5l0.3,0.3l-0.2,0.2v-0.1L305.7,152.5z M305.9,152l0.1-0.4l-0.1-0.1V152z M306.3,149.6l0.2,0.5v-0.7
			L306.3,149.6z"/>
		<path class="st3" d="M313.5,154.2h-0.3l-0.2,0.1l-0.3-0.1h-0.3l-0.9-0.8l-0.1-0.1h-0.1l-0.1-0.2l0-0.3l-0.1-0.2v-0.2l0.1-0.2V152
			l-0.1-0.1l0.1-0.5l0.1,0.5h0.1v0.1l0.1,0.1l0.1,0.1l0.1-0.1v-0.6l0.2-0.3l0.2-0.4l0.1,0.1l0.2-0.1l-0.1,0.2l-0.1,0l0.1,0.2h0.1
			l0.1,0.1v0.2l-0.2,0.1h0.2v0.4l0.1,0.1l0.1,0.9l-0.2,0.1v0.2l0.2,0.2v-0.2l0.1-0.1l0.1,0.1h0.2l-0.1-0.1l0.3-0.3l0.5-0.9l0.2-1.3
			l-0.2-1.5l0.1-0.1l-0.2-0.7h-0.1v-0.6l-0.1-0.2l-0.1,0.1v-0.7l-0.2-0.3v-0.4l-0.2-0.4l-0.1,0.1v-0.5l-0.2-0.4l0.1-0.2h-0.1
			l-0.1-0.1l-0.3-0.6l0.2-0.1v-0.3l-0.1-0.1l-0.2,0.1l-0.1-0.4h-0.2l-0.1,0.1l0.3-0.3l-0.1-0.2l-0.2,0.1v-0.1h-0.2l-0.2-0.4l0.1-0.1
			l0.1-0.2h-0.2l-0.1,0.1l0.1-0.2l-0.1-0.1l0.2-0.1l-0.2-0.1l0.1-0.1H311l-0.1-0.2l-0.1-0.1l-0.2,0.1l0.2-0.4v-0.1l-0.2,0.1
			l-0.1-0.7l-0.1,0.4l-0.1,0.1l-0.2-0.2H310l-0.2-0.4l-0.1-0.5v-0.5l-0.1-0.2l0.1-0.1v-0.6l-0.1,0.2l0.2-0.5v-0.3l0.3-0.6v0.1h0.1
			l0.3-0.4h0.1l-0.2,0.4l0.8-0.9l-0.4,0.3h-0.1l0.1-0.2l-0.4,0.3l-0.1-0.1l0.1-0.1l0.2-0.1h0.3l0.2-0.3l0.2-0.1l0.1,0.1h0.9l0.2,0.2
			l0.3-0.1l0.7,0.2l0.7,0.4l0.4,0.4l0.4,0.7l0.2,0.2l-0.1,0.4l-0.1-0.1l-0.1,0.1l0-0.5H315v-0.2l-0.2-0.2l0.1,0.4l-0.1,0.3l-0.2-0.2
			l-0.1,0.1l-0.2-0.2v-0.2H314V137l-0.2-0.1l-0.4-0.6H313l-0.3,0.1l-0.3,0.3l-0.2,0.1l-0.4,0.7l-0.2,1l0.1,0.7l0.2,0.7l0.4,0.9
			l0.2,0.3v0.2l0.2,0.4v0.1l0.3,0.4l0.1,0.4l0.1,0.1v0.1l0.1-0.1l0.1,0.4l0.1-0.1v0.1l0.1,0.1v0.2l0.1,0.1l-0.1,0.1l0.1,0.1l0.1-0.1
			l0.1,0.3l0.4,0.7l-0.1,0.1l0.2,0.2v0.1l0.4,0.8v0.1l0.1,0.2v0.2l0.1-0.1l-0.1,0.2h0.2v0.4l0.2,0.4l-0.1,0.1l0.1,0.2l0,0.1h0.1
			l0.1,0.5l0.1,0.1v0.3l0.1,0.2l0.1,0.2l-0.1,0.2h0.1v0.2l0.1,0.1v0.1l-0.1,0.1l0.1,0.2l-0.1,0.3h0.2l-0.1,0.2l0.1,0.3v0.8l-0.1,0.2
			l0.1,0.1l-0.1,0.4v0.4l-0.1,0.2h-0.1v0.5l-0.2,0.3l-0.1,0.1l0.1,0.1H315l-0.4,0.2h-0.3l-0.4,0.4v0.3l-0.4-0.3L313.5,154.2z
			 M311,151.8v0.1l-0.1,0.1L311,151.8L311,151.8z M311,152.1l-0.1,0.4L311,152.1L311,152.1z M311.7,152.7L311.7,152.7v-0.4l-0.1,0.1
			l0.1,0.1V152.7z M312.4,143.9l0,0.1L312.4,143.9L312.4,143.9z M312.5,152.7l-0.1-0.2L312.5,152.7L312.5,152.7z M313.7,147.1
			L313.7,147.1v-0.2l0,0.1L313.7,147.1z"/>
	</g>
</g>
</svg>
